<svg width="300" height="403" viewBox="0 0 300 403" fill="none" xmlns="http://www.w3.org/2000/svg">
<g clip-path="url(#clip0_21_867)">
<mask id="path-1-inside-1_21_867" fill="white">
<path d="M0 7.99999C0 3.58171 3.58172 0 8 0H292C296.418 0 300 3.58172 300 8V395C300 399.418 296.418 403 292 403H7.99999C3.58171 403 0 399.418 0 395V7.99999Z"/>
</mask>
<path d="M0 7.99999C0 3.58171 3.58172 0 8 0H292C296.418 0 300 3.58172 300 8V395C300 399.418 296.418 403 292 403H7.99999C3.58171 403 0 399.418 0 395V7.99999Z" fill="white"/>
<path d="M131.967 46.2727C131.967 48.1534 131.615 49.7642 130.911 51.1051C130.212 52.4403 129.257 53.4631 128.047 54.1733C126.842 54.8835 125.476 55.2386 123.948 55.2386C122.419 55.2386 121.05 54.8835 119.84 54.1733C118.635 53.4574 117.68 52.4318 116.976 51.0966C116.277 49.7557 115.928 48.1477 115.928 46.2727C115.928 44.392 116.277 42.7841 116.976 41.4489C117.68 40.108 118.635 39.0824 119.84 38.3722C121.05 37.6619 122.419 37.3068 123.948 37.3068C125.476 37.3068 126.842 37.6619 128.047 38.3722C129.257 39.0824 130.212 40.108 130.911 41.4489C131.615 42.7841 131.967 44.392 131.967 46.2727ZM128.788 46.2727C128.788 44.9489 128.581 43.8324 128.166 42.9233C127.757 42.0085 127.189 41.3182 126.462 40.8523C125.734 40.3807 124.896 40.1449 123.948 40.1449C122.999 40.1449 122.161 40.3807 121.433 40.8523C120.706 41.3182 120.135 42.0085 119.72 42.9233C119.311 43.8324 119.107 44.9489 119.107 46.2727C119.107 47.5966 119.311 48.7159 119.72 49.6307C120.135 50.5398 120.706 51.2301 121.433 51.7017C122.161 52.1676 122.999 52.4006 123.948 52.4006C124.896 52.4006 125.734 52.1676 126.462 51.7017C127.189 51.2301 127.757 50.5398 128.166 49.6307C128.581 48.7159 128.788 47.5966 128.788 46.2727ZM140.971 41.9091V44.2955H133.232V41.9091H140.971ZM135.167 55V40.6733C135.167 39.7926 135.349 39.0597 135.713 38.4744C136.082 37.8892 136.576 37.4517 137.195 37.1619C137.815 36.8722 138.502 36.7273 139.258 36.7273C139.792 36.7273 140.267 36.7699 140.681 36.8551C141.096 36.9403 141.403 37.017 141.602 37.0852L140.988 39.4716C140.857 39.4318 140.693 39.392 140.494 39.3523C140.295 39.3068 140.073 39.2841 139.829 39.2841C139.255 39.2841 138.849 39.4233 138.61 39.7017C138.377 39.9744 138.261 40.3665 138.261 40.8778V55H135.167ZM149.538 41.9091V44.2955H141.799V41.9091H149.538ZM143.734 55V40.6733C143.734 39.7926 143.916 39.0597 144.279 38.4744C144.649 37.8892 145.143 37.4517 145.762 37.1619C146.382 36.8722 147.069 36.7273 147.825 36.7273C148.359 36.7273 148.833 36.7699 149.248 36.8551C149.663 36.9403 149.97 37.017 150.169 37.0852L149.555 39.4716C149.424 39.4318 149.26 39.392 149.061 39.3523C148.862 39.3068 148.64 39.2841 148.396 39.2841C147.822 39.2841 147.416 39.4233 147.177 39.7017C146.944 39.9744 146.828 40.3665 146.828 40.8778V55H143.734ZM156.777 55.2557C155.465 55.2557 154.331 54.983 153.377 54.4375C152.428 53.8864 151.698 53.108 151.186 52.1023C150.675 51.0909 150.419 49.9006 150.419 48.5312C150.419 47.1847 150.675 46.0028 151.186 44.9858C151.704 43.9631 152.425 43.1676 153.351 42.5994C154.277 42.0256 155.365 41.7386 156.615 41.7386C157.422 41.7386 158.184 41.8693 158.9 42.1307C159.621 42.3864 160.258 42.7841 160.809 43.3239C161.365 43.8636 161.803 44.5511 162.121 45.3864C162.439 46.2159 162.598 47.2045 162.598 48.3523V49.2983H151.868V47.2188H159.641C159.635 46.6278 159.508 46.1023 159.258 45.642C159.008 45.1761 158.658 44.8097 158.209 44.5426C157.766 44.2756 157.249 44.142 156.658 44.142C156.027 44.142 155.473 44.2955 154.996 44.6023C154.519 44.9034 154.147 45.3011 153.88 45.7955C153.618 46.2841 153.485 46.821 153.479 47.4062V49.2216C153.479 49.983 153.618 50.6364 153.897 51.1818C154.175 51.7216 154.564 52.1364 155.064 52.4261C155.564 52.7102 156.15 52.8523 156.82 52.8523C157.269 52.8523 157.675 52.7898 158.039 52.6648C158.402 52.5341 158.718 52.3438 158.985 52.0938C159.252 51.8438 159.454 51.5341 159.59 51.1648L162.471 51.4886C162.289 52.25 161.942 52.9148 161.431 53.483C160.925 54.0455 160.277 54.483 159.488 54.7955C158.698 55.1023 157.794 55.2557 156.777 55.2557ZM164.729 55V41.9091H167.72V44.0909H167.856C168.095 43.3352 168.504 42.7528 169.084 42.3438C169.669 41.929 170.336 41.7216 171.086 41.7216C171.257 41.7216 171.447 41.7301 171.657 41.7472C171.873 41.7585 172.052 41.7784 172.194 41.8068V44.6449C172.064 44.5994 171.856 44.5597 171.572 44.5256C171.294 44.4858 171.024 44.4659 170.763 44.4659C170.2 44.4659 169.694 44.5881 169.246 44.8324C168.802 45.071 168.453 45.4034 168.197 45.8295C167.942 46.2557 167.814 46.7472 167.814 47.304V55H164.729ZM184.111 45.3693L181.298 45.6761C181.219 45.392 181.079 45.125 180.881 44.875C180.687 44.625 180.426 44.4233 180.097 44.2699C179.767 44.1165 179.364 44.0398 178.886 44.0398C178.244 44.0398 177.704 44.179 177.267 44.4574C176.835 44.7358 176.622 45.0966 176.628 45.5398C176.622 45.9205 176.761 46.2301 177.045 46.4688C177.335 46.7074 177.812 46.9034 178.477 47.0568L180.71 47.5341C181.949 47.8011 182.869 48.2244 183.472 48.804C184.079 49.3835 184.386 50.142 184.392 51.0795C184.386 51.9034 184.145 52.6307 183.668 53.2614C183.196 53.8864 182.54 54.375 181.699 54.7273C180.858 55.0795 179.892 55.2557 178.801 55.2557C177.199 55.2557 175.909 54.9205 174.932 54.25C173.954 53.5739 173.372 52.6335 173.185 51.429L176.193 51.1392C176.329 51.7301 176.619 52.1761 177.062 52.4773C177.506 52.7784 178.082 52.929 178.793 52.929C179.526 52.929 180.114 52.7784 180.557 52.4773C181.006 52.1761 181.23 51.804 181.23 51.3608C181.23 50.9858 181.085 50.6761 180.795 50.4318C180.511 50.1875 180.068 50 179.466 49.8693L177.233 49.4006C175.977 49.1392 175.048 48.6989 174.446 48.0795C173.844 47.4545 173.545 46.6648 173.551 45.7102C173.545 44.9034 173.764 44.2045 174.207 43.6136C174.656 43.017 175.278 42.5568 176.074 42.233C176.875 41.9034 177.798 41.7386 178.844 41.7386C180.378 41.7386 181.585 42.0653 182.466 42.7188C183.352 43.3722 183.901 44.2557 184.111 45.3693Z" fill="#1E1E1E"/>
<path d="M136.58 118.477C134.17 118.477 132.023 118.034 130.136 117.148C128.261 116.261 126.773 115.04 125.67 113.483C124.568 111.926 123.994 110.142 123.949 108.131H131.108C131.188 109.483 131.756 110.58 132.812 111.42C133.869 112.261 135.125 112.682 136.58 112.682C137.739 112.682 138.761 112.426 139.648 111.915C140.545 111.392 141.244 110.67 141.744 109.75C142.256 108.818 142.511 107.75 142.511 106.545C142.511 105.318 142.25 104.239 141.727 103.307C141.216 102.375 140.506 101.648 139.597 101.125C138.688 100.602 137.648 100.335 136.477 100.324C135.455 100.324 134.46 100.534 133.494 100.955C132.54 101.375 131.795 101.949 131.261 102.676L124.699 101.5L126.352 83.0909H147.693V89.125H132.438L131.534 97.8693H131.739C132.352 97.0057 133.278 96.2898 134.517 95.7216C135.756 95.1534 137.142 94.8693 138.676 94.8693C140.778 94.8693 142.653 95.3636 144.301 96.3523C145.949 97.3409 147.25 98.6989 148.205 100.426C149.159 102.142 149.631 104.119 149.619 106.358C149.631 108.71 149.085 110.801 147.983 112.631C146.892 114.449 145.364 115.881 143.398 116.926C141.443 117.96 139.17 118.477 136.58 118.477Z" fill="#1E1E1E"/>
<path d="M156.673 107.341L153.392 119.531H152.318L155.599 107.341H156.673ZM161.982 118V117.105L165.343 113.426C165.737 112.995 166.062 112.621 166.317 112.303C166.572 111.981 166.761 111.679 166.884 111.398C167.01 111.113 167.073 110.814 167.073 110.503C167.073 110.145 166.986 109.835 166.814 109.573C166.645 109.311 166.413 109.109 166.118 108.967C165.823 108.824 165.492 108.753 165.124 108.753C164.733 108.753 164.391 108.834 164.1 108.996C163.811 109.156 163.588 109.379 163.428 109.668C163.273 109.956 163.195 110.294 163.195 110.682H162.021C162.021 110.085 162.159 109.562 162.434 109.111C162.709 108.66 163.084 108.309 163.558 108.057C164.035 107.805 164.57 107.679 165.164 107.679C165.76 107.679 166.289 107.805 166.749 108.057C167.21 108.309 167.571 108.648 167.833 109.076C168.095 109.504 168.226 109.979 168.226 110.503C168.226 110.877 168.158 111.244 168.022 111.602C167.89 111.956 167.658 112.352 167.326 112.79C166.998 113.224 166.542 113.754 165.959 114.381L163.672 116.827V116.906H168.405V118H161.982ZM173.779 118.139C173.03 118.139 172.392 117.935 171.865 117.528C171.338 117.117 170.936 116.522 170.657 115.743C170.379 114.961 170.24 114.016 170.24 112.909C170.24 111.809 170.379 110.869 170.657 110.09C170.939 109.308 171.343 108.711 171.87 108.3C172.401 107.886 173.037 107.679 173.779 107.679C174.522 107.679 175.156 107.886 175.683 108.3C176.214 108.711 176.618 109.308 176.896 110.09C177.178 110.869 177.319 111.809 177.319 112.909C177.319 114.016 177.18 114.961 176.901 115.743C176.623 116.522 176.22 117.117 175.693 117.528C175.166 117.935 174.528 118.139 173.779 118.139ZM173.779 117.045C174.522 117.045 175.098 116.687 175.509 115.972C175.92 115.256 176.126 114.235 176.126 112.909C176.126 112.027 176.031 111.277 175.843 110.657C175.657 110.037 175.388 109.565 175.037 109.24C174.689 108.915 174.27 108.753 173.779 108.753C173.044 108.753 172.468 109.116 172.054 109.842C171.64 110.564 171.433 111.587 171.433 112.909C171.433 113.791 171.526 114.54 171.711 115.156C171.897 115.773 172.164 116.242 172.512 116.563C172.863 116.885 173.285 117.045 173.779 117.045Z" fill="#1E1E1E"/>
<path d="M44 155.864C43.5417 155.864 43.1231 155.752 42.7443 155.528C42.3655 155.301 42.0625 154.998 41.8352 154.619C41.6117 154.241 41.5 153.822 41.5 153.364C41.5 152.902 41.6117 152.483 41.8352 152.108C42.0625 151.729 42.3655 151.428 42.7443 151.205C43.1231 150.977 43.5417 150.864 44 150.864C44.4621 150.864 44.8807 150.977 45.2557 151.205C45.6345 151.428 45.9356 151.729 46.1591 152.108C46.3864 152.483 46.5 152.902 46.5 153.364C46.5 153.822 46.3864 154.241 46.1591 154.619C45.9356 154.998 45.6345 155.301 45.2557 155.528C44.8807 155.752 44.4621 155.864 44 155.864ZM57.4091 158V146.364H64.3864V147.614H58.8182V151.545H63.8636V152.795H58.8182V158H57.4091ZM66.6179 158V149.273H67.9588V158H66.6179ZM67.2997 147.818C67.0384 147.818 66.813 147.729 66.6236 147.551C66.438 147.373 66.3452 147.159 66.3452 146.909C66.3452 146.659 66.438 146.445 66.6236 146.267C66.813 146.089 67.0384 146 67.2997 146C67.5611 146 67.7846 146.089 67.9702 146.267C68.1596 146.445 68.2543 146.659 68.2543 146.909C68.2543 147.159 68.1596 147.373 67.9702 147.551C67.7846 147.729 67.5611 147.818 67.2997 147.818ZM70.4148 158V149.273H71.7102V150.591H71.8011C71.9602 150.159 72.2481 149.809 72.6648 149.54C73.0814 149.271 73.5511 149.136 74.0739 149.136C74.1723 149.136 74.2955 149.138 74.4432 149.142C74.5909 149.146 74.7027 149.152 74.7784 149.159V150.523C74.733 150.511 74.6288 150.494 74.4659 150.472C74.3068 150.445 74.1383 150.432 73.9602 150.432C73.536 150.432 73.1572 150.521 72.8239 150.699C72.4943 150.873 72.233 151.116 72.0398 151.426C71.8504 151.733 71.7557 152.083 71.7557 152.477V158H70.4148ZM82.5497 151.227L81.3452 151.568C81.2694 151.367 81.1577 151.172 81.0099 150.983C80.866 150.79 80.669 150.631 80.419 150.506C80.169 150.381 79.849 150.318 79.4588 150.318C78.9247 150.318 78.4796 150.441 78.1236 150.688C77.7713 150.93 77.5952 151.239 77.5952 151.614C77.5952 151.947 77.7164 152.21 77.9588 152.403C78.2012 152.597 78.58 152.758 79.0952 152.886L80.3906 153.205C81.1709 153.394 81.7524 153.684 82.1349 154.074C82.5175 154.46 82.7088 154.958 82.7088 155.568C82.7088 156.068 82.5649 156.515 82.277 156.909C81.9929 157.303 81.5952 157.614 81.0838 157.841C80.5724 158.068 79.9777 158.182 79.2997 158.182C78.4096 158.182 77.6728 157.989 77.0895 157.602C76.5062 157.216 76.1368 156.652 75.9815 155.909L77.2543 155.591C77.3755 156.061 77.6046 156.413 77.9418 156.648C78.2827 156.883 78.7277 157 79.277 157C79.902 157 80.3982 156.867 80.7656 156.602C81.1368 156.333 81.3224 156.011 81.3224 155.636C81.3224 155.333 81.2164 155.08 81.0043 154.875C80.7921 154.667 80.4664 154.511 80.027 154.409L78.5724 154.068C77.7732 153.879 77.1861 153.585 76.8111 153.188C76.4399 152.786 76.2543 152.284 76.2543 151.682C76.2543 151.189 76.3925 150.754 76.669 150.375C76.9493 149.996 77.33 149.699 77.8111 149.483C78.2959 149.267 78.8452 149.159 79.4588 149.159C80.3224 149.159 81.0005 149.348 81.4929 149.727C81.9891 150.106 82.3414 150.606 82.5497 151.227ZM88.5227 149.273V150.409H84V149.273H88.5227ZM85.3182 147.182H86.6591V155.5C86.6591 155.879 86.714 156.163 86.8239 156.352C86.9375 156.538 87.0814 156.663 87.2557 156.727C87.4337 156.788 87.6212 156.818 87.8182 156.818C87.9659 156.818 88.0871 156.811 88.1818 156.795C88.2765 156.777 88.3523 156.761 88.4091 156.75L88.6818 157.955C88.5909 157.989 88.464 158.023 88.3011 158.057C88.1383 158.095 87.9318 158.114 87.6818 158.114C87.303 158.114 86.9318 158.032 86.5682 157.869C86.2083 157.706 85.9091 157.458 85.6705 157.125C85.4356 156.792 85.3182 156.371 85.3182 155.864V147.182ZM98.5852 158.182C97.7973 158.182 97.1061 157.994 96.5114 157.619C95.9205 157.244 95.4583 156.72 95.125 156.045C94.7955 155.371 94.6307 154.583 94.6307 153.682C94.6307 152.773 94.7955 151.979 95.125 151.301C95.4583 150.623 95.9205 150.097 96.5114 149.722C97.1061 149.347 97.7973 149.159 98.5852 149.159C99.3731 149.159 100.063 149.347 100.653 149.722C101.248 150.097 101.71 150.623 102.04 151.301C102.373 151.979 102.54 152.773 102.54 153.682C102.54 154.583 102.373 155.371 102.04 156.045C101.71 156.72 101.248 157.244 100.653 157.619C100.063 157.994 99.3731 158.182 98.5852 158.182ZM98.5852 156.977C99.1837 156.977 99.6761 156.824 100.062 156.517C100.449 156.21 100.735 155.807 100.92 155.307C101.106 154.807 101.199 154.265 101.199 153.682C101.199 153.098 101.106 152.555 100.92 152.051C100.735 151.547 100.449 151.14 100.062 150.83C99.6761 150.519 99.1837 150.364 98.5852 150.364C97.9867 150.364 97.4943 150.519 97.108 150.83C96.7216 151.14 96.4356 151.547 96.25 152.051C96.0644 152.555 95.9716 153.098 95.9716 153.682C95.9716 154.265 96.0644 154.807 96.25 155.307C96.4356 155.807 96.7216 156.21 97.108 156.517C97.4943 156.824 97.9867 156.977 98.5852 156.977ZM108.473 149.273V150.409H103.768V149.273H108.473ZM105.178 158V148.068C105.178 147.568 105.295 147.152 105.53 146.818C105.765 146.485 106.07 146.235 106.445 146.068C106.82 145.902 107.215 145.818 107.632 145.818C107.962 145.818 108.231 145.845 108.439 145.898C108.647 145.951 108.803 146 108.905 146.045L108.518 147.205C108.45 147.182 108.356 147.153 108.234 147.119C108.117 147.085 107.962 147.068 107.768 147.068C107.325 147.068 107.005 147.18 106.808 147.403C106.615 147.627 106.518 147.955 106.518 148.386V158H105.178ZM114.239 149.273V150.409H109.534V149.273H114.239ZM110.943 158V148.068C110.943 147.568 111.061 147.152 111.295 146.818C111.53 146.485 111.835 146.235 112.21 146.068C112.585 145.902 112.981 145.818 113.398 145.818C113.727 145.818 113.996 145.845 114.205 145.898C114.413 145.951 114.568 146 114.67 146.045L114.284 147.205C114.216 147.182 114.121 147.153 114 147.119C113.883 147.085 113.727 147.068 113.534 147.068C113.091 147.068 112.771 147.18 112.574 147.403C112.381 147.627 112.284 147.955 112.284 148.386V158H110.943ZM119.418 158.182C118.577 158.182 117.851 157.996 117.241 157.625C116.635 157.25 116.168 156.727 115.838 156.057C115.512 155.383 115.349 154.598 115.349 153.705C115.349 152.811 115.512 152.023 115.838 151.341C116.168 150.655 116.626 150.121 117.213 149.739C117.804 149.352 118.493 149.159 119.281 149.159C119.736 149.159 120.185 149.235 120.628 149.386C121.071 149.538 121.474 149.784 121.838 150.125C122.202 150.462 122.491 150.909 122.707 151.466C122.923 152.023 123.031 152.708 123.031 153.523V154.091H116.304V152.932H121.668C121.668 152.439 121.569 152 121.372 151.614C121.179 151.227 120.902 150.922 120.543 150.699C120.187 150.475 119.766 150.364 119.281 150.364C118.747 150.364 118.285 150.496 117.895 150.761C117.509 151.023 117.211 151.364 117.003 151.784C116.795 152.205 116.69 152.655 116.69 153.136V153.909C116.69 154.568 116.804 155.127 117.031 155.585C117.262 156.04 117.582 156.386 117.991 156.625C118.401 156.86 118.876 156.977 119.418 156.977C119.77 156.977 120.088 156.928 120.372 156.83C120.66 156.727 120.908 156.576 121.116 156.375C121.325 156.17 121.486 155.917 121.599 155.614L122.895 155.977C122.759 156.417 122.529 156.803 122.207 157.136C121.885 157.466 121.488 157.723 121.014 157.909C120.541 158.091 120.009 158.182 119.418 158.182ZM125.071 158V149.273H126.366V150.591H126.457C126.616 150.159 126.904 149.809 127.321 149.54C127.738 149.271 128.207 149.136 128.73 149.136C128.829 149.136 128.952 149.138 129.099 149.142C129.247 149.146 129.359 149.152 129.435 149.159V150.523C129.389 150.511 129.285 150.494 129.122 150.472C128.963 150.445 128.795 150.432 128.616 150.432C128.192 150.432 127.813 150.521 127.48 150.699C127.151 150.873 126.889 151.116 126.696 151.426C126.507 151.733 126.412 152.083 126.412 152.477V158H125.071Z" fill="#757575"/>
<path d="M44 189.864C43.5417 189.864 43.1231 189.752 42.7443 189.528C42.3655 189.301 42.0625 188.998 41.8352 188.619C41.6117 188.241 41.5 187.822 41.5 187.364C41.5 186.902 41.6117 186.483 41.8352 186.108C42.0625 185.729 42.3655 185.428 42.7443 185.205C43.1231 184.977 43.5417 184.864 44 184.864C44.4621 184.864 44.8807 184.977 45.2557 185.205C45.6345 185.428 45.9356 185.729 46.1591 186.108C46.3864 186.483 46.5 186.902 46.5 187.364C46.5 187.822 46.3864 188.241 46.1591 188.619C45.9356 188.998 45.6345 189.301 45.2557 189.528C44.8807 189.752 44.4621 189.864 44 189.864ZM63.7727 183.273C63.7045 182.697 63.428 182.25 62.9432 181.932C62.4583 181.614 61.8636 181.455 61.1591 181.455C60.6439 181.455 60.1932 181.538 59.8068 181.705C59.4242 181.871 59.125 182.1 58.9091 182.392C58.697 182.684 58.5909 183.015 58.5909 183.386C58.5909 183.697 58.6648 183.964 58.8125 184.188C58.964 184.407 59.1572 184.591 59.392 184.739C59.6269 184.883 59.8731 185.002 60.1307 185.097C60.3883 185.187 60.625 185.261 60.8409 185.318L62.0227 185.636C62.3258 185.716 62.6629 185.826 63.0341 185.966C63.4091 186.106 63.767 186.297 64.108 186.54C64.4527 186.778 64.7367 187.085 64.9602 187.46C65.1837 187.835 65.2955 188.295 65.2955 188.841C65.2955 189.47 65.1307 190.038 64.8011 190.545C64.4754 191.053 63.9981 191.456 63.3693 191.756C62.7443 192.055 61.9848 192.205 61.0909 192.205C60.2576 192.205 59.536 192.07 58.9261 191.801C58.3201 191.532 57.8428 191.157 57.4943 190.676C57.1496 190.195 56.9545 189.636 56.9091 189H58.3636C58.4015 189.439 58.5492 189.803 58.8068 190.091C59.0682 190.375 59.3977 190.587 59.7955 190.727C60.197 190.864 60.6288 190.932 61.0909 190.932C61.6288 190.932 62.1117 190.845 62.5398 190.67C62.9678 190.492 63.3068 190.246 63.5568 189.932C63.8068 189.614 63.9318 189.242 63.9318 188.818C63.9318 188.432 63.8239 188.117 63.608 187.875C63.392 187.633 63.108 187.436 62.7557 187.284C62.4034 187.133 62.0227 187 61.6136 186.886L60.1818 186.477C59.2727 186.216 58.553 185.843 58.0227 185.358C57.4924 184.873 57.2273 184.239 57.2273 183.455C57.2273 182.803 57.4034 182.235 57.7557 181.75C58.1117 181.261 58.589 180.883 59.1875 180.614C59.7898 180.341 60.4621 180.205 61.2045 180.205C61.9545 180.205 62.6212 180.339 63.2045 180.608C63.7879 180.873 64.25 181.237 64.5909 181.699C64.9356 182.161 65.1174 182.686 65.1364 183.273H63.7727ZM71.0895 192.182C70.2486 192.182 69.5232 191.996 68.9134 191.625C68.3073 191.25 67.8395 190.727 67.5099 190.057C67.1842 189.383 67.0213 188.598 67.0213 187.705C67.0213 186.811 67.1842 186.023 67.5099 185.341C67.8395 184.655 68.2978 184.121 68.8849 183.739C69.4759 183.352 70.1652 183.159 70.9531 183.159C71.4077 183.159 71.8565 183.235 72.2997 183.386C72.7429 183.538 73.1463 183.784 73.5099 184.125C73.8736 184.462 74.1634 184.909 74.3793 185.466C74.5952 186.023 74.7031 186.708 74.7031 187.523V188.091H67.9759V186.932H73.3395C73.3395 186.439 73.241 186 73.044 185.614C72.8509 185.227 72.5743 184.922 72.2145 184.699C71.8584 184.475 71.438 184.364 70.9531 184.364C70.419 184.364 69.9569 184.496 69.5668 184.761C69.1804 185.023 68.883 185.364 68.6747 185.784C68.4664 186.205 68.3622 186.655 68.3622 187.136V187.909C68.3622 188.568 68.4759 189.127 68.7031 189.585C68.9342 190.04 69.2543 190.386 69.6634 190.625C70.0724 190.86 70.5478 190.977 71.0895 190.977C71.4418 190.977 71.7599 190.928 72.044 190.83C72.3319 190.727 72.58 190.576 72.7884 190.375C72.9967 190.17 73.1577 189.917 73.2713 189.614L74.5668 189.977C74.4304 190.417 74.2012 190.803 73.8793 191.136C73.5573 191.466 73.1596 191.723 72.6861 191.909C72.2126 192.091 71.6804 192.182 71.0895 192.182ZM80.2884 192.182C79.4702 192.182 78.7656 191.989 78.1747 191.602C77.5838 191.216 77.1293 190.684 76.8111 190.006C76.4929 189.328 76.3338 188.553 76.3338 187.682C76.3338 186.795 76.4967 186.013 76.8224 185.335C77.152 184.653 77.6103 184.121 78.1974 183.739C78.7884 183.352 79.4777 183.159 80.2656 183.159C80.8793 183.159 81.4323 183.273 81.9247 183.5C82.4171 183.727 82.8205 184.045 83.1349 184.455C83.4493 184.864 83.6444 185.341 83.7202 185.886H82.3793C82.277 185.489 82.0497 185.136 81.6974 184.83C81.349 184.519 80.8793 184.364 80.2884 184.364C79.7656 184.364 79.3073 184.5 78.9134 184.773C78.5232 185.042 78.2183 185.422 77.9986 185.915C77.7827 186.403 77.6747 186.977 77.6747 187.636C77.6747 188.311 77.7808 188.898 77.9929 189.398C78.2088 189.898 78.5118 190.286 78.902 190.562C79.2959 190.839 79.758 190.977 80.2884 190.977C80.6368 190.977 80.9531 190.917 81.2372 190.795C81.5213 190.674 81.7618 190.5 81.9588 190.273C82.1558 190.045 82.2959 189.773 82.3793 189.455H83.7202C83.6444 189.97 83.4569 190.434 83.1577 190.847C82.8622 191.256 82.4702 191.581 81.9815 191.824C81.4967 192.062 80.9323 192.182 80.2884 192.182ZM89.2259 192.182C88.438 192.182 87.7467 191.994 87.152 191.619C86.5611 191.244 86.099 190.72 85.7656 190.045C85.4361 189.371 85.2713 188.583 85.2713 187.682C85.2713 186.773 85.4361 185.979 85.7656 185.301C86.099 184.623 86.5611 184.097 87.152 183.722C87.7467 183.347 88.438 183.159 89.2259 183.159C90.0137 183.159 90.7031 183.347 91.294 183.722C91.8887 184.097 92.3509 184.623 92.6804 185.301C93.0137 185.979 93.1804 186.773 93.1804 187.682C93.1804 188.583 93.0137 189.371 92.6804 190.045C92.3509 190.72 91.8887 191.244 91.294 191.619C90.7031 191.994 90.0137 192.182 89.2259 192.182ZM89.2259 190.977C89.8243 190.977 90.3168 190.824 90.7031 190.517C91.0895 190.21 91.3755 189.807 91.5611 189.307C91.7467 188.807 91.8395 188.265 91.8395 187.682C91.8395 187.098 91.7467 186.555 91.5611 186.051C91.3755 185.547 91.0895 185.14 90.7031 184.83C90.3168 184.519 89.8243 184.364 89.2259 184.364C88.6274 184.364 88.1349 184.519 87.7486 184.83C87.3622 185.14 87.0762 185.547 86.8906 186.051C86.705 186.555 86.6122 187.098 86.6122 187.682C86.6122 188.265 86.705 188.807 86.8906 189.307C87.0762 189.807 87.3622 190.21 87.7486 190.517C88.1349 190.824 88.6274 190.977 89.2259 190.977ZM96.5682 186.75V192H95.2273V183.273H96.5227V184.636H96.6364C96.8409 184.193 97.1515 183.837 97.5682 183.568C97.9848 183.295 98.5227 183.159 99.1818 183.159C99.7727 183.159 100.29 183.28 100.733 183.523C101.176 183.761 101.521 184.125 101.767 184.614C102.013 185.098 102.136 185.712 102.136 186.455V192H100.795V186.545C100.795 185.86 100.617 185.326 100.261 184.943C99.9053 184.557 99.4167 184.364 98.7955 184.364C98.3674 184.364 97.9848 184.456 97.6477 184.642C97.3144 184.828 97.0511 185.098 96.858 185.455C96.6648 185.811 96.5682 186.242 96.5682 186.75ZM107.882 192.182C107.155 192.182 106.513 191.998 105.956 191.631C105.399 191.259 104.964 190.737 104.649 190.062C104.335 189.384 104.178 188.583 104.178 187.659C104.178 186.742 104.335 185.947 104.649 185.273C104.964 184.598 105.401 184.078 105.962 183.71C106.522 183.343 107.17 183.159 107.905 183.159C108.473 183.159 108.922 183.254 109.251 183.443C109.585 183.629 109.839 183.841 110.013 184.08C110.191 184.314 110.329 184.508 110.428 184.659H110.541V180.364H111.882V192H110.587V190.659H110.428C110.329 190.818 110.189 191.019 110.007 191.261C109.825 191.5 109.566 191.714 109.229 191.903C108.892 192.089 108.443 192.182 107.882 192.182ZM108.064 190.977C108.602 190.977 109.056 190.837 109.428 190.557C109.799 190.273 110.081 189.881 110.274 189.381C110.467 188.877 110.564 188.295 110.564 187.636C110.564 186.985 110.469 186.415 110.28 185.926C110.09 185.434 109.81 185.051 109.439 184.778C109.068 184.502 108.609 184.364 108.064 184.364C107.496 184.364 107.022 184.509 106.643 184.801C106.268 185.089 105.986 185.481 105.797 185.977C105.611 186.47 105.518 187.023 105.518 187.636C105.518 188.258 105.613 188.822 105.803 189.33C105.996 189.833 106.28 190.235 106.655 190.534C107.034 190.83 107.503 190.977 108.064 190.977ZM122.57 192.182C121.782 192.182 121.09 191.994 120.496 191.619C119.905 191.244 119.443 190.72 119.109 190.045C118.78 189.371 118.615 188.583 118.615 187.682C118.615 186.773 118.78 185.979 119.109 185.301C119.443 184.623 119.905 184.097 120.496 183.722C121.09 183.347 121.782 183.159 122.57 183.159C123.357 183.159 124.047 183.347 124.638 183.722C125.232 184.097 125.695 184.623 126.024 185.301C126.357 185.979 126.524 186.773 126.524 187.682C126.524 188.583 126.357 189.371 126.024 190.045C125.695 190.72 125.232 191.244 124.638 191.619C124.047 191.994 123.357 192.182 122.57 192.182ZM122.57 190.977C123.168 190.977 123.661 190.824 124.047 190.517C124.433 190.21 124.719 189.807 124.905 189.307C125.09 188.807 125.183 188.265 125.183 187.682C125.183 187.098 125.09 186.555 124.905 186.051C124.719 185.547 124.433 185.14 124.047 184.83C123.661 184.519 123.168 184.364 122.57 184.364C121.971 184.364 121.479 184.519 121.092 184.83C120.706 185.14 120.42 185.547 120.234 186.051C120.049 186.555 119.956 187.098 119.956 187.682C119.956 188.265 120.049 188.807 120.234 189.307C120.42 189.807 120.706 190.21 121.092 190.517C121.479 190.824 121.971 190.977 122.57 190.977ZM132.457 183.273V184.409H127.753V183.273H132.457ZM129.162 192V182.068C129.162 181.568 129.279 181.152 129.514 180.818C129.749 180.485 130.054 180.235 130.429 180.068C130.804 179.902 131.2 179.818 131.616 179.818C131.946 179.818 132.215 179.845 132.423 179.898C132.632 179.951 132.787 180 132.889 180.045L132.503 181.205C132.435 181.182 132.34 181.153 132.219 181.119C132.101 181.085 131.946 181.068 131.753 181.068C131.31 181.068 130.99 181.18 130.793 181.403C130.599 181.627 130.503 181.955 130.503 182.386V192H129.162ZM138.223 183.273V184.409H133.518V183.273H138.223ZM134.928 192V182.068C134.928 181.568 135.045 181.152 135.28 180.818C135.515 180.485 135.82 180.235 136.195 180.068C136.57 179.902 136.965 179.818 137.382 179.818C137.712 179.818 137.981 179.845 138.189 179.898C138.397 179.951 138.553 180 138.655 180.045L138.268 181.205C138.2 181.182 138.106 181.153 137.984 181.119C137.867 181.085 137.712 181.068 137.518 181.068C137.075 181.068 136.755 181.18 136.558 181.403C136.365 181.627 136.268 181.955 136.268 182.386V192H134.928ZM143.402 192.182C142.561 192.182 141.836 191.996 141.226 191.625C140.62 191.25 140.152 190.727 139.822 190.057C139.497 189.383 139.334 188.598 139.334 187.705C139.334 186.811 139.497 186.023 139.822 185.341C140.152 184.655 140.61 184.121 141.197 183.739C141.788 183.352 142.478 183.159 143.266 183.159C143.72 183.159 144.169 183.235 144.612 183.386C145.055 183.538 145.459 183.784 145.822 184.125C146.186 184.462 146.476 184.909 146.692 185.466C146.908 186.023 147.016 186.708 147.016 187.523V188.091H140.288V186.932H145.652C145.652 186.439 145.554 186 145.357 185.614C145.163 185.227 144.887 184.922 144.527 184.699C144.171 184.475 143.75 184.364 143.266 184.364C142.732 184.364 142.269 184.496 141.879 184.761C141.493 185.023 141.196 185.364 140.987 185.784C140.779 186.205 140.675 186.655 140.675 187.136V187.909C140.675 188.568 140.788 189.127 141.016 189.585C141.247 190.04 141.567 190.386 141.976 190.625C142.385 190.86 142.86 190.977 143.402 190.977C143.754 190.977 144.072 190.928 144.357 190.83C144.644 190.727 144.893 190.576 145.101 190.375C145.309 190.17 145.47 189.917 145.584 189.614L146.879 189.977C146.743 190.417 146.514 190.803 146.192 191.136C145.87 191.466 145.472 191.723 144.999 191.909C144.525 192.091 143.993 192.182 143.402 192.182ZM149.055 192V183.273H150.351V184.591H150.442C150.601 184.159 150.889 183.809 151.305 183.54C151.722 183.271 152.192 183.136 152.714 183.136C152.813 183.136 152.936 183.138 153.084 183.142C153.232 183.146 153.343 183.152 153.419 183.159V184.523C153.374 184.511 153.269 184.494 153.107 184.472C152.947 184.445 152.779 184.432 152.601 184.432C152.177 184.432 151.798 184.521 151.464 184.699C151.135 184.873 150.874 185.116 150.68 185.426C150.491 185.733 150.396 186.083 150.396 186.477V192H149.055Z" fill="#757575"/>
<path d="M44 223.864C43.5417 223.864 43.1231 223.752 42.7443 223.528C42.3655 223.301 42.0625 222.998 41.8352 222.619C41.6117 222.241 41.5 221.822 41.5 221.364C41.5 220.902 41.6117 220.483 41.8352 220.108C42.0625 219.729 42.3655 219.428 42.7443 219.205C43.1231 218.977 43.5417 218.864 44 218.864C44.4621 218.864 44.8807 218.977 45.2557 219.205C45.6345 219.428 45.9356 219.729 46.1591 220.108C46.3864 220.483 46.5 220.902 46.5 221.364C46.5 221.822 46.3864 222.241 46.1591 222.619C45.9356 222.998 45.6345 223.301 45.2557 223.528C44.8807 223.752 44.4621 223.864 44 223.864ZM56.7727 215.614V214.364H65.5V215.614H61.8409V226H60.4318V215.614H56.7727ZM68.8338 220.75V226H67.4929V214.364H68.8338V218.636H68.9474C69.152 218.186 69.4588 217.828 69.8679 217.562C70.2808 217.294 70.83 217.159 71.5156 217.159C72.1103 217.159 72.6312 217.278 73.0781 217.517C73.5251 217.752 73.8717 218.114 74.1179 218.602C74.3679 219.087 74.4929 219.705 74.4929 220.455V226H73.152V220.545C73.152 219.852 72.9721 219.316 72.6122 218.938C72.2562 218.555 71.7618 218.364 71.1293 218.364C70.6899 218.364 70.2959 218.456 69.9474 218.642C69.6027 218.828 69.33 219.098 69.1293 219.455C68.9323 219.811 68.8338 220.242 68.8338 220.75ZM76.946 226V217.273H78.2869V226H76.946ZM77.6278 215.818C77.3665 215.818 77.1411 215.729 76.9517 215.551C76.7661 215.373 76.6733 215.159 76.6733 214.909C76.6733 214.659 76.7661 214.445 76.9517 214.267C77.1411 214.089 77.3665 214 77.6278 214C77.8892 214 78.1127 214.089 78.2983 214.267C78.4877 214.445 78.5824 214.659 78.5824 214.909C78.5824 215.159 78.4877 215.373 78.2983 215.551C78.1127 215.729 77.8892 215.818 77.6278 215.818ZM80.7429 226V217.273H82.0384V218.591H82.1293C82.2884 218.159 82.5762 217.809 82.9929 217.54C83.4096 217.271 83.8793 217.136 84.402 217.136C84.5005 217.136 84.6236 217.138 84.7713 217.142C84.919 217.146 85.0308 217.152 85.1065 217.159V218.523C85.0611 218.511 84.9569 218.494 84.794 218.472C84.6349 218.445 84.4664 218.432 84.2884 218.432C83.8641 218.432 83.4853 218.521 83.152 218.699C82.8224 218.873 82.5611 219.116 82.3679 219.426C82.1785 219.733 82.0838 220.083 82.0838 220.477V226H80.7429ZM89.7259 226.182C88.9986 226.182 88.3565 225.998 87.7997 225.631C87.2429 225.259 86.8073 224.737 86.4929 224.062C86.1785 223.384 86.0213 222.583 86.0213 221.659C86.0213 220.742 86.1785 219.947 86.4929 219.273C86.8073 218.598 87.2448 218.078 87.8054 217.71C88.366 217.343 89.0137 217.159 89.7486 217.159C90.3168 217.159 90.7656 217.254 91.0952 217.443C91.4285 217.629 91.6823 217.841 91.8565 218.08C92.0346 218.314 92.1728 218.508 92.2713 218.659H92.3849V214.364H93.7259V226H92.4304V224.659H92.2713C92.1728 224.818 92.0327 225.019 91.8509 225.261C91.669 225.5 91.4096 225.714 91.0724 225.903C90.7353 226.089 90.2865 226.182 89.7259 226.182ZM89.9077 224.977C90.4455 224.977 90.9001 224.837 91.2713 224.557C91.6425 224.273 91.9247 223.881 92.1179 223.381C92.3111 222.877 92.4077 222.295 92.4077 221.636C92.4077 220.985 92.313 220.415 92.1236 219.926C91.9342 219.434 91.6539 219.051 91.2827 218.778C90.9115 218.502 90.4531 218.364 89.9077 218.364C89.3395 218.364 88.866 218.509 88.4872 218.801C88.1122 219.089 87.83 219.481 87.6406 219.977C87.455 220.47 87.3622 221.023 87.3622 221.636C87.3622 222.258 87.4569 222.822 87.6463 223.33C87.8395 223.833 88.1236 224.235 88.4986 224.534C88.8774 224.83 89.3471 224.977 89.9077 224.977ZM104.413 226.182C103.625 226.182 102.934 225.994 102.339 225.619C101.749 225.244 101.286 224.72 100.953 224.045C100.624 223.371 100.459 222.583 100.459 221.682C100.459 220.773 100.624 219.979 100.953 219.301C101.286 218.623 101.749 218.097 102.339 217.722C102.934 217.347 103.625 217.159 104.413 217.159C105.201 217.159 105.891 217.347 106.482 217.722C107.076 218.097 107.538 218.623 107.868 219.301C108.201 219.979 108.368 220.773 108.368 221.682C108.368 222.583 108.201 223.371 107.868 224.045C107.538 224.72 107.076 225.244 106.482 225.619C105.891 225.994 105.201 226.182 104.413 226.182ZM104.413 224.977C105.012 224.977 105.504 224.824 105.891 224.517C106.277 224.21 106.563 223.807 106.749 223.307C106.934 222.807 107.027 222.265 107.027 221.682C107.027 221.098 106.934 220.555 106.749 220.051C106.563 219.547 106.277 219.14 105.891 218.83C105.504 218.519 105.012 218.364 104.413 218.364C103.815 218.364 103.322 218.519 102.936 218.83C102.55 219.14 102.264 219.547 102.078 220.051C101.893 220.555 101.8 221.098 101.8 221.682C101.8 222.265 101.893 222.807 102.078 223.307C102.264 223.807 102.55 224.21 102.936 224.517C103.322 224.824 103.815 224.977 104.413 224.977ZM114.301 217.273V218.409H109.597V217.273H114.301ZM111.006 226V216.068C111.006 215.568 111.123 215.152 111.358 214.818C111.593 214.485 111.898 214.235 112.273 214.068C112.648 213.902 113.044 213.818 113.46 213.818C113.79 213.818 114.059 213.845 114.267 213.898C114.475 213.951 114.631 214 114.733 214.045L114.347 215.205C114.278 215.182 114.184 215.153 114.062 215.119C113.945 215.085 113.79 215.068 113.597 215.068C113.153 215.068 112.833 215.18 112.636 215.403C112.443 215.627 112.347 215.955 112.347 216.386V226H111.006ZM120.067 217.273V218.409H115.362V217.273H120.067ZM116.771 226V216.068C116.771 215.568 116.889 215.152 117.124 214.818C117.358 214.485 117.663 214.235 118.038 214.068C118.413 213.902 118.809 213.818 119.226 213.818C119.555 213.818 119.824 213.845 120.033 213.898C120.241 213.951 120.396 214 120.499 214.045L120.112 215.205C120.044 215.182 119.949 215.153 119.828 215.119C119.711 215.085 119.555 215.068 119.362 215.068C118.919 215.068 118.599 215.18 118.402 215.403C118.209 215.627 118.112 215.955 118.112 216.386V226H116.771ZM125.246 226.182C124.405 226.182 123.679 225.996 123.07 225.625C122.464 225.25 121.996 224.727 121.666 224.057C121.34 223.383 121.178 222.598 121.178 221.705C121.178 220.811 121.34 220.023 121.666 219.341C121.996 218.655 122.454 218.121 123.041 217.739C123.632 217.352 124.321 217.159 125.109 217.159C125.564 217.159 126.013 217.235 126.456 217.386C126.899 217.538 127.303 217.784 127.666 218.125C128.03 218.462 128.32 218.909 128.536 219.466C128.751 220.023 128.859 220.708 128.859 221.523V222.091H122.132V220.932H127.496C127.496 220.439 127.397 220 127.2 219.614C127.007 219.227 126.731 218.922 126.371 218.699C126.015 218.475 125.594 218.364 125.109 218.364C124.575 218.364 124.113 218.496 123.723 218.761C123.337 219.023 123.039 219.364 122.831 219.784C122.623 220.205 122.518 220.655 122.518 221.136V221.909C122.518 222.568 122.632 223.127 122.859 223.585C123.09 224.04 123.411 224.386 123.82 224.625C124.229 224.86 124.704 224.977 125.246 224.977C125.598 224.977 125.916 224.928 126.2 224.83C126.488 224.727 126.736 224.576 126.945 224.375C127.153 224.17 127.314 223.917 127.428 223.614L128.723 223.977C128.587 224.417 128.357 224.803 128.036 225.136C127.714 225.466 127.316 225.723 126.842 225.909C126.369 226.091 125.837 226.182 125.246 226.182ZM130.899 226V217.273H132.195V218.591H132.286C132.445 218.159 132.732 217.809 133.149 217.54C133.566 217.271 134.036 217.136 134.558 217.136C134.657 217.136 134.78 217.138 134.928 217.142C135.075 217.146 135.187 217.152 135.263 217.159V218.523C135.217 218.511 135.113 218.494 134.95 218.472C134.791 218.445 134.623 218.432 134.445 218.432C134.02 218.432 133.642 218.521 133.308 218.699C132.979 218.873 132.717 219.116 132.524 219.426C132.335 219.733 132.24 220.083 132.24 220.477V226H130.899Z" fill="#757575"/>
<path d="M44 257.864C43.5417 257.864 43.1231 257.752 42.7443 257.528C42.3655 257.301 42.0625 256.998 41.8352 256.619C41.6117 256.241 41.5 255.822 41.5 255.364C41.5 254.902 41.6117 254.483 41.8352 254.108C42.0625 253.729 42.3655 253.428 42.7443 253.205C43.1231 252.977 43.5417 252.864 44 252.864C44.4621 252.864 44.8807 252.977 45.2557 253.205C45.6345 253.428 45.9356 253.729 46.1591 254.108C46.3864 254.483 46.5 254.902 46.5 255.364C46.5 255.822 46.3864 256.241 46.1591 256.619C45.9356 256.998 45.6345 257.301 45.2557 257.528C44.8807 257.752 44.4621 257.864 44 257.864ZM57.4091 260V248.364H64.3864V249.614H58.8182V253.545H63.8636V254.795H58.8182V260H57.4091ZM69.5227 260.182C68.7348 260.182 68.0436 259.994 67.4489 259.619C66.858 259.244 66.3958 258.72 66.0625 258.045C65.733 257.371 65.5682 256.583 65.5682 255.682C65.5682 254.773 65.733 253.979 66.0625 253.301C66.3958 252.623 66.858 252.097 67.4489 251.722C68.0436 251.347 68.7348 251.159 69.5227 251.159C70.3106 251.159 71 251.347 71.5909 251.722C72.1856 252.097 72.6477 252.623 72.9773 253.301C73.3106 253.979 73.4773 254.773 73.4773 255.682C73.4773 256.583 73.3106 257.371 72.9773 258.045C72.6477 258.72 72.1856 259.244 71.5909 259.619C71 259.994 70.3106 260.182 69.5227 260.182ZM69.5227 258.977C70.1212 258.977 70.6136 258.824 71 258.517C71.3864 258.21 71.6723 257.807 71.858 257.307C72.0436 256.807 72.1364 256.265 72.1364 255.682C72.1364 255.098 72.0436 254.555 71.858 254.051C71.6723 253.547 71.3864 253.14 71 252.83C70.6136 252.519 70.1212 252.364 69.5227 252.364C68.9242 252.364 68.4318 252.519 68.0455 252.83C67.6591 253.14 67.3731 253.547 67.1875 254.051C67.0019 254.555 66.9091 255.098 66.9091 255.682C66.9091 256.265 67.0019 256.807 67.1875 257.307C67.3731 257.807 67.6591 258.21 68.0455 258.517C68.4318 258.824 68.9242 258.977 69.5227 258.977ZM81.0241 256.432V251.273H82.3651V260H81.0241V258.523H80.9332C80.7287 258.966 80.4105 259.343 79.9787 259.653C79.5469 259.96 79.0014 260.114 78.3423 260.114C77.7969 260.114 77.312 259.994 76.8878 259.756C76.4635 259.513 76.1302 259.15 75.8878 258.665C75.6454 258.176 75.5241 257.561 75.5241 256.818V251.273H76.8651V256.727C76.8651 257.364 77.0431 257.871 77.3991 258.25C77.759 258.629 78.2173 258.818 78.7741 258.818C79.1075 258.818 79.4465 258.733 79.7912 258.562C80.1397 258.392 80.4313 258.131 80.6662 257.778C80.9048 257.426 81.0241 256.977 81.0241 256.432ZM84.821 260V251.273H86.1165V252.591H86.2074C86.3665 252.159 86.6544 251.809 87.071 251.54C87.4877 251.271 87.9574 251.136 88.4801 251.136C88.5786 251.136 88.7017 251.138 88.8494 251.142C88.9972 251.146 89.1089 251.152 89.1847 251.159V252.523C89.1392 252.511 89.035 252.494 88.8722 252.472C88.7131 252.445 88.5445 252.432 88.3665 252.432C87.9422 252.432 87.5634 252.521 87.2301 252.699C86.9006 252.873 86.6392 253.116 86.446 253.426C86.2566 253.733 86.1619 254.083 86.1619 254.477V260H84.821ZM95.1165 251.273V252.409H90.5938V251.273H95.1165ZM91.9119 249.182H93.2528V257.5C93.2528 257.879 93.3078 258.163 93.4176 258.352C93.5313 258.538 93.6752 258.663 93.8494 258.727C94.0275 258.788 94.215 258.818 94.4119 258.818C94.5597 258.818 94.6809 258.811 94.7756 258.795C94.8703 258.777 94.946 258.761 95.0028 258.75L95.2756 259.955C95.1847 259.989 95.0578 260.023 94.8949 260.057C94.732 260.095 94.5256 260.114 94.2756 260.114C93.8968 260.114 93.5256 260.032 93.1619 259.869C92.8021 259.706 92.5028 259.458 92.2642 259.125C92.0294 258.792 91.9119 258.371 91.9119 257.864V249.182ZM98.6619 254.75V260H97.321V248.364H98.6619V252.636H98.7756C98.9801 252.186 99.2869 251.828 99.696 251.562C100.109 251.294 100.658 251.159 101.344 251.159C101.938 251.159 102.459 251.278 102.906 251.517C103.353 251.752 103.7 252.114 103.946 252.602C104.196 253.087 104.321 253.705 104.321 254.455V260H102.98V254.545C102.98 253.852 102.8 253.316 102.44 252.938C102.084 252.555 101.59 252.364 100.957 252.364C100.518 252.364 100.124 252.456 99.7756 252.642C99.4309 252.828 99.1581 253.098 98.9574 253.455C98.7604 253.811 98.6619 254.242 98.6619 254.75ZM114.82 260.182C114.032 260.182 113.34 259.994 112.746 259.619C112.155 259.244 111.693 258.72 111.359 258.045C111.03 257.371 110.865 256.583 110.865 255.682C110.865 254.773 111.03 253.979 111.359 253.301C111.693 252.623 112.155 252.097 112.746 251.722C113.34 251.347 114.032 251.159 114.82 251.159C115.607 251.159 116.297 251.347 116.888 251.722C117.482 252.097 117.945 252.623 118.274 253.301C118.607 253.979 118.774 254.773 118.774 255.682C118.774 256.583 118.607 257.371 118.274 258.045C117.945 258.72 117.482 259.244 116.888 259.619C116.297 259.994 115.607 260.182 114.82 260.182ZM114.82 258.977C115.418 258.977 115.911 258.824 116.297 258.517C116.683 258.21 116.969 257.807 117.155 257.307C117.34 256.807 117.433 256.265 117.433 255.682C117.433 255.098 117.34 254.555 117.155 254.051C116.969 253.547 116.683 253.14 116.297 252.83C115.911 252.519 115.418 252.364 114.82 252.364C114.221 252.364 113.729 252.519 113.342 252.83C112.956 253.14 112.67 253.547 112.484 254.051C112.299 254.555 112.206 255.098 112.206 255.682C112.206 256.265 112.299 256.807 112.484 257.307C112.67 257.807 112.956 258.21 113.342 258.517C113.729 258.824 114.221 258.977 114.82 258.977ZM124.707 251.273V252.409H120.003V251.273H124.707ZM121.412 260V250.068C121.412 249.568 121.529 249.152 121.764 248.818C121.999 248.485 122.304 248.235 122.679 248.068C123.054 247.902 123.45 247.818 123.866 247.818C124.196 247.818 124.465 247.845 124.673 247.898C124.882 247.951 125.037 248 125.139 248.045L124.753 249.205C124.685 249.182 124.59 249.153 124.469 249.119C124.351 249.085 124.196 249.068 124.003 249.068C123.56 249.068 123.24 249.18 123.043 249.403C122.849 249.627 122.753 249.955 122.753 250.386V260H121.412ZM130.473 251.273V252.409H125.768V251.273H130.473ZM127.178 260V250.068C127.178 249.568 127.295 249.152 127.53 248.818C127.765 248.485 128.07 248.235 128.445 248.068C128.82 247.902 129.215 247.818 129.632 247.818C129.962 247.818 130.231 247.845 130.439 247.898C130.647 247.951 130.803 248 130.905 248.045L130.518 249.205C130.45 249.182 130.356 249.153 130.234 249.119C130.117 249.085 129.962 249.068 129.768 249.068C129.325 249.068 129.005 249.18 128.808 249.403C128.615 249.627 128.518 249.955 128.518 250.386V260H127.178ZM135.652 260.182C134.811 260.182 134.086 259.996 133.476 259.625C132.87 259.25 132.402 258.727 132.072 258.057C131.747 257.383 131.584 256.598 131.584 255.705C131.584 254.811 131.747 254.023 132.072 253.341C132.402 252.655 132.86 252.121 133.447 251.739C134.038 251.352 134.728 251.159 135.516 251.159C135.97 251.159 136.419 251.235 136.862 251.386C137.305 251.538 137.709 251.784 138.072 252.125C138.436 252.462 138.726 252.909 138.942 253.466C139.158 254.023 139.266 254.708 139.266 255.523V256.091H132.538V254.932H137.902C137.902 254.439 137.804 254 137.607 253.614C137.413 253.227 137.137 252.922 136.777 252.699C136.421 252.475 136 252.364 135.516 252.364C134.982 252.364 134.519 252.496 134.129 252.761C133.743 253.023 133.446 253.364 133.237 253.784C133.029 254.205 132.925 254.655 132.925 255.136V255.909C132.925 256.568 133.038 257.127 133.266 257.585C133.497 258.04 133.817 258.386 134.226 258.625C134.635 258.86 135.11 258.977 135.652 258.977C136.004 258.977 136.322 258.928 136.607 258.83C136.894 258.727 137.143 258.576 137.351 258.375C137.559 258.17 137.72 257.917 137.834 257.614L139.129 257.977C138.993 258.417 138.764 258.803 138.442 259.136C138.12 259.466 137.722 259.723 137.249 259.909C136.775 260.091 136.243 260.182 135.652 260.182ZM141.305 260V251.273H142.601V252.591H142.692C142.851 252.159 143.139 251.809 143.555 251.54C143.972 251.271 144.442 251.136 144.964 251.136C145.063 251.136 145.186 251.138 145.334 251.142C145.482 251.146 145.593 251.152 145.669 251.159V252.523C145.624 252.511 145.519 252.494 145.357 252.472C145.197 252.445 145.029 252.432 144.851 252.432C144.427 252.432 144.048 252.521 143.714 252.699C143.385 252.873 143.124 253.116 142.93 253.426C142.741 253.733 142.646 254.083 142.646 254.477V260H141.305Z" fill="#757575"/>
<path d="M44 291.864C43.5417 291.864 43.1231 291.752 42.7443 291.528C42.3655 291.301 42.0625 290.998 41.8352 290.619C41.6117 290.241 41.5 289.822 41.5 289.364C41.5 288.902 41.6117 288.483 41.8352 288.108C42.0625 287.729 42.3655 287.428 42.7443 287.205C43.1231 286.977 43.5417 286.864 44 286.864C44.4621 286.864 44.8807 286.977 45.2557 287.205C45.6345 287.428 45.9356 287.729 46.1591 288.108C46.3864 288.483 46.5 288.902 46.5 289.364C46.5 289.822 46.3864 290.241 46.1591 290.619C45.9356 290.998 45.6345 291.301 45.2557 291.528C44.8807 291.752 44.4621 291.864 44 291.864ZM57.4091 294V282.364H64.3864V283.614H58.8182V287.545H63.8636V288.795H58.8182V294H57.4091ZM66.6179 294V285.273H67.9588V294H66.6179ZM67.2997 283.818C67.0384 283.818 66.813 283.729 66.6236 283.551C66.438 283.373 66.3452 283.159 66.3452 282.909C66.3452 282.659 66.438 282.445 66.6236 282.267C66.813 282.089 67.0384 282 67.2997 282C67.5611 282 67.7846 282.089 67.9702 282.267C68.1596 282.445 68.2543 282.659 68.2543 282.909C68.2543 283.159 68.1596 283.373 67.9702 283.551C67.7846 283.729 67.5611 283.818 67.2997 283.818ZM74.3011 285.273V286.409H69.5966V285.273H74.3011ZM71.0057 294V284.068C71.0057 283.568 71.1231 283.152 71.358 282.818C71.5928 282.485 71.8977 282.235 72.2727 282.068C72.6477 281.902 73.0436 281.818 73.4602 281.818C73.7898 281.818 74.0587 281.845 74.267 281.898C74.4754 281.951 74.6307 282 74.733 282.045L74.3466 283.205C74.2784 283.182 74.1837 283.153 74.0625 283.119C73.9451 283.085 73.7898 283.068 73.5966 283.068C73.1534 283.068 72.8333 283.18 72.6364 283.403C72.4432 283.627 72.3466 283.955 72.3466 284.386V294H71.0057ZM79.9759 285.273V286.409H75.4531V285.273H79.9759ZM76.7713 283.182H78.1122V291.5C78.1122 291.879 78.1671 292.163 78.277 292.352C78.3906 292.538 78.5346 292.663 78.7088 292.727C78.8868 292.788 79.0743 292.818 79.2713 292.818C79.419 292.818 79.5402 292.811 79.6349 292.795C79.7296 292.777 79.8054 292.761 79.8622 292.75L80.1349 293.955C80.044 293.989 79.9171 294.023 79.7543 294.057C79.5914 294.095 79.3849 294.114 79.1349 294.114C78.7562 294.114 78.3849 294.032 78.0213 293.869C77.6615 293.706 77.3622 293.458 77.1236 293.125C76.8887 292.792 76.7713 292.371 76.7713 291.864V283.182ZM83.5213 288.75V294H82.1804V282.364H83.5213V286.636H83.6349C83.8395 286.186 84.1463 285.828 84.5554 285.562C84.9683 285.294 85.5175 285.159 86.2031 285.159C86.7978 285.159 87.3187 285.278 87.7656 285.517C88.2126 285.752 88.5592 286.114 88.8054 286.602C89.0554 287.087 89.1804 287.705 89.1804 288.455V294H87.8395V288.545C87.8395 287.852 87.6596 287.316 87.2997 286.938C86.9437 286.555 86.4493 286.364 85.8168 286.364C85.3774 286.364 84.9834 286.456 84.6349 286.642C84.2902 286.828 84.0175 287.098 83.8168 287.455C83.6198 287.811 83.5213 288.242 83.5213 288.75ZM99.679 294.182C98.8911 294.182 98.1998 293.994 97.6051 293.619C97.0142 293.244 96.5521 292.72 96.2188 292.045C95.8892 291.371 95.7244 290.583 95.7244 289.682C95.7244 288.773 95.8892 287.979 96.2188 287.301C96.5521 286.623 97.0142 286.097 97.6051 285.722C98.1998 285.347 98.8911 285.159 99.679 285.159C100.467 285.159 101.156 285.347 101.747 285.722C102.342 286.097 102.804 286.623 103.134 287.301C103.467 287.979 103.634 288.773 103.634 289.682C103.634 290.583 103.467 291.371 103.134 292.045C102.804 292.72 102.342 293.244 101.747 293.619C101.156 293.994 100.467 294.182 99.679 294.182ZM99.679 292.977C100.277 292.977 100.77 292.824 101.156 292.517C101.543 292.21 101.829 291.807 102.014 291.307C102.2 290.807 102.293 290.265 102.293 289.682C102.293 289.098 102.2 288.555 102.014 288.051C101.829 287.547 101.543 287.14 101.156 286.83C100.77 286.519 100.277 286.364 99.679 286.364C99.0805 286.364 98.5881 286.519 98.2017 286.83C97.8153 287.14 97.5294 287.547 97.3438 288.051C97.1581 288.555 97.0653 289.098 97.0653 289.682C97.0653 290.265 97.1581 290.807 97.3438 291.307C97.5294 291.807 97.8153 292.21 98.2017 292.517C98.5881 292.824 99.0805 292.977 99.679 292.977ZM109.567 285.273V286.409H104.862V285.273H109.567ZM106.271 294V284.068C106.271 283.568 106.389 283.152 106.624 282.818C106.858 282.485 107.163 282.235 107.538 282.068C107.913 281.902 108.309 281.818 108.726 281.818C109.055 281.818 109.324 281.845 109.533 281.898C109.741 281.951 109.896 282 109.999 282.045L109.612 283.205C109.544 283.182 109.449 283.153 109.328 283.119C109.211 283.085 109.055 283.068 108.862 283.068C108.419 283.068 108.099 283.18 107.902 283.403C107.709 283.627 107.612 283.955 107.612 284.386V294H106.271ZM115.332 285.273V286.409H110.628V285.273H115.332ZM112.037 294V284.068C112.037 283.568 112.154 283.152 112.389 282.818C112.624 282.485 112.929 282.235 113.304 282.068C113.679 281.902 114.075 281.818 114.491 281.818C114.821 281.818 115.09 281.845 115.298 281.898C115.507 281.951 115.662 282 115.764 282.045L115.378 283.205C115.31 283.182 115.215 283.153 115.094 283.119C114.976 283.085 114.821 283.068 114.628 283.068C114.185 283.068 113.865 283.18 113.668 283.403C113.474 283.627 113.378 283.955 113.378 284.386V294H112.037ZM120.511 294.182C119.67 294.182 118.945 293.996 118.335 293.625C117.729 293.25 117.261 292.727 116.932 292.057C116.606 291.383 116.443 290.598 116.443 289.705C116.443 288.811 116.606 288.023 116.932 287.341C117.261 286.655 117.72 286.121 118.307 285.739C118.898 285.352 119.587 285.159 120.375 285.159C120.83 285.159 121.278 285.235 121.722 285.386C122.165 285.538 122.568 285.784 122.932 286.125C123.295 286.462 123.585 286.909 123.801 287.466C124.017 288.023 124.125 288.708 124.125 289.523V290.091H117.398V288.932H122.761C122.761 288.439 122.663 288 122.466 287.614C122.273 287.227 121.996 286.922 121.636 286.699C121.28 286.475 120.86 286.364 120.375 286.364C119.841 286.364 119.379 286.496 118.989 286.761C118.602 287.023 118.305 287.364 118.097 287.784C117.888 288.205 117.784 288.655 117.784 289.136V289.909C117.784 290.568 117.898 291.127 118.125 291.585C118.356 292.04 118.676 292.386 119.085 292.625C119.494 292.86 119.97 292.977 120.511 292.977C120.864 292.977 121.182 292.928 121.466 292.83C121.754 292.727 122.002 292.576 122.21 292.375C122.419 292.17 122.58 291.917 122.693 291.614L123.989 291.977C123.852 292.417 123.623 292.803 123.301 293.136C122.979 293.466 122.581 293.723 122.108 293.909C121.634 294.091 121.102 294.182 120.511 294.182ZM126.165 294V285.273H127.46V286.591H127.551C127.71 286.159 127.998 285.809 128.415 285.54C128.831 285.271 129.301 285.136 129.824 285.136C129.922 285.136 130.045 285.138 130.193 285.142C130.341 285.146 130.453 285.152 130.528 285.159V286.523C130.483 286.511 130.379 286.494 130.216 286.472C130.057 286.445 129.888 286.432 129.71 286.432C129.286 286.432 128.907 286.521 128.574 286.699C128.244 286.873 127.983 287.116 127.79 287.426C127.6 287.733 127.506 288.083 127.506 288.477V294H126.165Z" fill="#757575"/>
<path d="M32 321C32 316.582 35.5817 313 40 313H209C213.418 313 217 316.582 217 321V345C217 349.418 213.418 353 209 353H40C35.5817 353 32 349.418 32 345V321Z" fill="#4577E1"/>
<path d="M78.7159 329.091C78.6307 328.371 78.285 327.812 77.679 327.415C77.0729 327.017 76.3295 326.818 75.4489 326.818C74.8049 326.818 74.2415 326.922 73.7585 327.131C73.2803 327.339 72.9063 327.625 72.6364 327.99C72.3712 328.355 72.2386 328.769 72.2386 329.233C72.2386 329.621 72.331 329.955 72.5156 330.234C72.705 330.509 72.9465 330.739 73.2401 330.923C73.5336 331.103 73.8414 331.252 74.1634 331.371C74.4853 331.484 74.7812 331.577 75.0511 331.648L76.5284 332.045C76.9072 332.145 77.3286 332.282 77.7926 332.457C78.2614 332.633 78.7088 332.872 79.1349 333.175C79.5658 333.473 79.9209 333.857 80.2003 334.325C80.4796 334.794 80.6193 335.369 80.6193 336.051C80.6193 336.837 80.4134 337.547 80.0014 338.182C79.5942 338.816 78.9976 339.321 78.2116 339.695C77.4304 340.069 76.4811 340.256 75.3636 340.256C74.322 340.256 73.42 340.088 72.6577 339.751C71.9001 339.415 71.3035 338.946 70.8679 338.345C70.437 337.744 70.1932 337.045 70.1364 336.25H71.9545C72.0019 336.799 72.1866 337.254 72.5085 337.614C72.8352 337.969 73.2472 338.234 73.7443 338.409C74.2462 338.58 74.786 338.665 75.3636 338.665C76.036 338.665 76.6397 338.556 77.1747 338.338C77.7098 338.116 78.1335 337.808 78.446 337.415C78.7585 337.017 78.9148 336.553 78.9148 336.023C78.9148 335.54 78.7798 335.147 78.5099 334.844C78.2401 334.541 77.8849 334.295 77.4446 334.105C77.0043 333.916 76.5284 333.75 76.017 333.608L74.2273 333.097C73.0909 332.77 72.1913 332.304 71.5284 331.697C70.8655 331.091 70.5341 330.298 70.5341 329.318C70.5341 328.504 70.7543 327.794 71.1946 327.188C71.6397 326.577 72.2363 326.103 72.9844 325.767C73.7372 325.426 74.5777 325.256 75.5057 325.256C76.4432 325.256 77.2765 325.424 78.0057 325.76C78.7348 326.091 79.3125 326.546 79.7386 327.124C80.1695 327.701 80.3968 328.357 80.4205 329.091H78.7159ZM87.8619 340.227C86.8107 340.227 85.904 339.995 85.1417 339.531C84.3841 339.062 83.7994 338.409 83.3874 337.571C82.9802 336.728 82.7766 335.748 82.7766 334.631C82.7766 333.513 82.9802 332.528 83.3874 331.676C83.7994 330.819 84.3723 330.152 85.1062 329.673C85.8448 329.19 86.7066 328.949 87.6914 328.949C88.2596 328.949 88.8207 329.044 89.3746 329.233C89.9286 329.422 90.4329 329.73 90.8874 330.156C91.342 330.578 91.7042 331.136 91.9741 331.832C92.244 332.528 92.3789 333.385 92.3789 334.403V335.114H83.9698V333.665H90.6744C90.6744 333.049 90.5513 332.5 90.305 332.017C90.0636 331.534 89.7179 331.153 89.2681 330.874C88.823 330.594 88.2975 330.455 87.6914 330.455C87.0238 330.455 86.4461 330.62 85.9585 330.952C85.4755 331.278 85.1038 331.705 84.8434 332.23C84.583 332.756 84.4528 333.319 84.4528 333.92V334.886C84.4528 335.71 84.5948 336.409 84.8789 336.982C85.1677 337.55 85.5678 337.983 86.0792 338.281C86.5906 338.575 87.1848 338.722 87.8619 338.722C88.3022 338.722 88.6999 338.66 89.055 338.537C89.4149 338.409 89.725 338.22 89.9854 337.969C90.2459 337.713 90.4471 337.396 90.5891 337.017L92.2085 337.472C92.038 338.021 91.7515 338.504 91.3491 338.92C90.9466 339.332 90.4495 339.654 89.8576 339.886C89.2657 340.114 88.6005 340.227 87.8619 340.227ZM98.1388 340.256C97.4476 340.256 96.8202 340.125 96.2567 339.865C95.6933 339.6 95.2459 339.219 94.9144 338.722C94.583 338.22 94.4173 337.614 94.4173 336.903C94.4173 336.278 94.5404 335.772 94.7866 335.384C95.0328 334.991 95.3619 334.683 95.7738 334.46C96.1857 334.238 96.6403 334.072 97.1374 333.963C97.6393 333.849 98.1436 333.759 98.6502 333.693C99.3131 333.608 99.8505 333.544 100.262 333.501C100.679 333.454 100.982 333.376 101.172 333.267C101.366 333.158 101.463 332.969 101.463 332.699V332.642C101.463 331.941 101.271 331.397 100.887 331.009C100.509 330.62 99.9334 330.426 99.1616 330.426C98.3614 330.426 97.734 330.601 97.2795 330.952C96.8249 331.302 96.5053 331.676 96.3207 332.074L94.7298 331.506C95.0138 330.843 95.3926 330.327 95.8661 329.957C96.3443 329.583 96.8652 329.323 97.4286 329.176C97.9968 329.025 98.5555 328.949 99.1048 328.949C99.4551 328.949 99.8576 328.991 100.312 329.077C100.771 329.157 101.214 329.325 101.64 329.581C102.071 329.837 102.429 330.223 102.713 330.739C102.997 331.255 103.139 331.946 103.139 332.812V340H101.463V338.523H101.377C101.264 338.759 101.074 339.013 100.809 339.283C100.544 339.553 100.191 339.782 99.7511 339.972C99.3107 340.161 98.7733 340.256 98.1388 340.256ZM98.3945 338.75C99.0574 338.75 99.6161 338.62 100.071 338.359C100.53 338.099 100.876 337.763 101.108 337.351C101.344 336.939 101.463 336.506 101.463 336.051V334.517C101.392 334.602 101.235 334.68 100.994 334.751C100.757 334.818 100.483 334.877 100.17 334.929C99.8623 334.976 99.5617 335.019 99.2681 335.057C98.9793 335.09 98.7449 335.118 98.565 335.142C98.1294 335.199 97.7222 335.291 97.3434 335.419C96.9693 335.542 96.6663 335.729 96.4343 335.98C96.207 336.226 96.0934 336.562 96.0934 336.989C96.0934 337.571 96.3088 338.011 96.7397 338.31C97.1753 338.603 97.7269 338.75 98.3945 338.75ZM106.198 340V329.091H107.817V330.739H107.931C108.13 330.199 108.49 329.761 109.011 329.425C109.531 329.089 110.119 328.92 110.772 328.92C110.895 328.92 111.049 328.923 111.234 328.928C111.418 328.932 111.558 328.939 111.653 328.949V330.653C111.596 330.639 111.466 330.618 111.262 330.589C111.063 330.556 110.853 330.54 110.63 330.54C110.1 330.54 109.626 330.651 109.21 330.874C108.798 331.091 108.471 331.394 108.229 331.783C107.993 332.166 107.874 332.604 107.874 333.097V340H106.198ZM117.739 340.227C116.717 340.227 115.836 339.986 115.097 339.503C114.359 339.02 113.79 338.355 113.393 337.507C112.995 336.66 112.796 335.691 112.796 334.602C112.796 333.494 113 332.517 113.407 331.669C113.819 330.817 114.392 330.152 115.126 329.673C115.864 329.19 116.726 328.949 117.711 328.949C118.478 328.949 119.169 329.091 119.785 329.375C120.4 329.659 120.905 330.057 121.298 330.568C121.691 331.08 121.934 331.676 122.029 332.358H120.353C120.225 331.861 119.941 331.42 119.501 331.037C119.065 330.649 118.478 330.455 117.739 330.455C117.086 330.455 116.513 330.625 116.021 330.966C115.533 331.302 115.152 331.778 114.877 332.393C114.607 333.004 114.472 333.722 114.472 334.545C114.472 335.388 114.605 336.122 114.87 336.747C115.14 337.372 115.519 337.857 116.006 338.203C116.499 338.549 117.076 338.722 117.739 338.722C118.175 338.722 118.57 338.646 118.925 338.494C119.281 338.343 119.581 338.125 119.827 337.841C120.074 337.557 120.249 337.216 120.353 336.818H122.029C121.934 337.462 121.7 338.042 121.326 338.558C120.957 339.07 120.467 339.477 119.856 339.78C119.25 340.078 118.544 340.227 117.739 340.227ZM126.156 333.438V340H124.479V325.455H126.156V330.795H126.298C126.553 330.232 126.937 329.785 127.448 329.453C127.964 329.117 128.651 328.949 129.508 328.949C130.251 328.949 130.902 329.098 131.461 329.396C132.02 329.69 132.453 330.142 132.761 330.753C133.073 331.359 133.229 332.131 133.229 333.068V340H131.553V333.182C131.553 332.315 131.328 331.645 130.879 331.172C130.433 330.694 129.816 330.455 129.025 330.455C128.476 330.455 127.983 330.571 127.548 330.803C127.117 331.035 126.776 331.373 126.525 331.818C126.279 332.263 126.156 332.803 126.156 333.438ZM141.921 329.091H143.597V340.795C143.597 341.468 143.481 342.05 143.249 342.543C143.022 343.035 142.676 343.416 142.212 343.686C141.753 343.956 141.173 344.091 140.472 344.091C140.415 344.091 140.358 344.091 140.301 344.091C140.245 344.091 140.188 344.091 140.131 344.091V342.528C140.188 342.528 140.24 342.528 140.287 342.528C140.335 342.528 140.387 342.528 140.444 342.528C140.955 342.528 141.329 342.377 141.566 342.074C141.802 341.776 141.921 341.349 141.921 340.795V329.091ZM142.745 327.273C142.418 327.273 142.136 327.161 141.9 326.939C141.667 326.716 141.551 326.449 141.551 326.136C141.551 325.824 141.667 325.556 141.9 325.334C142.136 325.111 142.418 325 142.745 325C143.071 325 143.351 325.111 143.583 325.334C143.819 325.556 143.938 325.824 143.938 326.136C143.938 326.449 143.819 326.716 143.583 326.939C143.351 327.161 143.071 327.273 142.745 327.273ZM151.099 340.227C150.114 340.227 149.25 339.993 148.506 339.524C147.768 339.055 147.19 338.4 146.773 337.557C146.362 336.714 146.156 335.729 146.156 334.602C146.156 333.466 146.362 332.474 146.773 331.626C147.19 330.779 147.768 330.121 148.506 329.652C149.25 329.183 150.114 328.949 151.099 328.949C152.084 328.949 152.945 329.183 153.684 329.652C154.427 330.121 155.005 330.779 155.417 331.626C155.834 332.474 156.042 333.466 156.042 334.602C156.042 335.729 155.834 336.714 155.417 337.557C155.005 338.4 154.427 339.055 153.684 339.524C152.945 339.993 152.084 340.227 151.099 340.227ZM151.099 338.722C151.847 338.722 152.462 338.53 152.945 338.146C153.428 337.763 153.786 337.259 154.018 336.634C154.25 336.009 154.366 335.331 154.366 334.602C154.366 333.873 154.25 333.194 154.018 332.564C153.786 331.934 153.428 331.425 152.945 331.037C152.462 330.649 151.847 330.455 151.099 330.455C150.351 330.455 149.735 330.649 149.252 331.037C148.769 331.425 148.412 331.934 148.18 332.564C147.948 333.194 147.832 333.873 147.832 334.602C147.832 335.331 147.948 336.009 148.18 336.634C148.412 337.259 148.769 337.763 149.252 338.146C149.735 338.53 150.351 338.722 151.099 338.722ZM158.828 340V325.455H160.504V330.824H160.646C160.769 330.634 160.94 330.393 161.157 330.099C161.38 329.801 161.697 329.536 162.109 329.304C162.526 329.067 163.089 328.949 163.799 328.949C164.718 328.949 165.528 329.179 166.228 329.638C166.929 330.097 167.476 330.748 167.869 331.591C168.262 332.434 168.458 333.428 168.458 334.574C168.458 335.729 168.262 336.731 167.869 337.578C167.476 338.421 166.931 339.074 166.235 339.538C165.539 339.998 164.737 340.227 163.828 340.227C163.127 340.227 162.566 340.111 162.145 339.879C161.723 339.643 161.399 339.375 161.172 339.077C160.944 338.774 160.769 338.523 160.646 338.324H160.447V340H158.828ZM160.475 334.545C160.475 335.369 160.596 336.096 160.838 336.726C161.079 337.351 161.432 337.841 161.896 338.196C162.36 338.546 162.928 338.722 163.6 338.722C164.301 338.722 164.886 338.537 165.355 338.168C165.828 337.794 166.183 337.292 166.42 336.662C166.662 336.027 166.782 335.322 166.782 334.545C166.782 333.778 166.664 333.087 166.427 332.472C166.195 331.851 165.842 331.361 165.369 331.001C164.9 330.637 164.311 330.455 163.6 330.455C162.919 330.455 162.346 330.627 161.882 330.973C161.418 331.314 161.067 331.792 160.831 332.408C160.594 333.018 160.475 333.731 160.475 334.545ZM178.75 331.534L177.244 331.96C177.149 331.709 177.01 331.465 176.825 331.229C176.645 330.987 176.399 330.788 176.086 330.632C175.774 330.476 175.374 330.398 174.886 330.398C174.218 330.398 173.662 330.552 173.217 330.859C172.777 331.162 172.556 331.548 172.556 332.017C172.556 332.434 172.708 332.763 173.011 333.004C173.314 333.246 173.788 333.447 174.431 333.608L176.051 334.006C177.026 334.242 177.753 334.605 178.231 335.092C178.709 335.575 178.949 336.198 178.949 336.96C178.949 337.585 178.769 338.144 178.409 338.636C178.054 339.129 177.556 339.517 176.917 339.801C176.278 340.085 175.535 340.227 174.687 340.227C173.574 340.227 172.654 339.986 171.924 339.503C171.195 339.02 170.734 338.314 170.539 337.386L172.13 336.989C172.282 337.576 172.568 338.016 172.99 338.31C173.416 338.603 173.972 338.75 174.659 338.75C175.44 338.75 176.06 338.584 176.52 338.253C176.984 337.917 177.216 337.514 177.216 337.045C177.216 336.667 177.083 336.349 176.818 336.094C176.553 335.833 176.145 335.639 175.596 335.511L173.778 335.085C172.779 334.848 172.045 334.482 171.576 333.984C171.112 333.482 170.88 332.855 170.88 332.102C170.88 331.487 171.053 330.942 171.399 330.469C171.749 329.995 172.225 329.624 172.826 329.354C173.432 329.084 174.119 328.949 174.886 328.949C175.966 328.949 176.813 329.186 177.429 329.659C178.049 330.133 178.489 330.758 178.75 331.534Z" fill="#F5F5F5"/>
<path d="M242.708 379.708L255.958 392.958M220.625 357.625L236.238 395.1L241.781 378.781L258.1 373.238L220.625 357.625Z" stroke="#1E1E1E" stroke-width="4" stroke-linecap="round" stroke-linejoin="round"/>
<g clip-path="url(#clip1_21_867)">
<path d="M213.5 336.75V342.25M213.5 358.75V364.25M203.779 340.779L207.67 344.67M219.33 356.33L223.221 360.221M199.75 350.5H205.25M221.75 350.5H227.25M203.779 360.221L207.67 356.33M219.33 344.67L223.221 340.779" stroke="#1E1E1E" stroke-width="4" stroke-linecap="round" stroke-linejoin="round"/>
</g>
</g>
<path d="M8 1H292V-1H8V1ZM299 8V395H301V8H299ZM292 402H7.99999V404H292V402ZM1 395V7.99999H-1V395H1ZM7.99999 402C4.134 402 1 398.866 1 395H-1C-1 399.971 3.02943 404 7.99999 404V402ZM299 395C299 398.866 295.866 402 292 402V404C296.971 404 301 399.971 301 395H299ZM292 1C295.866 1 299 4.13401 299 8H301C301 3.02944 296.971 -1 292 -1V1ZM8 -1C3.02944 -1 -1 3.02942 -1 7.99999H1C1 4.134 4.13401 1 8 1V-1Z" fill="#D9D9D9" mask="url(#path-1-inside-1_21_867)"/>
<defs>
<clipPath id="clip0_21_867">
<path d="M0 7.99999C0 3.58171 3.58172 0 8 0H292C296.418 0 300 3.58172 300 8V395C300 399.418 296.418 403 292 403H7.99999C3.58171 403 0 399.418 0 395V7.99999Z" fill="white"/>
</clipPath>
<clipPath id="clip1_21_867">
<rect width="33" height="33" fill="white" transform="translate(197 334)"/>
</clipPath>
</defs>
</svg>
