<svg width="498" height="473" viewBox="0 0 498 473" fill="none" xmlns="http://www.w3.org/2000/svg">
<g filter="url(#filter0_d_4_2255)">
<rect x="48" y="48" width="412" height="365" rx="14" fill="white"/>
</g>
<path d="M95 362C95 362 110.797 319.291 118.487 302.303C126.629 284.318 134.615 269.596 142.445 258.137C150.488 246.367 158.366 238.04 166.079 233.154C172.39 229.158 188.259 228.57 189.971 229.002C198.896 231.251 206.492 236.729 213.704 243.765C221.743 251.606 229.306 261.382 237.703 270.778C244.723 278.632 252.326 286.221 261.277 292.193C268.229 296.831 275.995 300.493 284.933 302.545C290.054 303.721 306.36 304.196 308.779 303.863C316.743 302.766 324.673 299.919 332.442 295.704C340.739 291.202 348.851 285.139 356.621 277.977C364.984 270.269 372.951 261.289 380.326 251.614C389.246 239.911 397.301 227.193 404.142 214.481C418.781 187.282 427.865 160.114 428 143" stroke="#00B69B" stroke-width="4" stroke-linecap="round"/>
<path fill-rule="evenodd" clip-rule="evenodd" d="M94.5 368C96.9853 368 99 366.209 99 364C99 361.791 96.9853 360 94.5 360C92.0147 360 90 361.791 90 364C90 366.209 92.0147 368 94.5 368Z" fill="#00B69B" stroke="white" stroke-width="1.4"/>
<path fill-rule="evenodd" clip-rule="evenodd" d="M117.5 309C119.985 309 122 307.209 122 305C122 302.791 119.985 301 117.5 301C115.015 301 113 302.791 113 305C113 307.209 115.015 309 117.5 309Z" fill="#00B69B" stroke="white" stroke-width="1.4"/>
<path fill-rule="evenodd" clip-rule="evenodd" d="M139.5 267C141.985 267 144 265.209 144 263C144 260.791 141.985 259 139.5 259C137.015 259 135 260.791 135 263C135 265.209 137.015 267 139.5 267Z" fill="#00B69B" stroke="white" stroke-width="1.4"/>
<path fill-rule="evenodd" clip-rule="evenodd" d="M189.5 233C191.985 233 194 231.209 194 229C194 226.791 191.985 225 189.5 225C187.015 225 185 226.791 185 229C185 231.209 187.015 233 189.5 233Z" fill="#00B69B" stroke="white" stroke-width="1.4"/>
<path fill-rule="evenodd" clip-rule="evenodd" d="M236.5 272C238.985 272 241 270.209 241 268C241 265.791 238.985 264 236.5 264C234.015 264 232 265.791 232 268C232 270.209 234.015 272 236.5 272Z" fill="#00B69B" stroke="white" stroke-width="1.4"/>
<path fill-rule="evenodd" clip-rule="evenodd" d="M308.5 308C310.985 308 313 306.209 313 304C313 301.791 310.985 300 308.5 300C306.015 300 304 301.791 304 304C304 306.209 306.015 308 308.5 308Z" fill="#00B69B" stroke="white" stroke-width="1.4"/>
<path fill-rule="evenodd" clip-rule="evenodd" d="M377.5 258C379.985 258 382 256.209 382 254C382 251.791 379.985 250 377.5 250C375.015 250 373 251.791 373 254C373 256.209 375.015 258 377.5 258Z" fill="#00B69B" stroke="white" stroke-width="1.4"/>
<path fill-rule="evenodd" clip-rule="evenodd" d="M350.5 287C352.985 287 355 285.209 355 283C355 280.791 352.985 279 350.5 279C348.015 279 346 280.791 346 283C346 285.209 348.015 287 350.5 287Z" fill="#00B69B" stroke="white" stroke-width="1.4"/>
<path fill-rule="evenodd" clip-rule="evenodd" d="M419.5 183C421.985 183 424 181.209 424 179C424 176.791 421.985 175 419.5 175C417.015 175 415 176.791 415 179C415 181.209 417.015 183 419.5 183Z" fill="#00B69B" stroke="white" stroke-width="1.4"/>
<path fill-rule="evenodd" clip-rule="evenodd" d="M427.5 148C429.985 148 432 146.209 432 144C432 141.791 429.985 140 427.5 140C425.015 140 423 141.791 423 144C423 146.209 425.015 148 427.5 148Z" fill="#00B69B" stroke="white" stroke-width="1.4"/>
<path fill-rule="evenodd" clip-rule="evenodd" d="M403.5 219C405.985 219 408 217.209 408 215C408 212.791 405.985 211 403.5 211C401.015 211 399 212.791 399 215C399 217.209 401.015 219 403.5 219Z" fill="#00B69B" stroke="white" stroke-width="1.4"/>
<path d="M95 303C95 303 109.516 270.042 116.583 256.933C124.065 243.054 131.403 231.693 138.598 222.85C145.989 213.767 153.228 207.341 160.316 203.571C166.115 200.487 180.697 200.034 182.271 200.367C190.472 202.103 197.452 206.33 204.08 211.759C211.467 217.81 218.417 225.354 226.133 232.605C232.583 238.666 239.57 244.522 247.795 249.13C254.184 252.71 261.32 255.536 269.533 257.119C274.239 258.027 289.223 258.394 291.445 258.136C298.764 257.29 306.051 255.093 313.19 251.84C320.814 248.366 328.268 243.687 335.408 238.161C343.093 232.212 350.414 225.282 357.191 217.816C365.389 208.785 372.79 198.971 379.076 189.161C392.528 168.172 400.876 147.207 401 134" stroke="#4880FF" stroke-width="4" stroke-linecap="round"/>
<path fill-rule="evenodd" clip-rule="evenodd" d="M94 309C96.2091 309 98 307.657 98 306C98 304.343 96.2091 303 94 303C91.7909 303 90 304.343 90 306C90 307.657 91.7909 309 94 309Z" fill="#4880FF" stroke="white" stroke-width="1.4"/>
<path fill-rule="evenodd" clip-rule="evenodd" d="M115 263C117.209 263 119 261.657 119 260C119 258.343 117.209 257 115 257C112.791 257 111 258.343 111 260C111 261.657 112.791 263 115 263Z" fill="#4880FF" stroke="white" stroke-width="1.4"/>
<path fill-rule="evenodd" clip-rule="evenodd" d="M136 230C138.209 230 140 228.657 140 227C140 225.343 138.209 224 136 224C133.791 224 132 225.343 132 227C132 228.657 133.791 230 136 230Z" fill="#4880FF" stroke="white" stroke-width="1.4"/>
<path fill-rule="evenodd" clip-rule="evenodd" d="M182 203C184.209 203 186 201.657 186 200C186 198.343 184.209 197 182 197C179.791 197 178 198.343 178 200C178 201.657 179.791 203 182 203Z" fill="#4880FF" stroke="white" stroke-width="1.4"/>
<path fill-rule="evenodd" clip-rule="evenodd" d="M225 234C227.209 234 229 232.657 229 231C229 229.343 227.209 228 225 228C222.791 228 221 229.343 221 231C221 232.657 222.791 234 225 234Z" fill="#4880FF" stroke="white" stroke-width="1.4"/>
<path fill-rule="evenodd" clip-rule="evenodd" d="M292 262C294.209 262 296 260.657 296 259C296 257.343 294.209 256 292 256C289.791 256 288 257.343 288 259C288 260.657 289.791 262 292 262Z" fill="#4880FF" stroke="white" stroke-width="1.4"/>
<path fill-rule="evenodd" clip-rule="evenodd" d="M355 223C357.209 223 359 221.657 359 220C359 218.343 357.209 217 355 217C352.791 217 351 218.343 351 220C351 221.657 352.791 223 355 223Z" fill="#4880FF" stroke="white" stroke-width="1.4"/>
<path fill-rule="evenodd" clip-rule="evenodd" d="M330 246C332.209 246 334 244.657 334 243C334 241.343 332.209 240 330 240C327.791 240 326 241.343 326 243C326 244.657 327.791 246 330 246Z" fill="#4880FF" stroke="white" stroke-width="1.4"/>
<path fill-rule="evenodd" clip-rule="evenodd" d="M393 164C395.209 164 397 162.657 397 161C397 159.343 395.209 158 393 158C390.791 158 389 159.343 389 161C389 162.657 390.791 164 393 164Z" fill="#4880FF" stroke="white" stroke-width="1.4"/>
<path fill-rule="evenodd" clip-rule="evenodd" d="M401 137C403.209 137 405 135.657 405 134C405 132.343 403.209 131 401 131C398.791 131 397 132.343 397 134C397 135.657 398.791 137 401 137Z" fill="#4880FF" stroke="white" stroke-width="1.4"/>
<path fill-rule="evenodd" clip-rule="evenodd" d="M378 193C380.209 193 382 191.657 382 190C382 188.343 380.209 187 378 187C375.791 187 374 188.343 374 190C374 191.657 375.791 193 378 193Z" fill="#4880FF" stroke="white" stroke-width="1.4"/>
<path opacity="0.2" d="M94 363.5H436" stroke="#979797" stroke-width="0.3" stroke-linecap="square"/>
<path opacity="0.2" d="M94 304.5H436" stroke="#979797" stroke-width="0.3" stroke-linecap="square"/>
<g opacity="0.2">
<path fill-rule="evenodd" clip-rule="evenodd" d="M94 245.5H436H94Z" fill="#4880FF"/>
<path d="M94 245.5H436" stroke="white" stroke-width="0.3" stroke-linecap="square"/>
</g>
<path opacity="0.2" d="M94 186.5H436" stroke="#979797" stroke-width="0.3" stroke-linecap="square"/>
<path opacity="0.2" d="M94 127.5H436" stroke="#979797" stroke-width="0.3" stroke-linecap="square"/>
<path d="M405.02 392V391.076L407.84 388.052C408.104 387.764 408.316 387.5 408.476 387.26C408.636 387.012 408.752 386.776 408.824 386.552C408.904 386.32 408.944 386.088 408.944 385.856C408.944 385.408 408.808 385.068 408.536 384.836C408.264 384.604 407.864 384.488 407.336 384.488C406.928 384.488 406.54 384.564 406.172 384.716C405.812 384.868 405.468 385.1 405.14 385.412L404.696 384.464C405.016 384.152 405.424 383.904 405.92 383.72C406.416 383.528 406.932 383.432 407.468 383.432C408.052 383.432 408.544 383.524 408.944 383.708C409.352 383.884 409.66 384.144 409.868 384.488C410.076 384.832 410.18 385.252 410.18 385.748C410.18 386.004 410.148 386.256 410.084 386.504C410.028 386.744 409.936 386.984 409.808 387.224C409.688 387.464 409.532 387.712 409.34 387.968C409.156 388.224 408.932 388.488 408.668 388.76L406.256 391.304V390.956H410.516V392H405.02ZM414.795 392.108C414.139 392.108 413.587 391.94 413.139 391.604C412.691 391.268 412.351 390.78 412.119 390.14C411.887 389.492 411.771 388.7 411.771 387.764C411.771 386.812 411.887 386.016 412.119 385.376C412.351 384.736 412.691 384.252 413.139 383.924C413.587 383.596 414.139 383.432 414.795 383.432C415.459 383.432 416.015 383.596 416.463 383.924C416.911 384.244 417.247 384.724 417.471 385.364C417.703 386.004 417.819 386.8 417.819 387.752C417.819 388.688 417.703 389.48 417.471 390.128C417.239 390.776 416.899 391.268 416.451 391.604C416.003 391.94 415.451 392.108 414.795 392.108ZM414.795 391.076C415.411 391.076 415.863 390.808 416.151 390.272C416.447 389.736 416.595 388.896 416.595 387.752C416.595 386.608 416.447 385.776 416.151 385.256C415.863 384.728 415.411 384.464 414.795 384.464C414.187 384.464 413.735 384.728 413.439 385.256C413.143 385.776 412.995 386.608 412.995 387.752C412.995 388.896 413.143 389.736 413.439 390.272C413.735 390.808 414.187 391.076 414.795 391.076ZM419.795 392V390.956H421.715V384.596H422.339L420.215 385.916L419.711 384.992L422.075 383.54H422.951V390.956H424.751V392H419.795ZM428.574 392.108C428.286 392.108 427.99 392.072 427.686 392C427.39 391.92 427.11 391.804 426.846 391.652C426.582 391.5 426.35 391.324 426.15 391.124L426.582 390.176C426.878 390.464 427.198 390.684 427.542 390.836C427.886 390.98 428.234 391.052 428.586 391.052C428.962 391.052 429.294 390.984 429.582 390.848C429.87 390.712 430.11 390.508 430.302 390.236C430.502 389.964 430.65 389.628 430.746 389.228C430.85 388.82 430.902 388.352 430.902 387.824V386.804H431.022C430.966 387.228 430.83 387.6 430.614 387.92C430.406 388.24 430.134 388.484 429.798 388.652C429.47 388.82 429.098 388.904 428.682 388.904C428.194 388.904 427.758 388.788 427.374 388.556C426.998 388.324 426.698 388.004 426.474 387.596C426.258 387.188 426.15 386.728 426.15 386.216C426.15 385.672 426.266 385.192 426.498 384.776C426.738 384.352 427.062 384.024 427.47 383.792C427.878 383.552 428.35 383.432 428.886 383.432C429.574 383.432 430.154 383.596 430.626 383.924C431.098 384.244 431.458 384.716 431.706 385.34C431.962 385.964 432.09 386.712 432.09 387.584C432.09 388.552 431.95 389.372 431.67 390.044C431.39 390.716 430.99 391.228 430.47 391.58C429.95 391.932 429.318 392.108 428.574 392.108ZM428.97 387.884C429.29 387.884 429.574 387.812 429.822 387.668C430.07 387.524 430.262 387.324 430.398 387.068C430.542 386.804 430.614 386.5 430.614 386.156C430.614 385.82 430.542 385.524 430.398 385.268C430.262 385.004 430.07 384.8 429.822 384.656C429.574 384.504 429.29 384.428 428.97 384.428C428.642 384.428 428.354 384.504 428.106 384.656C427.866 384.8 427.674 385.004 427.53 385.268C427.394 385.524 427.326 385.82 427.326 386.156C427.326 386.5 427.394 386.804 427.53 387.068C427.674 387.324 427.866 387.524 428.106 387.668C428.354 387.812 428.642 387.884 428.97 387.884Z" fill="#292C2F" fill-opacity="0.4"/>
<path d="M325.02 392V391.076L327.84 388.052C328.104 387.764 328.316 387.5 328.476 387.26C328.636 387.012 328.752 386.776 328.824 386.552C328.904 386.32 328.944 386.088 328.944 385.856C328.944 385.408 328.808 385.068 328.536 384.836C328.264 384.604 327.864 384.488 327.336 384.488C326.928 384.488 326.54 384.564 326.172 384.716C325.812 384.868 325.468 385.1 325.14 385.412L324.696 384.464C325.016 384.152 325.424 383.904 325.92 383.72C326.416 383.528 326.932 383.432 327.468 383.432C328.052 383.432 328.544 383.524 328.944 383.708C329.352 383.884 329.66 384.144 329.868 384.488C330.076 384.832 330.18 385.252 330.18 385.748C330.18 386.004 330.148 386.256 330.084 386.504C330.028 386.744 329.936 386.984 329.808 387.224C329.688 387.464 329.532 387.712 329.34 387.968C329.156 388.224 328.932 388.488 328.668 388.76L326.256 391.304V390.956H330.516V392H325.02ZM334.795 392.108C334.139 392.108 333.587 391.94 333.139 391.604C332.691 391.268 332.351 390.78 332.119 390.14C331.887 389.492 331.771 388.7 331.771 387.764C331.771 386.812 331.887 386.016 332.119 385.376C332.351 384.736 332.691 384.252 333.139 383.924C333.587 383.596 334.139 383.432 334.795 383.432C335.459 383.432 336.015 383.596 336.463 383.924C336.911 384.244 337.247 384.724 337.471 385.364C337.703 386.004 337.819 386.8 337.819 387.752C337.819 388.688 337.703 389.48 337.471 390.128C337.239 390.776 336.899 391.268 336.451 391.604C336.003 391.94 335.451 392.108 334.795 392.108ZM334.795 391.076C335.411 391.076 335.863 390.808 336.151 390.272C336.447 389.736 336.595 388.896 336.595 387.752C336.595 386.608 336.447 385.776 336.151 385.256C335.863 384.728 335.411 384.464 334.795 384.464C334.187 384.464 333.735 384.728 333.439 385.256C333.143 385.776 332.995 386.608 332.995 387.752C332.995 388.896 333.143 389.736 333.439 390.272C333.735 390.808 334.187 391.076 334.795 391.076ZM339.795 392V390.956H341.715V384.596H342.339L340.215 385.916L339.711 384.992L342.075 383.54H342.951V390.956H344.751V392H339.795ZM349.186 392.108C348.218 392.108 347.462 391.9 346.918 391.484C346.382 391.068 346.114 390.488 346.114 389.744C346.114 389.344 346.194 388.992 346.354 388.688C346.514 388.376 346.738 388.124 347.026 387.932C347.314 387.74 347.646 387.62 348.022 387.572V387.788C347.678 387.716 347.378 387.584 347.122 387.392C346.866 387.192 346.666 386.948 346.522 386.66C346.386 386.364 346.318 386.04 346.318 385.688C346.318 384.984 346.578 384.432 347.098 384.032C347.618 383.632 348.314 383.432 349.186 383.432C350.066 383.432 350.766 383.632 351.286 384.032C351.806 384.432 352.066 384.984 352.066 385.688C352.066 386.04 351.994 386.364 351.85 386.66C351.714 386.948 351.518 387.192 351.262 387.392C351.006 387.584 350.706 387.712 350.362 387.776V387.572C350.746 387.62 351.078 387.744 351.358 387.944C351.638 388.136 351.858 388.384 352.018 388.688C352.178 388.992 352.258 389.344 352.258 389.744C352.258 390.488 351.986 391.068 351.442 391.484C350.906 391.9 350.154 392.108 349.186 392.108ZM349.186 391.124C349.818 391.124 350.294 391.004 350.614 390.764C350.934 390.516 351.094 390.148 351.094 389.66C351.094 389.172 350.934 388.808 350.614 388.568C350.294 388.328 349.818 388.208 349.186 388.208C348.562 388.208 348.086 388.328 347.758 388.568C347.438 388.808 347.278 389.172 347.278 389.66C347.278 390.148 347.438 390.516 347.758 390.764C348.086 391.004 348.562 391.124 349.186 391.124ZM349.186 387.224C349.722 387.224 350.138 387.1 350.434 386.852C350.738 386.596 350.89 386.248 350.89 385.808C350.89 385.376 350.738 385.036 350.434 384.788C350.138 384.54 349.722 384.416 349.186 384.416C348.65 384.416 348.234 384.54 347.938 384.788C347.642 385.036 347.494 385.376 347.494 385.808C347.494 386.248 347.642 386.596 347.938 386.852C348.234 387.1 348.65 387.224 349.186 387.224Z" fill="#292C2F" fill-opacity="0.4"/>
<path d="M246.02 392V391.076L248.84 388.052C249.104 387.764 249.316 387.5 249.476 387.26C249.636 387.012 249.752 386.776 249.824 386.552C249.904 386.32 249.944 386.088 249.944 385.856C249.944 385.408 249.808 385.068 249.536 384.836C249.264 384.604 248.864 384.488 248.336 384.488C247.928 384.488 247.54 384.564 247.172 384.716C246.812 384.868 246.468 385.1 246.14 385.412L245.696 384.464C246.016 384.152 246.424 383.904 246.92 383.72C247.416 383.528 247.932 383.432 248.468 383.432C249.052 383.432 249.544 383.524 249.944 383.708C250.352 383.884 250.66 384.144 250.868 384.488C251.076 384.832 251.18 385.252 251.18 385.748C251.18 386.004 251.148 386.256 251.084 386.504C251.028 386.744 250.936 386.984 250.808 387.224C250.688 387.464 250.532 387.712 250.34 387.968C250.156 388.224 249.932 388.488 249.668 388.76L247.256 391.304V390.956H251.516V392H246.02ZM255.795 392.108C255.139 392.108 254.587 391.94 254.139 391.604C253.691 391.268 253.351 390.78 253.119 390.14C252.887 389.492 252.771 388.7 252.771 387.764C252.771 386.812 252.887 386.016 253.119 385.376C253.351 384.736 253.691 384.252 254.139 383.924C254.587 383.596 255.139 383.432 255.795 383.432C256.459 383.432 257.015 383.596 257.463 383.924C257.911 384.244 258.247 384.724 258.471 385.364C258.703 386.004 258.819 386.8 258.819 387.752C258.819 388.688 258.703 389.48 258.471 390.128C258.239 390.776 257.899 391.268 257.451 391.604C257.003 391.94 256.451 392.108 255.795 392.108ZM255.795 391.076C256.411 391.076 256.863 390.808 257.151 390.272C257.447 389.736 257.595 388.896 257.595 387.752C257.595 386.608 257.447 385.776 257.151 385.256C256.863 384.728 256.411 384.464 255.795 384.464C255.187 384.464 254.735 384.728 254.439 385.256C254.143 385.776 253.995 386.608 253.995 387.752C253.995 388.896 254.143 389.736 254.439 390.272C254.735 390.808 255.187 391.076 255.795 391.076ZM260.795 392V390.956H262.715V384.596H263.339L261.215 385.916L260.711 384.992L263.075 383.54H263.951V390.956H265.751V392H260.795ZM267.786 392L271.914 384.116V384.584H267.33V383.54H273.054V384.464L269.154 392H267.786Z" fill="#292C2F" fill-opacity="0.4"/>
<path d="M167.02 392V391.076L169.84 388.052C170.104 387.764 170.316 387.5 170.476 387.26C170.636 387.012 170.752 386.776 170.824 386.552C170.904 386.32 170.944 386.088 170.944 385.856C170.944 385.408 170.808 385.068 170.536 384.836C170.264 384.604 169.864 384.488 169.336 384.488C168.928 384.488 168.54 384.564 168.172 384.716C167.812 384.868 167.468 385.1 167.14 385.412L166.696 384.464C167.016 384.152 167.424 383.904 167.92 383.72C168.416 383.528 168.932 383.432 169.468 383.432C170.052 383.432 170.544 383.524 170.944 383.708C171.352 383.884 171.66 384.144 171.868 384.488C172.076 384.832 172.18 385.252 172.18 385.748C172.18 386.004 172.148 386.256 172.084 386.504C172.028 386.744 171.936 386.984 171.808 387.224C171.688 387.464 171.532 387.712 171.34 387.968C171.156 388.224 170.932 388.488 170.668 388.76L168.256 391.304V390.956H172.516V392H167.02ZM176.795 392.108C176.139 392.108 175.587 391.94 175.139 391.604C174.691 391.268 174.351 390.78 174.119 390.14C173.887 389.492 173.771 388.7 173.771 387.764C173.771 386.812 173.887 386.016 174.119 385.376C174.351 384.736 174.691 384.252 175.139 383.924C175.587 383.596 176.139 383.432 176.795 383.432C177.459 383.432 178.015 383.596 178.463 383.924C178.911 384.244 179.247 384.724 179.471 385.364C179.703 386.004 179.819 386.8 179.819 387.752C179.819 388.688 179.703 389.48 179.471 390.128C179.239 390.776 178.899 391.268 178.451 391.604C178.003 391.94 177.451 392.108 176.795 392.108ZM176.795 391.076C177.411 391.076 177.863 390.808 178.151 390.272C178.447 389.736 178.595 388.896 178.595 387.752C178.595 386.608 178.447 385.776 178.151 385.256C177.863 384.728 177.411 384.464 176.795 384.464C176.187 384.464 175.735 384.728 175.439 385.256C175.143 385.776 174.995 386.608 174.995 387.752C174.995 388.896 175.143 389.736 175.439 390.272C175.735 390.808 176.187 391.076 176.795 391.076ZM181.795 392V390.956H183.715V384.596H184.339L182.215 385.916L181.711 384.992L184.075 383.54H184.951V390.956H186.751V392H181.795ZM191.486 392.108C190.806 392.108 190.226 391.944 189.746 391.616C189.274 391.288 188.91 390.816 188.654 390.2C188.406 389.576 188.282 388.828 188.282 387.956C188.282 386.98 188.422 386.16 188.702 385.496C188.982 384.824 189.386 384.312 189.914 383.96C190.442 383.608 191.074 383.432 191.81 383.432C192.098 383.432 192.39 383.472 192.686 383.552C192.982 383.632 193.262 383.744 193.526 383.888C193.798 384.032 194.03 384.208 194.222 384.416L193.79 385.352C193.494 385.064 193.174 384.848 192.83 384.704C192.494 384.56 192.146 384.488 191.786 384.488C191.41 384.488 191.078 384.556 190.79 384.692C190.51 384.828 190.27 385.032 190.07 385.304C189.878 385.576 189.73 385.912 189.626 386.312C189.53 386.712 189.482 387.18 189.482 387.716V388.736H189.35C189.406 388.304 189.538 387.932 189.746 387.62C189.962 387.3 190.238 387.056 190.574 386.888C190.91 386.72 191.282 386.636 191.69 386.636C192.186 386.636 192.622 386.752 192.998 386.984C193.382 387.208 193.682 387.524 193.898 387.932C194.114 388.34 194.222 388.804 194.222 389.324C194.222 389.86 194.106 390.34 193.874 390.764C193.642 391.188 193.318 391.52 192.902 391.76C192.494 391.992 192.022 392.108 191.486 392.108ZM191.414 391.1C191.742 391.1 192.03 391.028 192.278 390.884C192.526 390.74 192.718 390.54 192.854 390.284C192.99 390.02 193.058 389.716 193.058 389.372C193.058 389.028 192.99 388.728 192.854 388.472C192.718 388.216 192.526 388.016 192.278 387.872C192.03 387.72 191.742 387.644 191.414 387.644C191.086 387.644 190.798 387.72 190.55 387.872C190.31 388.016 190.118 388.216 189.974 388.472C189.838 388.728 189.77 389.028 189.77 389.372C189.77 389.716 189.838 390.02 189.974 390.284C190.118 390.54 190.314 390.74 190.562 390.884C190.81 391.028 191.094 391.1 191.414 391.1Z" fill="#292C2F" fill-opacity="0.4"/>
<path d="M88.02 392V391.076L90.84 388.052C91.104 387.764 91.316 387.5 91.476 387.26C91.636 387.012 91.752 386.776 91.824 386.552C91.904 386.32 91.944 386.088 91.944 385.856C91.944 385.408 91.808 385.068 91.536 384.836C91.264 384.604 90.864 384.488 90.336 384.488C89.928 384.488 89.54 384.564 89.172 384.716C88.812 384.868 88.468 385.1 88.14 385.412L87.696 384.464C88.016 384.152 88.424 383.904 88.92 383.72C89.416 383.528 89.932 383.432 90.468 383.432C91.052 383.432 91.544 383.524 91.944 383.708C92.352 383.884 92.66 384.144 92.868 384.488C93.076 384.832 93.18 385.252 93.18 385.748C93.18 386.004 93.148 386.256 93.084 386.504C93.028 386.744 92.936 386.984 92.808 387.224C92.688 387.464 92.532 387.712 92.34 387.968C92.156 388.224 91.932 388.488 91.668 388.76L89.256 391.304V390.956H93.516V392H88.02ZM97.7953 392.108C97.1393 392.108 96.5873 391.94 96.1393 391.604C95.6913 391.268 95.3513 390.78 95.1193 390.14C94.8873 389.492 94.7713 388.7 94.7713 387.764C94.7713 386.812 94.8873 386.016 95.1193 385.376C95.3513 384.736 95.6913 384.252 96.1393 383.924C96.5873 383.596 97.1393 383.432 97.7953 383.432C98.4593 383.432 99.0153 383.596 99.4633 383.924C99.9113 384.244 100.247 384.724 100.471 385.364C100.703 386.004 100.819 386.8 100.819 387.752C100.819 388.688 100.703 389.48 100.471 390.128C100.239 390.776 99.8993 391.268 99.4513 391.604C99.0033 391.94 98.4513 392.108 97.7953 392.108ZM97.7953 391.076C98.4113 391.076 98.8633 390.808 99.1513 390.272C99.4473 389.736 99.5953 388.896 99.5953 387.752C99.5953 386.608 99.4473 385.776 99.1513 385.256C98.8633 384.728 98.4113 384.464 97.7953 384.464C97.1873 384.464 96.7353 384.728 96.4393 385.256C96.1433 385.776 95.9953 386.608 95.9953 387.752C95.9953 388.896 96.1433 389.736 96.4393 390.272C96.7353 390.808 97.1873 391.076 97.7953 391.076ZM102.795 392V390.956H104.715V384.596H105.339L103.215 385.916L102.711 384.992L105.075 383.54H105.951V390.956H107.751V392H102.795ZM112.318 392.108C111.95 392.108 111.59 392.068 111.238 391.988C110.894 391.908 110.57 391.796 110.266 391.652C109.962 391.508 109.698 391.332 109.474 391.124L109.894 390.164C110.278 390.468 110.666 390.692 111.058 390.836C111.45 390.98 111.862 391.052 112.294 391.052C112.846 391.052 113.278 390.904 113.59 390.608C113.902 390.312 114.058 389.916 114.058 389.42C114.058 388.916 113.91 388.504 113.614 388.184C113.318 387.864 112.906 387.704 112.378 387.704C112.002 387.704 111.666 387.78 111.37 387.932C111.082 388.084 110.822 388.316 110.59 388.628H109.726V383.54H114.766V384.584H110.938V387.632H110.602C110.818 387.328 111.102 387.092 111.454 386.924C111.814 386.756 112.21 386.672 112.642 386.672C113.178 386.672 113.642 386.784 114.034 387.008C114.426 387.232 114.73 387.548 114.946 387.956C115.162 388.356 115.27 388.824 115.27 389.36C115.27 389.904 115.15 390.384 114.91 390.8C114.67 391.208 114.33 391.528 113.89 391.76C113.45 391.992 112.926 392.108 112.318 392.108Z" fill="#292C2F" fill-opacity="0.4"/>
<path d="M82.4047 367.108C81.7487 367.108 81.1967 366.94 80.7487 366.604C80.3007 366.268 79.9607 365.78 79.7287 365.14C79.4967 364.492 79.3807 363.7 79.3807 362.764C79.3807 361.812 79.4967 361.016 79.7287 360.376C79.9607 359.736 80.3007 359.252 80.7487 358.924C81.1967 358.596 81.7487 358.432 82.4047 358.432C83.0687 358.432 83.6247 358.596 84.0727 358.924C84.5207 359.244 84.8567 359.724 85.0807 360.364C85.3127 361.004 85.4287 361.8 85.4287 362.752C85.4287 363.688 85.3127 364.48 85.0807 365.128C84.8487 365.776 84.5087 366.268 84.0607 366.604C83.6127 366.94 83.0607 367.108 82.4047 367.108ZM82.4047 366.076C83.0207 366.076 83.4727 365.808 83.7607 365.272C84.0567 364.736 84.2047 363.896 84.2047 362.752C84.2047 361.608 84.0567 360.776 83.7607 360.256C83.4727 359.728 83.0207 359.464 82.4047 359.464C81.7967 359.464 81.3447 359.728 81.0487 360.256C80.7527 360.776 80.6047 361.608 80.6047 362.752C80.6047 363.896 80.7527 364.736 81.0487 365.272C81.3447 365.808 81.7967 366.076 82.4047 366.076Z" fill="#292C2F" fill-opacity="0.4"/>
<path d="M72.6294 308V307.076L75.4494 304.052C75.7134 303.764 75.9254 303.5 76.0854 303.26C76.2454 303.012 76.3614 302.776 76.4334 302.552C76.5134 302.32 76.5534 302.088 76.5534 301.856C76.5534 301.408 76.4174 301.068 76.1454 300.836C75.8734 300.604 75.4734 300.488 74.9454 300.488C74.5374 300.488 74.1494 300.564 73.7814 300.716C73.4214 300.868 73.0774 301.1 72.7494 301.412L72.3054 300.464C72.6254 300.152 73.0334 299.904 73.5294 299.72C74.0254 299.528 74.5414 299.432 75.0774 299.432C75.6614 299.432 76.1534 299.524 76.5534 299.708C76.9614 299.884 77.2694 300.144 77.4774 300.488C77.6854 300.832 77.7894 301.252 77.7894 301.748C77.7894 302.004 77.7574 302.256 77.6934 302.504C77.6374 302.744 77.5454 302.984 77.4174 303.224C77.2974 303.464 77.1414 303.712 76.9494 303.968C76.7654 304.224 76.5414 304.488 76.2774 304.76L73.8654 307.304V306.956H78.1254V308H72.6294ZM82.5367 308.108C82.1687 308.108 81.8087 308.068 81.4567 307.988C81.1127 307.908 80.7887 307.796 80.4847 307.652C80.1807 307.508 79.9167 307.332 79.6927 307.124L80.1127 306.164C80.4967 306.468 80.8847 306.692 81.2767 306.836C81.6687 306.98 82.0807 307.052 82.5127 307.052C83.0647 307.052 83.4967 306.904 83.8087 306.608C84.1207 306.312 84.2767 305.916 84.2767 305.42C84.2767 304.916 84.1287 304.504 83.8327 304.184C83.5367 303.864 83.1247 303.704 82.5967 303.704C82.2207 303.704 81.8847 303.78 81.5887 303.932C81.3007 304.084 81.0407 304.316 80.8087 304.628H79.9447V299.54H84.9847V300.584H81.1567V303.632H80.8207C81.0367 303.328 81.3207 303.092 81.6727 302.924C82.0327 302.756 82.4287 302.672 82.8607 302.672C83.3967 302.672 83.8607 302.784 84.2527 303.008C84.6447 303.232 84.9487 303.548 85.1647 303.956C85.3807 304.356 85.4887 304.824 85.4887 305.36C85.4887 305.904 85.3687 306.384 85.1287 306.8C84.8887 307.208 84.5487 307.528 84.1087 307.76C83.6687 307.992 83.1447 308.108 82.5367 308.108Z" fill="#292C2F" fill-opacity="0.4"/>
<path d="M75.3414 249.108C74.9734 249.108 74.6134 249.068 74.2614 248.988C73.9174 248.908 73.5934 248.796 73.2894 248.652C72.9854 248.508 72.7214 248.332 72.4974 248.124L72.9174 247.164C73.3014 247.468 73.6894 247.692 74.0814 247.836C74.4734 247.98 74.8854 248.052 75.3174 248.052C75.8694 248.052 76.3014 247.904 76.6134 247.608C76.9254 247.312 77.0814 246.916 77.0814 246.42C77.0814 245.916 76.9334 245.504 76.6374 245.184C76.3414 244.864 75.9294 244.704 75.4014 244.704C75.0254 244.704 74.6894 244.78 74.3934 244.932C74.1054 245.084 73.8454 245.316 73.6134 245.628H72.7494V240.54H77.7894V241.584H73.9614V244.632H73.6254C73.8414 244.328 74.1254 244.092 74.4774 243.924C74.8374 243.756 75.2334 243.672 75.6654 243.672C76.2014 243.672 76.6654 243.784 77.0574 244.008C77.4494 244.232 77.7534 244.548 77.9694 244.956C78.1854 245.356 78.2934 245.824 78.2934 246.36C78.2934 246.904 78.1734 247.384 77.9334 247.8C77.6934 248.208 77.3534 248.528 76.9134 248.76C76.4734 248.992 75.9494 249.108 75.3414 249.108ZM82.4047 249.108C81.7487 249.108 81.1967 248.94 80.7487 248.604C80.3007 248.268 79.9607 247.78 79.7287 247.14C79.4967 246.492 79.3807 245.7 79.3807 244.764C79.3807 243.812 79.4967 243.016 79.7287 242.376C79.9607 241.736 80.3007 241.252 80.7487 240.924C81.1967 240.596 81.7487 240.432 82.4047 240.432C83.0687 240.432 83.6247 240.596 84.0727 240.924C84.5207 241.244 84.8567 241.724 85.0807 242.364C85.3127 243.004 85.4287 243.8 85.4287 244.752C85.4287 245.688 85.3127 246.48 85.0807 247.128C84.8487 247.776 84.5087 248.268 84.0607 248.604C83.6127 248.94 83.0607 249.108 82.4047 249.108ZM82.4047 248.076C83.0207 248.076 83.4727 247.808 83.7607 247.272C84.0567 246.736 84.2047 245.896 84.2047 244.752C84.2047 243.608 84.0567 242.776 83.7607 242.256C83.4727 241.728 83.0207 241.464 82.4047 241.464C81.7967 241.464 81.3447 241.728 81.0487 242.256C80.7527 242.776 80.6047 243.608 80.6047 244.752C80.6047 245.896 80.7527 246.736 81.0487 247.272C81.3447 247.808 81.7967 248.076 82.4047 248.076Z" fill="#292C2F" fill-opacity="0.4"/>
<path d="M72.8094 190L76.9374 182.116V182.584H72.3534V181.54H78.0774V182.464L74.1774 190H72.8094ZM82.5367 190.108C82.1687 190.108 81.8087 190.068 81.4567 189.988C81.1127 189.908 80.7887 189.796 80.4847 189.652C80.1807 189.508 79.9167 189.332 79.6927 189.124L80.1127 188.164C80.4967 188.468 80.8847 188.692 81.2767 188.836C81.6687 188.98 82.0807 189.052 82.5127 189.052C83.0647 189.052 83.4967 188.904 83.8087 188.608C84.1207 188.312 84.2767 187.916 84.2767 187.42C84.2767 186.916 84.1287 186.504 83.8327 186.184C83.5367 185.864 83.1247 185.704 82.5967 185.704C82.2207 185.704 81.8847 185.78 81.5887 185.932C81.3007 186.084 81.0407 186.316 80.8087 186.628H79.9447V181.54H84.9847V182.584H81.1567V185.632H80.8207C81.0367 185.328 81.3207 185.092 81.6727 184.924C82.0327 184.756 82.4287 184.672 82.8607 184.672C83.3967 184.672 83.8607 184.784 84.2527 185.008C84.6447 185.232 84.9487 185.548 85.1647 185.956C85.3807 186.356 85.4887 186.824 85.4887 187.36C85.4887 187.904 85.3687 188.384 85.1287 188.8C84.8887 189.208 84.5487 189.528 84.1087 189.76C83.6687 189.992 83.1447 190.108 82.5367 190.108Z" fill="#292C2F" fill-opacity="0.4"/>
<path d="M65.8181 131V129.956H67.7381V123.596H68.3621L66.2381 124.916L65.7341 123.992L68.0981 122.54H68.9741V129.956H70.7741V131H65.8181ZM75.2094 131.108C74.5534 131.108 74.0014 130.94 73.5534 130.604C73.1054 130.268 72.7654 129.78 72.5334 129.14C72.3014 128.492 72.1854 127.7 72.1854 126.764C72.1854 125.812 72.3014 125.016 72.5334 124.376C72.7654 123.736 73.1054 123.252 73.5534 122.924C74.0014 122.596 74.5534 122.432 75.2094 122.432C75.8734 122.432 76.4294 122.596 76.8774 122.924C77.3254 123.244 77.6614 123.724 77.8854 124.364C78.1174 125.004 78.2334 125.8 78.2334 126.752C78.2334 127.688 78.1174 128.48 77.8854 129.128C77.6534 129.776 77.3134 130.268 76.8654 130.604C76.4174 130.94 75.8654 131.108 75.2094 131.108ZM75.2094 130.076C75.8254 130.076 76.2774 129.808 76.5654 129.272C76.8614 128.736 77.0094 127.896 77.0094 126.752C77.0094 125.608 76.8614 124.776 76.5654 124.256C76.2774 123.728 75.8254 123.464 75.2094 123.464C74.6014 123.464 74.1494 123.728 73.8534 124.256C73.5574 124.776 73.4094 125.608 73.4094 126.752C73.4094 127.896 73.5574 128.736 73.8534 129.272C74.1494 129.808 74.6014 130.076 75.2094 130.076ZM82.4047 131.108C81.7487 131.108 81.1967 130.94 80.7487 130.604C80.3007 130.268 79.9607 129.78 79.7287 129.14C79.4967 128.492 79.3807 127.7 79.3807 126.764C79.3807 125.812 79.4967 125.016 79.7287 124.376C79.9607 123.736 80.3007 123.252 80.7487 122.924C81.1967 122.596 81.7487 122.432 82.4047 122.432C83.0687 122.432 83.6247 122.596 84.0727 122.924C84.5207 123.244 84.8567 123.724 85.0807 124.364C85.3127 125.004 85.4287 125.8 85.4287 126.752C85.4287 127.688 85.3127 128.48 85.0807 129.128C84.8487 129.776 84.5087 130.268 84.0607 130.604C83.6127 130.94 83.0607 131.108 82.4047 131.108ZM82.4047 130.076C83.0207 130.076 83.4727 129.808 83.7607 129.272C84.0567 128.736 84.2047 127.896 84.2047 126.752C84.2047 125.608 84.0567 124.776 83.7607 124.256C83.4727 123.728 83.0207 123.464 82.4047 123.464C81.7967 123.464 81.3447 123.728 81.0487 124.256C80.7527 124.776 80.6047 125.608 80.6047 126.752C80.6047 127.896 80.7527 128.736 81.0487 129.272C81.3447 129.808 81.7967 130.076 82.4047 130.076Z" fill="#292C2F" fill-opacity="0.4"/>
<defs>
<filter id="filter0_d_4_2255" x="0" y="0" width="520" height="473" filterUnits="userSpaceOnUse" color-interpolation-filters="sRGB">
<feFlood flood-opacity="0" result="BackgroundImageFix"/>
<feColorMatrix in="SourceAlpha" type="matrix" values="0 0 0 0 0 0 0 0 0 0 0 0 0 0 0 0 0 0 127 0" result="hardAlpha"/>
<feOffset dx="6" dy="6"/>
<feGaussianBlur stdDeviation="27"/>
<feColorMatrix type="matrix" values="0 0 0 0 0 0 0 0 0 0 0 0 0 0 0 0 0 0 0.05 0"/>
<feBlend mode="normal" in2="BackgroundImageFix" result="effect1_dropShadow_4_2255"/>
<feBlend mode="normal" in="SourceGraphic" in2="effect1_dropShadow_4_2255" result="shape"/>
</filter>
</defs>
</svg>
