<svg width="160" height="80" viewBox="0 0 160 80" fill="none" xmlns="http://www.w3.org/2000/svg">
<rect width="160" height="80" fill="white"/>
<path d="M22.8125 22.125H35.1875C35.5656 22.125 35.875 22.4344 35.875 22.8125V26.25H22.125V22.8125C22.125 22.4344 22.4344 22.125 22.8125 22.125ZM18 22.8125V26.25H12.5C9.46641 26.25 7 28.7164 7 31.75V40H23.5H34.5H51V31.75C51 28.7164 48.5336 26.25 45.5 26.25H40V22.8125C40 20.157 37.843 18 35.1875 18H22.8125C20.157 18 18 20.157 18 22.8125ZM51 42.75H34.5V45.5C34.5 47.0211 33.2711 48.25 31.75 48.25H26.25C24.7289 48.25 23.5 47.0211 23.5 45.5V42.75H7V53.75C7 56.7836 9.46641 59.25 12.5 59.25H45.5C48.5336 59.25 51 56.7836 51 53.75V42.75Z" fill="#3D8BFD"/>
<path d="M72.334 19.49L66.878 30.072V35H62.544V30.072L57.088 19.49H62.016L64.744 25.474L67.472 19.49H72.334ZM79.3998 35.154C78.1678 35.154 77.0604 34.8973 76.0778 34.384C75.1098 33.8707 74.3471 33.1373 73.7898 32.184C73.2324 31.2307 72.9538 30.1087 72.9538 28.818C72.9538 27.542 73.2324 26.4273 73.7898 25.474C74.3618 24.5207 75.1318 23.7873 76.0998 23.274C77.0824 22.7607 78.1898 22.504 79.4218 22.504C80.6538 22.504 81.7538 22.7607 82.7218 23.274C83.7044 23.7873 84.4744 24.5207 85.0318 25.474C85.6038 26.4273 85.8898 27.542 85.8898 28.818C85.8898 30.094 85.6038 31.216 85.0318 32.184C84.4744 33.1373 83.7044 33.8707 82.7218 34.384C81.7391 34.8973 80.6318 35.154 79.3998 35.154ZM79.3998 31.414C80.0011 31.414 80.4998 31.194 80.8958 30.754C81.3064 30.2993 81.5118 29.654 81.5118 28.818C81.5118 27.982 81.3064 27.344 80.8958 26.904C80.4998 26.464 80.0084 26.244 79.4218 26.244C78.8351 26.244 78.3438 26.464 77.9478 26.904C77.5518 27.344 77.3538 27.982 77.3538 28.818C77.3538 29.6687 77.5444 30.314 77.9258 30.754C78.3071 31.194 78.7984 31.414 79.3998 31.414ZM100.272 22.658V35H95.9381V33.24C95.5714 33.7973 95.0654 34.252 94.4201 34.604C93.7748 34.9413 93.0341 35.11 92.1981 35.11C90.7608 35.11 89.6241 34.6407 88.7881 33.702C87.9668 32.7487 87.5561 31.458 87.5561 29.83V22.658H91.8461V29.28C91.8461 29.984 92.0294 30.5413 92.3961 30.952C92.7774 31.348 93.2761 31.546 93.8921 31.546C94.5228 31.546 95.0214 31.348 95.3881 30.952C95.7548 30.5413 95.9381 29.984 95.9381 29.28V22.658H100.272ZM107.038 24.836C107.522 24.132 108.109 23.5747 108.798 23.164C109.487 22.7533 110.228 22.548 111.02 22.548V27.146H109.81C108.871 27.146 108.175 27.3293 107.72 27.696C107.265 28.0627 107.038 28.7007 107.038 29.61V35H102.726V22.658H107.038V24.836ZM118.933 21.514C118.17 21.514 117.554 21.3087 117.085 20.898C116.63 20.4727 116.403 19.9447 116.403 19.314C116.403 18.6687 116.63 18.1333 117.085 17.708C117.554 17.2827 118.17 17.07 118.933 17.07C119.681 17.07 120.282 17.2827 120.737 17.708C121.206 18.1333 121.441 18.6687 121.441 19.314C121.441 19.9447 121.206 20.4727 120.737 20.898C120.282 21.3087 119.681 21.514 118.933 21.514ZM121.089 36.21C121.089 39.334 119.52 40.896 116.381 40.896H114.819V37.222H115.743C116.11 37.222 116.374 37.1487 116.535 37.002C116.696 36.8553 116.777 36.6133 116.777 36.276V22.658H121.089V36.21ZM129.265 35.154C128.033 35.154 126.926 34.8973 125.943 34.384C124.975 33.8707 124.212 33.1373 123.655 32.184C123.098 31.2307 122.819 30.1087 122.819 28.818C122.819 27.542 123.098 26.4273 123.655 25.474C124.227 24.5207 124.997 23.7873 125.965 23.274C126.948 22.7607 128.055 22.504 129.287 22.504C130.519 22.504 131.619 22.7607 132.587 23.274C133.57 23.7873 134.34 24.5207 134.897 25.474C135.469 26.4273 135.755 27.542 135.755 28.818C135.755 30.094 135.469 31.216 134.897 32.184C134.34 33.1373 133.57 33.8707 132.587 34.384C131.604 34.8973 130.497 35.154 129.265 35.154ZM129.265 31.414C129.866 31.414 130.365 31.194 130.761 30.754C131.172 30.2993 131.377 29.654 131.377 28.818C131.377 27.982 131.172 27.344 130.761 26.904C130.365 26.464 129.874 26.244 129.287 26.244C128.7 26.244 128.209 26.464 127.813 26.904C127.417 27.344 127.219 27.982 127.219 28.818C127.219 29.6687 127.41 30.314 127.791 30.754C128.172 31.194 128.664 31.414 129.265 31.414ZM141.821 24.374C142.159 23.7873 142.635 23.3327 143.251 23.01C143.867 22.6727 144.593 22.504 145.429 22.504C146.412 22.504 147.299 22.7607 148.091 23.274C148.898 23.7873 149.529 24.5207 149.983 25.474C150.453 26.4273 150.687 27.542 150.687 28.818C150.687 30.094 150.453 31.216 149.983 32.184C149.529 33.1373 148.898 33.8707 148.091 34.384C147.299 34.8973 146.412 35.154 145.429 35.154C144.593 35.154 143.867 34.9927 143.251 34.67C142.635 34.3327 142.159 33.8707 141.821 33.284V35H137.509V18.72H141.821V24.374ZM146.309 28.818C146.309 28.0113 146.089 27.388 145.649 26.948C145.224 26.4933 144.696 26.266 144.065 26.266C143.435 26.266 142.899 26.4933 142.459 26.948C142.034 27.4027 141.821 28.026 141.821 28.818C141.821 29.6247 142.034 30.2553 142.459 30.71C142.899 31.1647 143.435 31.392 144.065 31.392C144.696 31.392 145.224 31.1647 145.649 30.71C146.089 30.2407 146.309 29.61 146.309 28.818ZM63.974 60.154C62.742 60.154 61.6347 59.8973 60.652 59.384C59.684 58.8707 58.9213 58.1373 58.364 57.184C57.8067 56.2307 57.528 55.1087 57.528 53.818C57.528 52.542 57.8067 51.4273 58.364 50.474C58.936 49.5207 59.706 48.7873 60.674 48.274C61.6567 47.7607 62.764 47.504 63.996 47.504C65.228 47.504 66.328 47.7607 67.296 48.274C68.2787 48.7873 69.0487 49.5207 69.606 50.474C70.178 51.4273 70.464 52.542 70.464 53.818C70.464 55.094 70.178 56.216 69.606 57.184C69.0487 58.1373 68.2787 58.8707 67.296 59.384C66.3133 59.8973 65.206 60.154 63.974 60.154ZM63.974 56.414C64.5753 56.414 65.074 56.194 65.47 55.754C65.8807 55.2993 66.086 54.654 66.086 53.818C66.086 52.982 65.8807 52.344 65.47 51.904C65.074 51.464 64.5827 51.244 63.996 51.244C63.4093 51.244 62.918 51.464 62.522 51.904C62.126 52.344 61.928 52.982 61.928 53.818C61.928 54.6687 62.1187 55.314 62.5 55.754C62.8813 56.194 63.3727 56.414 63.974 56.414ZM78.8843 51.244H76.9483V60H72.6143V51.244H71.2723V47.658H72.6143V47.548C72.6143 45.964 73.0763 44.754 74.0003 43.918C74.939 43.0673 76.281 42.642 78.0263 42.642C78.3783 42.642 78.6497 42.6493 78.8403 42.664V46.338C78.723 46.3233 78.5617 46.316 78.3563 46.316C77.887 46.316 77.5423 46.426 77.3223 46.646C77.1023 46.8513 76.9777 47.1887 76.9483 47.658H78.8843V51.244ZM87.0914 51.244H85.1554V60H80.8214V51.244H79.4794V47.658H80.8214V47.548C80.8214 45.964 81.2834 44.754 82.2074 43.918C83.146 43.0673 84.488 42.642 86.2334 42.642C86.5854 42.642 86.8567 42.6493 87.0474 42.664V46.338C86.93 46.3233 86.7687 46.316 86.5634 46.316C86.094 46.316 85.7494 46.426 85.5294 46.646C85.3094 46.8513 85.1847 47.1887 85.1554 47.658H87.0914V51.244ZM100.424 53.686C100.424 54.0233 100.402 54.3607 100.358 54.698H92.1964C92.2404 55.3727 92.4237 55.8787 92.7464 56.216C93.0837 56.5387 93.5091 56.7 94.0224 56.7C94.7411 56.7 95.2544 56.3773 95.5624 55.732H100.16C99.9697 56.5827 99.5957 57.3453 99.0384 58.02C98.4957 58.68 97.8064 59.2007 96.9704 59.582C96.1344 59.9633 95.2104 60.154 94.1984 60.154C92.9811 60.154 91.8957 59.8973 90.9424 59.384C90.0037 58.8707 89.2631 58.1373 88.7204 57.184C88.1924 56.2307 87.9284 55.1087 87.9284 53.818C87.9284 52.5273 88.1924 51.4127 88.7204 50.474C89.2484 49.5207 89.9817 48.7873 90.9204 48.274C91.8737 47.7607 92.9664 47.504 94.1984 47.504C95.4157 47.504 96.4937 47.7533 97.4324 48.252C98.3711 48.7507 99.1044 49.4693 99.6324 50.408C100.16 51.332 100.424 52.4247 100.424 53.686ZM96.0244 52.608C96.0244 52.08 95.8484 51.6693 95.4964 51.376C95.1444 51.068 94.7044 50.914 94.1764 50.914C93.6484 50.914 93.2157 51.0607 92.8784 51.354C92.5411 51.6327 92.3211 52.0507 92.2184 52.608H96.0244ZM106.501 49.836C106.985 49.132 107.572 48.5747 108.261 48.164C108.95 47.7533 109.691 47.548 110.483 47.548V52.146H109.273C108.334 52.146 107.638 52.3293 107.183 52.696C106.728 53.0627 106.501 53.7007 106.501 54.61V60H102.189V47.658H106.501V49.836Z" fill="black"/>
</svg>
