<svg width="320" height="504" viewBox="0 0 320 504" fill="none" xmlns="http://www.w3.org/2000/svg">
<g clip-path="url(#clip0_3_5)">
<rect width="320" height="504" fill="white"/>
<mask id="path-1-inside-1_3_5" fill="white">
<path d="M0 8C0 3.58172 3.58172 0 8 0H312C316.418 0 320 3.58172 320 8V496C320 500.418 316.418 504 312 504H7.99999C3.58171 504 0 500.418 0 496V8Z"/>
</mask>
<path d="M0 8C0 3.58172 3.58172 0 8 0H312C316.418 0 320 3.58172 320 8V496C320 500.418 316.418 504 312 504H7.99999C3.58171 504 0 500.418 0 496V8Z" fill="white"/>
<path d="M8 1H312V-1H8V1ZM319 8V496H321V8H319ZM312 503H7.99999V505H312V503ZM1 496V8H-1V496H1ZM7.99999 503C4.134 503 1 499.866 1 496H-1C-1 500.971 3.02943 505 7.99999 505V503ZM319 496C319 499.866 315.866 503 312 503V505C316.971 505 321 500.971 321 496H319ZM312 1C315.866 1 319 4.13401 319 8H321C321 3.02944 316.971 -1 312 -1V1ZM8 -1C3.02944 -1 -1 3.02944 -1 8H1C1 4.13401 4.13401 1 8 1V-1Z" fill="#D9D9D9" mask="url(#path-1-inside-1_3_5)"/>
<path d="M34.6364 29.3636V41H33.2727L26.9318 31.8636H26.8182V41H25.4091V29.3636H26.7727L33.1364 38.5227H33.25V29.3636H34.6364ZM39.8423 41.2045C39.2893 41.2045 38.7874 41.1004 38.3366 40.892C37.8859 40.6799 37.5279 40.375 37.2628 39.9773C36.9976 39.5758 36.8651 39.0909 36.8651 38.5227C36.8651 38.0227 36.9635 37.6174 37.1605 37.3068C37.3575 36.9924 37.6207 36.7462 37.9503 36.5682C38.2798 36.3902 38.6435 36.2576 39.0412 36.1705C39.4427 36.0795 39.8461 36.0076 40.2514 35.9545C40.7817 35.8864 41.2116 35.8352 41.5412 35.8011C41.8745 35.7633 42.117 35.7008 42.2685 35.6136C42.4238 35.5265 42.5014 35.375 42.5014 35.1591V35.1136C42.5014 34.553 42.348 34.1174 42.0412 33.8068C41.7382 33.4962 41.2779 33.3409 40.6605 33.3409C40.0204 33.3409 39.5185 33.4811 39.1548 33.7614C38.7912 34.0417 38.5355 34.3409 38.3878 34.6591L37.1151 34.2045C37.3423 33.6742 37.6454 33.2614 38.0241 32.9659C38.4067 32.6667 38.8234 32.4583 39.2741 32.3409C39.7287 32.2197 40.1757 32.1591 40.6151 32.1591C40.8954 32.1591 41.2173 32.1932 41.581 32.2614C41.9484 32.3258 42.3026 32.4602 42.6435 32.6648C42.9882 32.8693 43.2741 33.178 43.5014 33.5909C43.7287 34.0038 43.8423 34.5568 43.8423 35.25V41H42.5014V39.8182H42.4332C42.3423 40.0076 42.1908 40.2102 41.9787 40.4261C41.7666 40.642 41.4844 40.8258 41.1321 40.9773C40.7798 41.1288 40.3499 41.2045 39.8423 41.2045ZM40.0469 40C40.5772 40 41.0241 39.8958 41.3878 39.6875C41.7552 39.4792 42.0317 39.2102 42.2173 38.8807C42.4067 38.5511 42.5014 38.2045 42.5014 37.8409V36.6136C42.4446 36.6818 42.3196 36.7443 42.1264 36.8011C41.937 36.8542 41.7173 36.9015 41.4673 36.9432C41.2211 36.9811 40.9806 37.0152 40.7457 37.0455C40.5147 37.072 40.3272 37.0947 40.1832 37.1136C39.8348 37.1591 39.509 37.233 39.206 37.3352C38.9067 37.4337 38.6643 37.5833 38.4787 37.7841C38.2969 37.9811 38.206 38.25 38.206 38.5909C38.206 39.0568 38.3783 39.4091 38.723 39.6477C39.0715 39.8826 39.5128 40 40.0469 40ZM46.2898 41V32.2727H47.5852V33.6364H47.6989C47.8807 33.1705 48.1742 32.8087 48.5795 32.5511C48.9848 32.2898 49.4716 32.1591 50.0398 32.1591C50.6155 32.1591 51.0947 32.2898 51.4773 32.5511C51.8636 32.8087 52.1648 33.1705 52.3807 33.6364H52.4716C52.6951 33.1856 53.0303 32.8277 53.4773 32.5625C53.9242 32.2936 54.4602 32.1591 55.0852 32.1591C55.8655 32.1591 56.5038 32.4034 57 32.892C57.4962 33.3769 57.7443 34.1326 57.7443 35.1591V41H56.4034V35.1591C56.4034 34.5152 56.2273 34.0549 55.875 33.7784C55.5227 33.5019 55.108 33.3636 54.6307 33.3636C54.017 33.3636 53.5417 33.5492 53.2045 33.9205C52.8674 34.2879 52.6989 34.7538 52.6989 35.3182V41H51.3352V35.0227C51.3352 34.5265 51.1742 34.1269 50.8523 33.8239C50.5303 33.517 50.1155 33.3636 49.608 33.3636C49.2595 33.3636 48.9337 33.4564 48.6307 33.642C48.3314 33.8277 48.089 34.0852 47.9034 34.4148C47.7216 34.7405 47.6307 35.1174 47.6307 35.5455V41H46.2898ZM63.8551 41.1818C63.0142 41.1818 62.2888 40.9962 61.679 40.625C61.0729 40.25 60.6051 39.7273 60.2756 39.0568C59.9498 38.3826 59.7869 37.5985 59.7869 36.7045C59.7869 35.8106 59.9498 35.0227 60.2756 34.3409C60.6051 33.6553 61.0634 33.1212 61.6506 32.7386C62.2415 32.3523 62.9309 32.1591 63.7188 32.1591C64.1733 32.1591 64.6222 32.2348 65.0653 32.3864C65.5085 32.5379 65.9119 32.7841 66.2756 33.125C66.6392 33.4621 66.929 33.9091 67.1449 34.4659C67.3608 35.0227 67.4688 35.7083 67.4688 36.5227V37.0909H60.7415V35.9318H66.1051C66.1051 35.4394 66.0066 35 65.8097 34.6136C65.6165 34.2273 65.34 33.9223 64.9801 33.6989C64.6241 33.4754 64.2036 33.3636 63.7188 33.3636C63.1847 33.3636 62.7225 33.4962 62.3324 33.7614C61.946 34.0227 61.6487 34.3636 61.4403 34.7841C61.232 35.2045 61.1278 35.6553 61.1278 36.1364V36.9091C61.1278 37.5682 61.2415 38.1269 61.4688 38.5852C61.6998 39.0398 62.0199 39.3864 62.429 39.625C62.8381 39.8598 63.3134 39.9773 63.8551 39.9773C64.2074 39.9773 64.5256 39.928 64.8097 39.8295C65.0975 39.7273 65.3456 39.5758 65.554 39.375C65.7623 39.1705 65.9233 38.9167 66.0369 38.6136L67.3324 38.9773C67.196 39.4167 66.9669 39.803 66.6449 40.1364C66.3229 40.4659 65.9252 40.7235 65.4517 40.9091C64.9782 41.0909 64.446 41.1818 63.8551 41.1818Z" fill="#1E1E1E"/>
<path d="M24 62C24 57.5817 27.5817 54 32 54H288C292.418 54 296 57.5817 296 62V86C296 90.4183 292.418 94 288 94H32C27.5817 94 24 90.4183 24 86V62Z" fill="white"/>
<path d="M24 62C24 57.5817 27.5817 54 32 54H288C292.418 54 296 57.5817 296 62V86C296 90.4183 292.418 94 288 94H32C27.5817 94 24 90.4183 24 86V62Z" stroke="#9AC2F5" stroke-opacity="0.95" stroke-width="4" stroke-linecap="round"/>
<path d="M41.8864 68.3636L45.3409 78.1591H45.4773L48.9318 68.3636H50.4091L46.1364 80H44.6818L40.4091 68.3636H41.8864ZM53.7955 80.2045C53.2424 80.2045 52.7405 80.1004 52.2898 79.892C51.839 79.6799 51.4811 79.375 51.2159 78.9773C50.9508 78.5758 50.8182 78.0909 50.8182 77.5227C50.8182 77.0227 50.9167 76.6174 51.1136 76.3068C51.3106 75.9924 51.5739 75.7462 51.9034 75.5682C52.233 75.3902 52.5966 75.2576 52.9943 75.1705C53.3958 75.0795 53.7992 75.0076 54.2045 74.9545C54.7348 74.8864 55.1648 74.8352 55.4943 74.8011C55.8277 74.7633 56.0701 74.7008 56.2216 74.6136C56.3769 74.5265 56.4545 74.375 56.4545 74.1591V74.1136C56.4545 73.553 56.3011 73.1174 55.9943 72.8068C55.6913 72.4962 55.2311 72.3409 54.6136 72.3409C53.9735 72.3409 53.4716 72.4811 53.108 72.7614C52.7443 73.0417 52.4886 73.3409 52.3409 73.6591L51.0682 73.2045C51.2955 72.6742 51.5985 72.2614 51.9773 71.9659C52.3598 71.6667 52.7765 71.4583 53.2273 71.3409C53.6818 71.2197 54.1288 71.1591 54.5682 71.1591C54.8485 71.1591 55.1705 71.1932 55.5341 71.2614C55.9015 71.3258 56.2557 71.4602 56.5966 71.6648C56.9413 71.8693 57.2273 72.178 57.4545 72.5909C57.6818 73.0038 57.7955 73.5568 57.7955 74.25V80H56.4545V78.8182H56.3864C56.2955 79.0076 56.1439 79.2102 55.9318 79.4261C55.7197 79.642 55.4375 79.8258 55.0852 79.9773C54.733 80.1288 54.303 80.2045 53.7955 80.2045ZM54 79C54.5303 79 54.9773 78.8958 55.3409 78.6875C55.7083 78.4792 55.9848 78.2102 56.1705 77.8807C56.3598 77.5511 56.4545 77.2045 56.4545 76.8409V75.6136C56.3977 75.6818 56.2727 75.7443 56.0795 75.8011C55.8902 75.8542 55.6705 75.9015 55.4205 75.9432C55.1742 75.9811 54.9337 76.0152 54.6989 76.0455C54.4678 76.072 54.2803 76.0947 54.1364 76.1136C53.7879 76.1591 53.4621 76.233 53.1591 76.3352C52.8598 76.4337 52.6174 76.5833 52.4318 76.7841C52.25 76.9811 52.1591 77.25 52.1591 77.5909C52.1591 78.0568 52.3314 78.4091 52.6761 78.6477C53.0246 78.8826 53.4659 79 54 79ZM61.5838 68.3636V80H60.2429V68.3636H61.5838ZM69.5398 76.4318V71.2727H70.8807V80H69.5398V78.5227H69.4489C69.2443 78.9659 68.9261 79.3428 68.4943 79.6534C68.0625 79.9602 67.517 80.1136 66.858 80.1136C66.3125 80.1136 65.8277 79.9943 65.4034 79.7557C64.9792 79.5133 64.6458 79.1496 64.4034 78.6648C64.161 78.1761 64.0398 77.5606 64.0398 76.8182V71.2727H65.3807V76.7273C65.3807 77.3636 65.5587 77.8712 65.9148 78.25C66.2746 78.6288 66.733 78.8182 67.2898 78.8182C67.6231 78.8182 67.9621 78.733 68.3068 78.5625C68.6553 78.392 68.947 78.1307 69.1818 77.7784C69.4205 77.4261 69.5398 76.9773 69.5398 76.4318ZM76.9957 80.1818C76.1548 80.1818 75.4295 79.9962 74.8196 79.625C74.2135 79.25 73.7457 78.7273 73.4162 78.0568C73.0904 77.3826 72.9276 76.5985 72.9276 75.7045C72.9276 74.8106 73.0904 74.0227 73.4162 73.3409C73.7457 72.6553 74.2041 72.1212 74.7912 71.7386C75.3821 71.3523 76.0715 71.1591 76.8594 71.1591C77.3139 71.1591 77.7628 71.2348 78.206 71.3864C78.6491 71.5379 79.0526 71.7841 79.4162 72.125C79.7798 72.4621 80.0696 72.9091 80.2855 73.4659C80.5014 74.0227 80.6094 74.7083 80.6094 75.5227V76.0909H73.8821V74.9318H79.2457C79.2457 74.4394 79.1473 74 78.9503 73.6136C78.7571 73.2273 78.4806 72.9223 78.1207 72.6989C77.7647 72.4754 77.3442 72.3636 76.8594 72.3636C76.3253 72.3636 75.8632 72.4962 75.473 72.7614C75.0866 73.0227 74.7893 73.3636 74.581 73.7841C74.3726 74.2045 74.2685 74.6553 74.2685 75.1364V75.9091C74.2685 76.5682 74.3821 77.1269 74.6094 77.5852C74.8404 78.0398 75.1605 78.3864 75.5696 78.625C75.9787 78.8598 76.4541 78.9773 76.9957 78.9773C77.348 78.9773 77.6662 78.928 77.9503 78.8295C78.2382 78.7273 78.4863 78.5758 78.6946 78.375C78.9029 78.1705 79.0639 77.9167 79.1776 77.6136L80.473 77.9773C80.3366 78.4167 80.1075 78.803 79.7855 79.1364C79.4635 79.4659 79.0658 79.7235 78.5923 79.9091C78.1188 80.0909 77.5866 80.1818 76.9957 80.1818Z" fill="#B3B3B3"/>
<path d="M31.7727 126.273C31.7045 125.697 31.428 125.25 30.9432 124.932C30.4583 124.614 29.8636 124.455 29.1591 124.455C28.6439 124.455 28.1932 124.538 27.8068 124.705C27.4242 124.871 27.125 125.1 26.9091 125.392C26.697 125.684 26.5909 126.015 26.5909 126.386C26.5909 126.697 26.6648 126.964 26.8125 127.188C26.964 127.407 27.1572 127.591 27.392 127.739C27.6269 127.883 27.8731 128.002 28.1307 128.097C28.3883 128.187 28.625 128.261 28.8409 128.318L30.0227 128.636C30.3258 128.716 30.6629 128.826 31.0341 128.966C31.4091 129.106 31.767 129.297 32.108 129.54C32.4527 129.778 32.7367 130.085 32.9602 130.46C33.1837 130.835 33.2955 131.295 33.2955 131.841C33.2955 132.47 33.1307 133.038 32.8011 133.545C32.4754 134.053 31.9981 134.456 31.3693 134.756C30.7443 135.055 29.9848 135.205 29.0909 135.205C28.2576 135.205 27.536 135.07 26.9261 134.801C26.3201 134.532 25.8428 134.157 25.4943 133.676C25.1496 133.195 24.9545 132.636 24.9091 132H26.3636C26.4015 132.439 26.5492 132.803 26.8068 133.091C27.0682 133.375 27.3977 133.587 27.7955 133.727C28.197 133.864 28.6288 133.932 29.0909 133.932C29.6288 133.932 30.1117 133.845 30.5398 133.67C30.9678 133.492 31.3068 133.246 31.5568 132.932C31.8068 132.614 31.9318 132.242 31.9318 131.818C31.9318 131.432 31.8239 131.117 31.608 130.875C31.392 130.633 31.108 130.436 30.7557 130.284C30.4034 130.133 30.0227 130 29.6136 129.886L28.1818 129.477C27.2727 129.216 26.553 128.843 26.0227 128.358C25.4924 127.873 25.2273 127.239 25.2273 126.455C25.2273 125.803 25.4034 125.235 25.7557 124.75C26.1117 124.261 26.589 123.883 27.1875 123.614C27.7898 123.341 28.4621 123.205 29.2045 123.205C29.9545 123.205 30.6212 123.339 31.2045 123.608C31.7879 123.873 32.25 124.237 32.5909 124.699C32.9356 125.161 33.1174 125.686 33.1364 126.273H31.7727ZM40.9304 131.432V126.273H42.2713V135H40.9304V133.523H40.8395C40.6349 133.966 40.3168 134.343 39.8849 134.653C39.4531 134.96 38.9077 135.114 38.2486 135.114C37.7031 135.114 37.2183 134.994 36.794 134.756C36.3698 134.513 36.0365 134.15 35.794 133.665C35.5516 133.176 35.4304 132.561 35.4304 131.818V126.273H36.7713V131.727C36.7713 132.364 36.9493 132.871 37.3054 133.25C37.6652 133.629 38.1236 133.818 38.6804 133.818C39.0137 133.818 39.3527 133.733 39.6974 133.562C40.0459 133.392 40.3376 133.131 40.5724 132.778C40.8111 132.426 40.9304 131.977 40.9304 131.432ZM44.7273 135V126.273H46.0227V127.591H46.1136C46.2727 127.159 46.5606 126.809 46.9773 126.54C47.3939 126.271 47.8636 126.136 48.3864 126.136C48.4848 126.136 48.608 126.138 48.7557 126.142C48.9034 126.146 49.0152 126.152 49.0909 126.159V127.523C49.0455 127.511 48.9413 127.494 48.7784 127.472C48.6193 127.445 48.4508 127.432 48.2727 127.432C47.8485 127.432 47.4697 127.521 47.1364 127.699C46.8068 127.873 46.5455 128.116 46.3523 128.426C46.1629 128.733 46.0682 129.083 46.0682 129.477V135H44.7273ZM52.0213 129.75V135H50.6804V126.273H51.9759V127.636H52.0895C52.294 127.193 52.6046 126.837 53.0213 126.568C53.438 126.295 53.9759 126.159 54.6349 126.159C55.2259 126.159 55.7429 126.28 56.1861 126.523C56.6293 126.761 56.974 127.125 57.2202 127.614C57.4664 128.098 57.5895 128.712 57.5895 129.455V135H56.2486V129.545C56.2486 128.86 56.0705 128.326 55.7145 127.943C55.3584 127.557 54.8698 127.364 54.2486 127.364C53.8205 127.364 53.438 127.456 53.1009 127.642C52.7675 127.828 52.5043 128.098 52.3111 128.455C52.1179 128.811 52.0213 129.242 52.0213 129.75ZM62.608 135.205C62.0549 135.205 61.553 135.1 61.1023 134.892C60.6515 134.68 60.2936 134.375 60.0284 133.977C59.7633 133.576 59.6307 133.091 59.6307 132.523C59.6307 132.023 59.7292 131.617 59.9261 131.307C60.1231 130.992 60.3864 130.746 60.7159 130.568C61.0455 130.39 61.4091 130.258 61.8068 130.17C62.2083 130.08 62.6117 130.008 63.017 129.955C63.5473 129.886 63.9773 129.835 64.3068 129.801C64.6402 129.763 64.8826 129.701 65.0341 129.614C65.1894 129.527 65.267 129.375 65.267 129.159V129.114C65.267 128.553 65.1136 128.117 64.8068 127.807C64.5038 127.496 64.0436 127.341 63.4261 127.341C62.786 127.341 62.2841 127.481 61.9205 127.761C61.5568 128.042 61.3011 128.341 61.1534 128.659L59.8807 128.205C60.108 127.674 60.411 127.261 60.7898 126.966C61.1723 126.667 61.589 126.458 62.0398 126.341C62.4943 126.22 62.9413 126.159 63.3807 126.159C63.661 126.159 63.983 126.193 64.3466 126.261C64.714 126.326 65.0682 126.46 65.4091 126.665C65.7538 126.869 66.0398 127.178 66.267 127.591C66.4943 128.004 66.608 128.557 66.608 129.25V135H65.267V133.818H65.1989C65.108 134.008 64.9564 134.21 64.7443 134.426C64.5322 134.642 64.25 134.826 63.8977 134.977C63.5455 135.129 63.1155 135.205 62.608 135.205ZM62.8125 134C63.3428 134 63.7898 133.896 64.1534 133.688C64.5208 133.479 64.7973 133.21 64.983 132.881C65.1723 132.551 65.267 132.205 65.267 131.841V130.614C65.2102 130.682 65.0852 130.744 64.892 130.801C64.7027 130.854 64.483 130.902 64.233 130.943C63.9867 130.981 63.7462 131.015 63.5114 131.045C63.2803 131.072 63.0928 131.095 62.9489 131.114C62.6004 131.159 62.2746 131.233 61.9716 131.335C61.6723 131.434 61.4299 131.583 61.2443 131.784C61.0625 131.981 60.9716 132.25 60.9716 132.591C60.9716 133.057 61.1439 133.409 61.4886 133.648C61.8371 133.883 62.2784 134 62.8125 134ZM69.0554 135V126.273H70.3509V127.636H70.4645C70.6463 127.17 70.9399 126.809 71.3452 126.551C71.7505 126.29 72.2372 126.159 72.8054 126.159C73.3812 126.159 73.8603 126.29 74.2429 126.551C74.6293 126.809 74.9304 127.17 75.1463 127.636H75.2372C75.4607 127.186 75.7959 126.828 76.2429 126.562C76.6899 126.294 77.2259 126.159 77.8509 126.159C78.6312 126.159 79.2694 126.403 79.7656 126.892C80.2618 127.377 80.5099 128.133 80.5099 129.159V135H79.169V129.159C79.169 128.515 78.9929 128.055 78.6406 127.778C78.2884 127.502 77.8736 127.364 77.3963 127.364C76.7827 127.364 76.3073 127.549 75.9702 127.92C75.633 128.288 75.4645 128.754 75.4645 129.318V135H74.1009V129.023C74.1009 128.527 73.9399 128.127 73.6179 127.824C73.2959 127.517 72.8812 127.364 72.3736 127.364C72.0251 127.364 71.6993 127.456 71.3963 127.642C71.0971 127.828 70.8546 128.085 70.669 128.415C70.4872 128.741 70.3963 129.117 70.3963 129.545V135H69.0554ZM86.6207 135.182C85.7798 135.182 85.0545 134.996 84.4446 134.625C83.8385 134.25 83.3707 133.727 83.0412 133.057C82.7154 132.383 82.5526 131.598 82.5526 130.705C82.5526 129.811 82.7154 129.023 83.0412 128.341C83.3707 127.655 83.8291 127.121 84.4162 126.739C85.0071 126.352 85.6965 126.159 86.4844 126.159C86.9389 126.159 87.3878 126.235 87.831 126.386C88.2741 126.538 88.6776 126.784 89.0412 127.125C89.4048 127.462 89.6946 127.909 89.9105 128.466C90.1264 129.023 90.2344 129.708 90.2344 130.523V131.091H83.5071V129.932H88.8707C88.8707 129.439 88.7723 129 88.5753 128.614C88.3821 128.227 88.1056 127.922 87.7457 127.699C87.3897 127.475 86.9692 127.364 86.4844 127.364C85.9503 127.364 85.4882 127.496 85.098 127.761C84.7116 128.023 84.4143 128.364 84.206 128.784C83.9976 129.205 83.8935 129.655 83.8935 130.136V130.909C83.8935 131.568 84.0071 132.127 84.2344 132.585C84.4654 133.04 84.7855 133.386 85.1946 133.625C85.6037 133.86 86.0791 133.977 86.6207 133.977C86.973 133.977 87.2912 133.928 87.5753 133.83C87.8632 133.727 88.1113 133.576 88.3196 133.375C88.5279 133.17 88.6889 132.917 88.8026 132.614L90.098 132.977C89.9616 133.417 89.7325 133.803 89.4105 134.136C89.0885 134.466 88.6908 134.723 88.2173 134.909C87.7438 135.091 87.2116 135.182 86.6207 135.182Z" fill="#1E1E1E"/>
<path d="M24 156C24 151.582 27.5817 148 32 148H288C292.418 148 296 151.582 296 156V180C296 184.418 292.418 188 288 188H32C27.5817 188 24 184.418 24 180V156Z" fill="white"/>
<path d="M32 148.5H288V147.5H32V148.5ZM295.5 156V180H296.5V156H295.5ZM288 187.5H32V188.5H288V187.5ZM24.5 180V156H23.5V180H24.5ZM32 187.5C27.8579 187.5 24.5 184.142 24.5 180H23.5C23.5 184.694 27.3056 188.5 32 188.5V187.5ZM295.5 180C295.5 184.142 292.142 187.5 288 187.5V188.5C292.694 188.5 296.5 184.694 296.5 180H295.5ZM288 148.5C292.142 148.5 295.5 151.858 295.5 156H296.5C296.5 151.306 292.694 147.5 288 147.5V148.5ZM32 147.5C27.3056 147.5 23.5 151.306 23.5 156H24.5C24.5 151.858 27.8579 148.5 32 148.5V147.5Z" fill="#D9D9D9"/>
<path d="M41.8864 162.364L45.3409 172.159H45.4773L48.9318 162.364H50.4091L46.1364 174H44.6818L40.4091 162.364H41.8864ZM53.7955 174.205C53.2424 174.205 52.7405 174.1 52.2898 173.892C51.839 173.68 51.4811 173.375 51.2159 172.977C50.9508 172.576 50.8182 172.091 50.8182 171.523C50.8182 171.023 50.9167 170.617 51.1136 170.307C51.3106 169.992 51.5739 169.746 51.9034 169.568C52.233 169.39 52.5966 169.258 52.9943 169.17C53.3958 169.08 53.7992 169.008 54.2045 168.955C54.7348 168.886 55.1648 168.835 55.4943 168.801C55.8277 168.763 56.0701 168.701 56.2216 168.614C56.3769 168.527 56.4545 168.375 56.4545 168.159V168.114C56.4545 167.553 56.3011 167.117 55.9943 166.807C55.6913 166.496 55.2311 166.341 54.6136 166.341C53.9735 166.341 53.4716 166.481 53.108 166.761C52.7443 167.042 52.4886 167.341 52.3409 167.659L51.0682 167.205C51.2955 166.674 51.5985 166.261 51.9773 165.966C52.3598 165.667 52.7765 165.458 53.2273 165.341C53.6818 165.22 54.1288 165.159 54.5682 165.159C54.8485 165.159 55.1705 165.193 55.5341 165.261C55.9015 165.326 56.2557 165.46 56.5966 165.665C56.9413 165.869 57.2273 166.178 57.4545 166.591C57.6818 167.004 57.7955 167.557 57.7955 168.25V174H56.4545V172.818H56.3864C56.2955 173.008 56.1439 173.21 55.9318 173.426C55.7197 173.642 55.4375 173.826 55.0852 173.977C54.733 174.129 54.303 174.205 53.7955 174.205ZM54 173C54.5303 173 54.9773 172.896 55.3409 172.688C55.7083 172.479 55.9848 172.21 56.1705 171.881C56.3598 171.551 56.4545 171.205 56.4545 170.841V169.614C56.3977 169.682 56.2727 169.744 56.0795 169.801C55.8902 169.854 55.6705 169.902 55.4205 169.943C55.1742 169.981 54.9337 170.015 54.6989 170.045C54.4678 170.072 54.2803 170.095 54.1364 170.114C53.7879 170.159 53.4621 170.233 53.1591 170.335C52.8598 170.434 52.6174 170.583 52.4318 170.784C52.25 170.981 52.1591 171.25 52.1591 171.591C52.1591 172.057 52.3314 172.409 52.6761 172.648C53.0246 172.883 53.4659 173 54 173ZM61.5838 162.364V174H60.2429V162.364H61.5838ZM69.5398 170.432V165.273H70.8807V174H69.5398V172.523H69.4489C69.2443 172.966 68.9261 173.343 68.4943 173.653C68.0625 173.96 67.517 174.114 66.858 174.114C66.3125 174.114 65.8277 173.994 65.4034 173.756C64.9792 173.513 64.6458 173.15 64.4034 172.665C64.161 172.176 64.0398 171.561 64.0398 170.818V165.273H65.3807V170.727C65.3807 171.364 65.5587 171.871 65.9148 172.25C66.2746 172.629 66.733 172.818 67.2898 172.818C67.6231 172.818 67.9621 172.733 68.3068 172.562C68.6553 172.392 68.947 172.131 69.1818 171.778C69.4205 171.426 69.5398 170.977 69.5398 170.432ZM76.9957 174.182C76.1548 174.182 75.4295 173.996 74.8196 173.625C74.2135 173.25 73.7457 172.727 73.4162 172.057C73.0904 171.383 72.9276 170.598 72.9276 169.705C72.9276 168.811 73.0904 168.023 73.4162 167.341C73.7457 166.655 74.2041 166.121 74.7912 165.739C75.3821 165.352 76.0715 165.159 76.8594 165.159C77.3139 165.159 77.7628 165.235 78.206 165.386C78.6491 165.538 79.0526 165.784 79.4162 166.125C79.7798 166.462 80.0696 166.909 80.2855 167.466C80.5014 168.023 80.6094 168.708 80.6094 169.523V170.091H73.8821V168.932H79.2457C79.2457 168.439 79.1473 168 78.9503 167.614C78.7571 167.227 78.4806 166.922 78.1207 166.699C77.7647 166.475 77.3442 166.364 76.8594 166.364C76.3253 166.364 75.8632 166.496 75.473 166.761C75.0866 167.023 74.7893 167.364 74.581 167.784C74.3726 168.205 74.2685 168.655 74.2685 169.136V169.909C74.2685 170.568 74.3821 171.127 74.6094 171.585C74.8404 172.04 75.1605 172.386 75.5696 172.625C75.9787 172.86 76.4541 172.977 76.9957 172.977C77.348 172.977 77.6662 172.928 77.9503 172.83C78.2382 172.727 78.4863 172.576 78.6946 172.375C78.9029 172.17 79.0639 171.917 79.1776 171.614L80.473 171.977C80.3366 172.417 80.1075 172.803 79.7855 173.136C79.4635 173.466 79.0658 173.723 78.5923 173.909C78.1188 174.091 77.5866 174.182 76.9957 174.182Z" fill="#B3B3B3"/>
<path d="M25.4091 229V217.364H32.4318V218.614H26.8182V222.545H32.0682V223.795H26.8182V227.75H32.5227V229H25.4091ZM34.7898 229V220.273H36.0852V221.636H36.1989C36.3807 221.17 36.6742 220.809 37.0795 220.551C37.4848 220.29 37.9716 220.159 38.5398 220.159C39.1155 220.159 39.5947 220.29 39.9773 220.551C40.3636 220.809 40.6648 221.17 40.8807 221.636H40.9716C41.1951 221.186 41.5303 220.828 41.9773 220.562C42.4242 220.294 42.9602 220.159 43.5852 220.159C44.3655 220.159 45.0038 220.403 45.5 220.892C45.9962 221.377 46.2443 222.133 46.2443 223.159V229H44.9034V223.159C44.9034 222.515 44.7273 222.055 44.375 221.778C44.0227 221.502 43.608 221.364 43.1307 221.364C42.517 221.364 42.0417 221.549 41.7045 221.92C41.3674 222.288 41.1989 222.754 41.1989 223.318V229H39.8352V223.023C39.8352 222.527 39.6742 222.127 39.3523 221.824C39.0303 221.517 38.6155 221.364 38.108 221.364C37.7595 221.364 37.4337 221.456 37.1307 221.642C36.8314 221.828 36.589 222.085 36.4034 222.415C36.2216 222.741 36.1307 223.117 36.1307 223.545V229H34.7898ZM51.2642 229.205C50.7112 229.205 50.2093 229.1 49.7585 228.892C49.3078 228.68 48.9498 228.375 48.6847 227.977C48.4195 227.576 48.2869 227.091 48.2869 226.523C48.2869 226.023 48.3854 225.617 48.5824 225.307C48.7794 224.992 49.0426 224.746 49.3722 224.568C49.7017 224.39 50.0653 224.258 50.4631 224.17C50.8646 224.08 51.268 224.008 51.6733 223.955C52.2036 223.886 52.6335 223.835 52.9631 223.801C53.2964 223.763 53.5388 223.701 53.6903 223.614C53.8456 223.527 53.9233 223.375 53.9233 223.159V223.114C53.9233 222.553 53.7699 222.117 53.4631 221.807C53.16 221.496 52.6998 221.341 52.0824 221.341C51.4422 221.341 50.9403 221.481 50.5767 221.761C50.2131 222.042 49.9574 222.341 49.8097 222.659L48.5369 222.205C48.7642 221.674 49.0672 221.261 49.446 220.966C49.8286 220.667 50.2453 220.458 50.696 220.341C51.1506 220.22 51.5975 220.159 52.0369 220.159C52.3172 220.159 52.6392 220.193 53.0028 220.261C53.3703 220.326 53.7244 220.46 54.0653 220.665C54.41 220.869 54.696 221.178 54.9233 221.591C55.1506 222.004 55.2642 222.557 55.2642 223.25V229H53.9233V227.818H53.8551C53.7642 228.008 53.6127 228.21 53.4006 228.426C53.1884 228.642 52.9063 228.826 52.554 228.977C52.2017 229.129 51.7718 229.205 51.2642 229.205ZM51.4688 228C51.9991 228 52.446 227.896 52.8097 227.688C53.1771 227.479 53.4536 227.21 53.6392 226.881C53.8286 226.551 53.9233 226.205 53.9233 225.841V224.614C53.8665 224.682 53.7415 224.744 53.5483 224.801C53.3589 224.854 53.1392 224.902 52.8892 224.943C52.643 224.981 52.4025 225.015 52.1676 225.045C51.9366 225.072 51.7491 225.095 51.6051 225.114C51.2566 225.159 50.9309 225.233 50.6278 225.335C50.3286 225.434 50.0862 225.583 49.9006 225.784C49.7188 225.981 49.6278 226.25 49.6278 226.591C49.6278 227.057 49.8002 227.409 50.1449 227.648C50.4934 227.883 50.9347 228 51.4688 228ZM57.7116 229V220.273H59.0526V229H57.7116ZM58.3935 218.818C58.1321 218.818 57.9067 218.729 57.7173 218.551C57.5317 218.373 57.4389 218.159 57.4389 217.909C57.4389 217.659 57.5317 217.445 57.7173 217.267C57.9067 217.089 58.1321 217 58.3935 217C58.6548 217 58.8783 217.089 59.0639 217.267C59.2533 217.445 59.348 217.659 59.348 217.909C59.348 218.159 59.2533 218.373 59.0639 218.551C58.8783 218.729 58.6548 218.818 58.3935 218.818ZM62.8494 217.364V229H61.5085V217.364H62.8494Z" fill="#1E1E1E"/>
<path d="M24 250C24 245.582 27.5817 242 32 242H288C292.418 242 296 245.582 296 250V274C296 278.418 292.418 282 288 282H32C27.5817 282 24 278.418 24 274V250Z" fill="white"/>
<path d="M32 242.5H288V241.5H32V242.5ZM295.5 250V274H296.5V250H295.5ZM288 281.5H32V282.5H288V281.5ZM24.5 274V250H23.5V274H24.5ZM32 281.5C27.8579 281.5 24.5 278.142 24.5 274H23.5C23.5 278.694 27.3056 282.5 32 282.5V281.5ZM295.5 274C295.5 278.142 292.142 281.5 288 281.5V282.5C292.694 282.5 296.5 278.694 296.5 274H295.5ZM288 242.5C292.142 242.5 295.5 245.858 295.5 250H296.5C296.5 245.306 292.694 241.5 288 241.5V242.5ZM32 241.5C27.3056 241.5 23.5 245.306 23.5 250H24.5C24.5 245.858 27.8579 242.5 32 242.5V241.5Z" fill="#D9D9D9"/>
<path d="M41.8864 256.364L45.3409 266.159H45.4773L48.9318 256.364H50.4091L46.1364 268H44.6818L40.4091 256.364H41.8864ZM53.7955 268.205C53.2424 268.205 52.7405 268.1 52.2898 267.892C51.839 267.68 51.4811 267.375 51.2159 266.977C50.9508 266.576 50.8182 266.091 50.8182 265.523C50.8182 265.023 50.9167 264.617 51.1136 264.307C51.3106 263.992 51.5739 263.746 51.9034 263.568C52.233 263.39 52.5966 263.258 52.9943 263.17C53.3958 263.08 53.7992 263.008 54.2045 262.955C54.7348 262.886 55.1648 262.835 55.4943 262.801C55.8277 262.763 56.0701 262.701 56.2216 262.614C56.3769 262.527 56.4545 262.375 56.4545 262.159V262.114C56.4545 261.553 56.3011 261.117 55.9943 260.807C55.6913 260.496 55.2311 260.341 54.6136 260.341C53.9735 260.341 53.4716 260.481 53.108 260.761C52.7443 261.042 52.4886 261.341 52.3409 261.659L51.0682 261.205C51.2955 260.674 51.5985 260.261 51.9773 259.966C52.3598 259.667 52.7765 259.458 53.2273 259.341C53.6818 259.22 54.1288 259.159 54.5682 259.159C54.8485 259.159 55.1705 259.193 55.5341 259.261C55.9015 259.326 56.2557 259.46 56.5966 259.665C56.9413 259.869 57.2273 260.178 57.4545 260.591C57.6818 261.004 57.7955 261.557 57.7955 262.25V268H56.4545V266.818H56.3864C56.2955 267.008 56.1439 267.21 55.9318 267.426C55.7197 267.642 55.4375 267.826 55.0852 267.977C54.733 268.129 54.303 268.205 53.7955 268.205ZM54 267C54.5303 267 54.9773 266.896 55.3409 266.688C55.7083 266.479 55.9848 266.21 56.1705 265.881C56.3598 265.551 56.4545 265.205 56.4545 264.841V263.614C56.3977 263.682 56.2727 263.744 56.0795 263.801C55.8902 263.854 55.6705 263.902 55.4205 263.943C55.1742 263.981 54.9337 264.015 54.6989 264.045C54.4678 264.072 54.2803 264.095 54.1364 264.114C53.7879 264.159 53.4621 264.233 53.1591 264.335C52.8598 264.434 52.6174 264.583 52.4318 264.784C52.25 264.981 52.1591 265.25 52.1591 265.591C52.1591 266.057 52.3314 266.409 52.6761 266.648C53.0246 266.883 53.4659 267 54 267ZM61.5838 256.364V268H60.2429V256.364H61.5838ZM69.5398 264.432V259.273H70.8807V268H69.5398V266.523H69.4489C69.2443 266.966 68.9261 267.343 68.4943 267.653C68.0625 267.96 67.517 268.114 66.858 268.114C66.3125 268.114 65.8277 267.994 65.4034 267.756C64.9792 267.513 64.6458 267.15 64.4034 266.665C64.161 266.176 64.0398 265.561 64.0398 264.818V259.273H65.3807V264.727C65.3807 265.364 65.5587 265.871 65.9148 266.25C66.2746 266.629 66.733 266.818 67.2898 266.818C67.6231 266.818 67.9621 266.733 68.3068 266.562C68.6553 266.392 68.947 266.131 69.1818 265.778C69.4205 265.426 69.5398 264.977 69.5398 264.432ZM76.9957 268.182C76.1548 268.182 75.4295 267.996 74.8196 267.625C74.2135 267.25 73.7457 266.727 73.4162 266.057C73.0904 265.383 72.9276 264.598 72.9276 263.705C72.9276 262.811 73.0904 262.023 73.4162 261.341C73.7457 260.655 74.2041 260.121 74.7912 259.739C75.3821 259.352 76.0715 259.159 76.8594 259.159C77.3139 259.159 77.7628 259.235 78.206 259.386C78.6491 259.538 79.0526 259.784 79.4162 260.125C79.7798 260.462 80.0696 260.909 80.2855 261.466C80.5014 262.023 80.6094 262.708 80.6094 263.523V264.091H73.8821V262.932H79.2457C79.2457 262.439 79.1473 262 78.9503 261.614C78.7571 261.227 78.4806 260.922 78.1207 260.699C77.7647 260.475 77.3442 260.364 76.8594 260.364C76.3253 260.364 75.8632 260.496 75.473 260.761C75.0866 261.023 74.7893 261.364 74.581 261.784C74.3726 262.205 74.2685 262.655 74.2685 263.136V263.909C74.2685 264.568 74.3821 265.127 74.6094 265.585C74.8404 266.04 75.1605 266.386 75.5696 266.625C75.9787 266.86 76.4541 266.977 76.9957 266.977C77.348 266.977 77.6662 266.928 77.9503 266.83C78.2382 266.727 78.4863 266.576 78.6946 266.375C78.9029 266.17 79.0639 265.917 79.1776 265.614L80.473 265.977C80.3366 266.417 80.1075 266.803 79.7855 267.136C79.4635 267.466 79.0658 267.723 78.5923 267.909C78.1188 268.091 77.5866 268.182 76.9957 268.182Z" fill="#B3B3B3"/>
<path d="M25.4091 323V311.364H32.4318V312.614H26.8182V316.545H32.0682V317.795H26.8182V321.75H32.5227V323H25.4091ZM35.7898 314.273L37.8807 317.841L39.9716 314.273H41.517L38.6989 318.636L41.517 323H39.9716L37.8807 319.614L35.7898 323H34.2443L37.017 318.636L34.2443 314.273H35.7898ZM43.4304 326.273V314.273H44.7259V315.659H44.8849C44.9834 315.508 45.1198 315.314 45.294 315.08C45.4721 314.841 45.7259 314.629 46.0554 314.443C46.3887 314.254 46.8395 314.159 47.4077 314.159C48.1425 314.159 48.7902 314.343 49.3509 314.71C49.9115 315.078 50.349 315.598 50.6634 316.273C50.9777 316.947 51.1349 317.742 51.1349 318.659C51.1349 319.583 50.9777 320.384 50.6634 321.062C50.349 321.737 49.9134 322.259 49.3565 322.631C48.7997 322.998 48.1577 323.182 47.4304 323.182C46.8698 323.182 46.4209 323.089 46.0838 322.903C45.7467 322.714 45.4872 322.5 45.3054 322.261C45.1236 322.019 44.9834 321.818 44.8849 321.659H44.7713V326.273H43.4304ZM44.7486 318.636C44.7486 319.295 44.8452 319.877 45.0384 320.381C45.2315 320.881 45.5137 321.273 45.8849 321.557C46.2562 321.837 46.7107 321.977 47.2486 321.977C47.8092 321.977 48.277 321.83 48.652 321.534C49.0308 321.235 49.3149 320.833 49.5043 320.33C49.6974 319.822 49.794 319.258 49.794 318.636C49.794 318.023 49.6993 317.47 49.5099 316.977C49.3243 316.481 49.0421 316.089 48.6634 315.801C48.2884 315.509 47.8168 315.364 47.2486 315.364C46.7031 315.364 46.2448 315.502 45.8736 315.778C45.5024 316.051 45.2221 316.434 45.0327 316.926C44.8433 317.415 44.7486 317.985 44.7486 318.636ZM56.8395 323.182C55.9986 323.182 55.2732 322.996 54.6634 322.625C54.0573 322.25 53.5895 321.727 53.2599 321.057C52.9342 320.383 52.7713 319.598 52.7713 318.705C52.7713 317.811 52.9342 317.023 53.2599 316.341C53.5895 315.655 54.0478 315.121 54.6349 314.739C55.2259 314.352 55.9152 314.159 56.7031 314.159C57.1577 314.159 57.6065 314.235 58.0497 314.386C58.4929 314.538 58.8963 314.784 59.2599 315.125C59.6236 315.462 59.9134 315.909 60.1293 316.466C60.3452 317.023 60.4531 317.708 60.4531 318.523V319.091H53.7259V317.932H59.0895C59.0895 317.439 58.991 317 58.794 316.614C58.6009 316.227 58.3243 315.922 57.9645 315.699C57.6084 315.475 57.188 315.364 56.7031 315.364C56.169 315.364 55.7069 315.496 55.3168 315.761C54.9304 316.023 54.633 316.364 54.4247 316.784C54.2164 317.205 54.1122 317.655 54.1122 318.136V318.909C54.1122 319.568 54.2259 320.127 54.4531 320.585C54.6842 321.04 55.0043 321.386 55.4134 321.625C55.8224 321.86 56.2978 321.977 56.8395 321.977C57.1918 321.977 57.5099 321.928 57.794 321.83C58.0819 321.727 58.33 321.576 58.5384 321.375C58.7467 321.17 58.9077 320.917 59.0213 320.614L60.3168 320.977C60.1804 321.417 59.9512 321.803 59.6293 322.136C59.3073 322.466 58.9096 322.723 58.4361 322.909C57.9626 323.091 57.4304 323.182 56.8395 323.182ZM62.4929 323V314.273H63.7884V315.591H63.8793C64.0384 315.159 64.3262 314.809 64.7429 314.54C65.1596 314.271 65.6293 314.136 66.152 314.136C66.2505 314.136 66.3736 314.138 66.5213 314.142C66.669 314.146 66.7808 314.152 66.8565 314.159V315.523C66.8111 315.511 66.7069 315.494 66.544 315.472C66.3849 315.445 66.2164 315.432 66.0384 315.432C65.6141 315.432 65.2353 315.521 64.902 315.699C64.5724 315.873 64.3111 316.116 64.1179 316.426C63.9285 316.733 63.8338 317.083 63.8338 317.477V323H62.4929ZM68.446 323V314.273H69.7869V323H68.446ZM69.1278 312.818C68.8665 312.818 68.6411 312.729 68.4517 312.551C68.2661 312.373 68.1733 312.159 68.1733 311.909C68.1733 311.659 68.2661 311.445 68.4517 311.267C68.6411 311.089 68.8665 311 69.1278 311C69.3892 311 69.6127 311.089 69.7983 311.267C69.9877 311.445 70.0824 311.659 70.0824 311.909C70.0824 312.159 69.9877 312.373 69.7983 312.551C69.6127 312.729 69.3892 312.818 69.1278 312.818ZM75.902 323.182C75.0611 323.182 74.3357 322.996 73.7259 322.625C73.1198 322.25 72.652 321.727 72.3224 321.057C71.9967 320.383 71.8338 319.598 71.8338 318.705C71.8338 317.811 71.9967 317.023 72.3224 316.341C72.652 315.655 73.1103 315.121 73.6974 314.739C74.2884 314.352 74.9777 314.159 75.7656 314.159C76.2202 314.159 76.669 314.235 77.1122 314.386C77.5554 314.538 77.9588 314.784 78.3224 315.125C78.6861 315.462 78.9759 315.909 79.1918 316.466C79.4077 317.023 79.5156 317.708 79.5156 318.523V319.091H72.7884V317.932H78.152C78.152 317.439 78.0535 317 77.8565 316.614C77.6634 316.227 77.3868 315.922 77.027 315.699C76.6709 315.475 76.2505 315.364 75.7656 315.364C75.2315 315.364 74.7694 315.496 74.3793 315.761C73.9929 316.023 73.6955 316.364 73.4872 316.784C73.2789 317.205 73.1747 317.655 73.1747 318.136V318.909C73.1747 319.568 73.2884 320.127 73.5156 320.585C73.7467 321.04 74.0668 321.386 74.4759 321.625C74.8849 321.86 75.3603 321.977 75.902 321.977C76.2543 321.977 76.5724 321.928 76.8565 321.83C77.1444 321.727 77.3925 321.576 77.6009 321.375C77.8092 321.17 77.9702 320.917 78.0838 320.614L79.3793 320.977C79.2429 321.417 79.0137 321.803 78.6918 322.136C78.3698 322.466 77.9721 322.723 77.4986 322.909C77.0251 323.091 76.4929 323.182 75.902 323.182ZM82.8963 317.75V323H81.5554V314.273H82.8509V315.636H82.9645C83.169 315.193 83.4796 314.837 83.8963 314.568C84.313 314.295 84.8509 314.159 85.5099 314.159C86.1009 314.159 86.6179 314.28 87.0611 314.523C87.5043 314.761 87.849 315.125 88.0952 315.614C88.3414 316.098 88.4645 316.712 88.4645 317.455V323H87.1236V317.545C87.1236 316.86 86.9455 316.326 86.5895 315.943C86.2334 315.557 85.7448 315.364 85.1236 315.364C84.6955 315.364 84.313 315.456 83.9759 315.642C83.6425 315.828 83.3793 316.098 83.1861 316.455C82.9929 316.811 82.8963 317.242 82.8963 317.75ZM94.4602 323.182C93.642 323.182 92.9375 322.989 92.3466 322.602C91.7557 322.216 91.3011 321.684 90.983 321.006C90.6648 320.328 90.5057 319.553 90.5057 318.682C90.5057 317.795 90.6686 317.013 90.9943 316.335C91.3239 315.653 91.7822 315.121 92.3693 314.739C92.9602 314.352 93.6496 314.159 94.4375 314.159C95.0511 314.159 95.6042 314.273 96.0966 314.5C96.589 314.727 96.9924 315.045 97.3068 315.455C97.6212 315.864 97.8163 316.341 97.892 316.886H96.5511C96.4489 316.489 96.2216 316.136 95.8693 315.83C95.5208 315.519 95.0511 315.364 94.4602 315.364C93.9375 315.364 93.4792 315.5 93.0852 315.773C92.6951 316.042 92.3902 316.422 92.1705 316.915C91.9545 317.403 91.8466 317.977 91.8466 318.636C91.8466 319.311 91.9527 319.898 92.1648 320.398C92.3807 320.898 92.6837 321.286 93.0739 321.562C93.4678 321.839 93.9299 321.977 94.4602 321.977C94.8087 321.977 95.125 321.917 95.4091 321.795C95.6932 321.674 95.9337 321.5 96.1307 321.273C96.3277 321.045 96.4678 320.773 96.5511 320.455H97.892C97.8163 320.97 97.6288 321.434 97.3295 321.847C97.0341 322.256 96.642 322.581 96.1534 322.824C95.6686 323.062 95.1042 323.182 94.4602 323.182ZM103.511 323.182C102.67 323.182 101.945 322.996 101.335 322.625C100.729 322.25 100.261 321.727 99.9318 321.057C99.6061 320.383 99.4432 319.598 99.4432 318.705C99.4432 317.811 99.6061 317.023 99.9318 316.341C100.261 315.655 100.72 315.121 101.307 314.739C101.898 314.352 102.587 314.159 103.375 314.159C103.83 314.159 104.278 314.235 104.722 314.386C105.165 314.538 105.568 314.784 105.932 315.125C106.295 315.462 106.585 315.909 106.801 316.466C107.017 317.023 107.125 317.708 107.125 318.523V319.091H100.398V317.932H105.761C105.761 317.439 105.663 317 105.466 316.614C105.273 316.227 104.996 315.922 104.636 315.699C104.28 315.475 103.86 315.364 103.375 315.364C102.841 315.364 102.379 315.496 101.989 315.761C101.602 316.023 101.305 316.364 101.097 316.784C100.888 317.205 100.784 317.655 100.784 318.136V318.909C100.784 319.568 100.898 320.127 101.125 320.585C101.356 321.04 101.676 321.386 102.085 321.625C102.494 321.86 102.97 321.977 103.511 321.977C103.864 321.977 104.182 321.928 104.466 321.83C104.754 321.727 105.002 321.576 105.21 321.375C105.419 321.17 105.58 320.917 105.693 320.614L106.989 320.977C106.852 321.417 106.623 321.803 106.301 322.136C105.979 322.466 105.581 322.723 105.108 322.909C104.634 323.091 104.102 323.182 103.511 323.182Z" fill="#1E1E1E"/>
<path d="M24 344C24 339.582 27.5817 336 32 336H288C292.418 336 296 339.582 296 344V408C296 412.418 292.418 416 288 416H32C27.5817 416 24 412.418 24 408V344Z" fill="white"/>
<path d="M32 336.5H288V335.5H32V336.5ZM295.5 344V408H296.5V344H295.5ZM288 415.5H32V416.5H288V415.5ZM24.5 408V344H23.5V408H24.5ZM32 415.5C27.8579 415.5 24.5 412.142 24.5 408H23.5C23.5 412.694 27.3056 416.5 32 416.5V415.5ZM295.5 408C295.5 412.142 292.142 415.5 288 415.5V416.5C292.694 416.5 296.5 412.694 296.5 408H295.5ZM288 336.5C292.142 336.5 295.5 339.858 295.5 344H296.5C296.5 339.306 292.694 335.5 288 335.5V336.5ZM32 335.5C27.3056 335.5 23.5 339.306 23.5 344H24.5C24.5 339.858 27.8579 336.5 32 336.5V335.5Z" fill="#D9D9D9"/>
<path d="M41.8864 353.364L45.3409 363.159H45.4773L48.9318 353.364H50.4091L46.1364 365H44.6818L40.4091 353.364H41.8864ZM53.7955 365.205C53.2424 365.205 52.7405 365.1 52.2898 364.892C51.839 364.68 51.4811 364.375 51.2159 363.977C50.9508 363.576 50.8182 363.091 50.8182 362.523C50.8182 362.023 50.9167 361.617 51.1136 361.307C51.3106 360.992 51.5739 360.746 51.9034 360.568C52.233 360.39 52.5966 360.258 52.9943 360.17C53.3958 360.08 53.7992 360.008 54.2045 359.955C54.7348 359.886 55.1648 359.835 55.4943 359.801C55.8277 359.763 56.0701 359.701 56.2216 359.614C56.3769 359.527 56.4545 359.375 56.4545 359.159V359.114C56.4545 358.553 56.3011 358.117 55.9943 357.807C55.6913 357.496 55.2311 357.341 54.6136 357.341C53.9735 357.341 53.4716 357.481 53.108 357.761C52.7443 358.042 52.4886 358.341 52.3409 358.659L51.0682 358.205C51.2955 357.674 51.5985 357.261 51.9773 356.966C52.3598 356.667 52.7765 356.458 53.2273 356.341C53.6818 356.22 54.1288 356.159 54.5682 356.159C54.8485 356.159 55.1705 356.193 55.5341 356.261C55.9015 356.326 56.2557 356.46 56.5966 356.665C56.9413 356.869 57.2273 357.178 57.4545 357.591C57.6818 358.004 57.7955 358.557 57.7955 359.25V365H56.4545V363.818H56.3864C56.2955 364.008 56.1439 364.21 55.9318 364.426C55.7197 364.642 55.4375 364.826 55.0852 364.977C54.733 365.129 54.303 365.205 53.7955 365.205ZM54 364C54.5303 364 54.9773 363.896 55.3409 363.688C55.7083 363.479 55.9848 363.21 56.1705 362.881C56.3598 362.551 56.4545 362.205 56.4545 361.841V360.614C56.3977 360.682 56.2727 360.744 56.0795 360.801C55.8902 360.854 55.6705 360.902 55.4205 360.943C55.1742 360.981 54.9337 361.015 54.6989 361.045C54.4678 361.072 54.2803 361.095 54.1364 361.114C53.7879 361.159 53.4621 361.233 53.1591 361.335C52.8598 361.434 52.6174 361.583 52.4318 361.784C52.25 361.981 52.1591 362.25 52.1591 362.591C52.1591 363.057 52.3314 363.409 52.6761 363.648C53.0246 363.883 53.4659 364 54 364ZM61.5838 353.364V365H60.2429V353.364H61.5838ZM69.5398 361.432V356.273H70.8807V365H69.5398V363.523H69.4489C69.2443 363.966 68.9261 364.343 68.4943 364.653C68.0625 364.96 67.517 365.114 66.858 365.114C66.3125 365.114 65.8277 364.994 65.4034 364.756C64.9792 364.513 64.6458 364.15 64.4034 363.665C64.161 363.176 64.0398 362.561 64.0398 361.818V356.273H65.3807V361.727C65.3807 362.364 65.5587 362.871 65.9148 363.25C66.2746 363.629 66.733 363.818 67.2898 363.818C67.6231 363.818 67.9621 363.733 68.3068 363.562C68.6553 363.392 68.947 363.131 69.1818 362.778C69.4205 362.426 69.5398 361.977 69.5398 361.432ZM76.9957 365.182C76.1548 365.182 75.4295 364.996 74.8196 364.625C74.2135 364.25 73.7457 363.727 73.4162 363.057C73.0904 362.383 72.9276 361.598 72.9276 360.705C72.9276 359.811 73.0904 359.023 73.4162 358.341C73.7457 357.655 74.2041 357.121 74.7912 356.739C75.3821 356.352 76.0715 356.159 76.8594 356.159C77.3139 356.159 77.7628 356.235 78.206 356.386C78.6491 356.538 79.0526 356.784 79.4162 357.125C79.7798 357.462 80.0696 357.909 80.2855 358.466C80.5014 359.023 80.6094 359.708 80.6094 360.523V361.091H73.8821V359.932H79.2457C79.2457 359.439 79.1473 359 78.9503 358.614C78.7571 358.227 78.4806 357.922 78.1207 357.699C77.7647 357.475 77.3442 357.364 76.8594 357.364C76.3253 357.364 75.8632 357.496 75.473 357.761C75.0866 358.023 74.7893 358.364 74.581 358.784C74.3726 359.205 74.2685 359.655 74.2685 360.136V360.909C74.2685 361.568 74.3821 362.127 74.6094 362.585C74.8404 363.04 75.1605 363.386 75.5696 363.625C75.9787 363.86 76.4541 363.977 76.9957 363.977C77.348 363.977 77.6662 363.928 77.9503 363.83C78.2382 363.727 78.4863 363.576 78.6946 363.375C78.9029 363.17 79.0639 362.917 79.1776 362.614L80.473 362.977C80.3366 363.417 80.1075 363.803 79.7855 364.136C79.4635 364.466 79.0658 364.723 78.5923 364.909C78.1188 365.091 77.5866 365.182 76.9957 365.182Z" fill="#B3B3B3"/>
<path d="M290.523 403.354L284.354 409.523M290.981 406.896L287.896 409.981" stroke="#B3B3B3"/>
<path d="M24 448C24 443.582 27.5817 440 32 440H288C292.418 440 296 443.582 296 448V472C296 476.418 292.418 480 288 480H32C27.5817 480 24 476.418 24 472V448Z" fill="#4577E1"/>
<path d="M141.273 457.273C141.205 456.697 140.928 456.25 140.443 455.932C139.958 455.614 139.364 455.455 138.659 455.455C138.144 455.455 137.693 455.538 137.307 455.705C136.924 455.871 136.625 456.1 136.409 456.392C136.197 456.684 136.091 457.015 136.091 457.386C136.091 457.697 136.165 457.964 136.312 458.188C136.464 458.407 136.657 458.591 136.892 458.739C137.127 458.883 137.373 459.002 137.631 459.097C137.888 459.187 138.125 459.261 138.341 459.318L139.523 459.636C139.826 459.716 140.163 459.826 140.534 459.966C140.909 460.106 141.267 460.297 141.608 460.54C141.953 460.778 142.237 461.085 142.46 461.46C142.684 461.835 142.795 462.295 142.795 462.841C142.795 463.47 142.631 464.038 142.301 464.545C141.975 465.053 141.498 465.456 140.869 465.756C140.244 466.055 139.485 466.205 138.591 466.205C137.758 466.205 137.036 466.07 136.426 465.801C135.82 465.532 135.343 465.157 134.994 464.676C134.65 464.195 134.455 463.636 134.409 463H135.864C135.902 463.439 136.049 463.803 136.307 464.091C136.568 464.375 136.898 464.587 137.295 464.727C137.697 464.864 138.129 464.932 138.591 464.932C139.129 464.932 139.612 464.845 140.04 464.67C140.468 464.492 140.807 464.246 141.057 463.932C141.307 463.614 141.432 463.242 141.432 462.818C141.432 462.432 141.324 462.117 141.108 461.875C140.892 461.633 140.608 461.436 140.256 461.284C139.903 461.133 139.523 461 139.114 460.886L137.682 460.477C136.773 460.216 136.053 459.843 135.523 459.358C134.992 458.873 134.727 458.239 134.727 457.455C134.727 456.803 134.903 456.235 135.256 455.75C135.612 455.261 136.089 454.883 136.688 454.614C137.29 454.341 137.962 454.205 138.705 454.205C139.455 454.205 140.121 454.339 140.705 454.608C141.288 454.873 141.75 455.237 142.091 455.699C142.436 456.161 142.617 456.686 142.636 457.273H141.273ZM150.43 462.432V457.273H151.771V466H150.43V464.523H150.339C150.135 464.966 149.817 465.343 149.385 465.653C148.953 465.96 148.408 466.114 147.749 466.114C147.203 466.114 146.718 465.994 146.294 465.756C145.87 465.513 145.536 465.15 145.294 464.665C145.052 464.176 144.93 463.561 144.93 462.818V457.273H146.271V462.727C146.271 463.364 146.449 463.871 146.805 464.25C147.165 464.629 147.624 464.818 148.18 464.818C148.514 464.818 148.853 464.733 149.197 464.562C149.546 464.392 149.838 464.131 150.072 463.778C150.311 463.426 150.43 462.977 150.43 462.432ZM154.409 466V454.364H155.75V458.659H155.864C155.962 458.508 156.098 458.314 156.273 458.08C156.451 457.841 156.705 457.629 157.034 457.443C157.367 457.254 157.818 457.159 158.386 457.159C159.121 457.159 159.769 457.343 160.33 457.71C160.89 458.078 161.328 458.598 161.642 459.273C161.956 459.947 162.114 460.742 162.114 461.659C162.114 462.583 161.956 463.384 161.642 464.062C161.328 464.737 160.892 465.259 160.335 465.631C159.778 465.998 159.136 466.182 158.409 466.182C157.848 466.182 157.4 466.089 157.062 465.903C156.725 465.714 156.466 465.5 156.284 465.261C156.102 465.019 155.962 464.818 155.864 464.659H155.705V466H154.409ZM155.727 461.636C155.727 462.295 155.824 462.877 156.017 463.381C156.21 463.881 156.492 464.273 156.864 464.557C157.235 464.837 157.689 464.977 158.227 464.977C158.788 464.977 159.256 464.83 159.631 464.534C160.009 464.235 160.294 463.833 160.483 463.33C160.676 462.822 160.773 462.258 160.773 461.636C160.773 461.023 160.678 460.47 160.489 459.977C160.303 459.481 160.021 459.089 159.642 458.801C159.267 458.509 158.795 458.364 158.227 458.364C157.682 458.364 157.223 458.502 156.852 458.778C156.481 459.051 156.201 459.434 156.011 459.926C155.822 460.415 155.727 460.985 155.727 461.636ZM164.165 466V457.273H165.46V458.636H165.574C165.756 458.17 166.049 457.809 166.455 457.551C166.86 457.29 167.347 457.159 167.915 457.159C168.491 457.159 168.97 457.29 169.352 457.551C169.739 457.809 170.04 458.17 170.256 458.636H170.347C170.57 458.186 170.905 457.828 171.352 457.562C171.799 457.294 172.335 457.159 172.96 457.159C173.741 457.159 174.379 457.403 174.875 457.892C175.371 458.377 175.619 459.133 175.619 460.159V466H174.278V460.159C174.278 459.515 174.102 459.055 173.75 458.778C173.398 458.502 172.983 458.364 172.506 458.364C171.892 458.364 171.417 458.549 171.08 458.92C170.742 459.288 170.574 459.754 170.574 460.318V466H169.21V460.023C169.21 459.527 169.049 459.127 168.727 458.824C168.405 458.517 167.991 458.364 167.483 458.364C167.134 458.364 166.809 458.456 166.506 458.642C166.206 458.828 165.964 459.085 165.778 459.415C165.597 459.741 165.506 460.117 165.506 460.545V466H164.165ZM178.071 466V457.273H179.412V466H178.071ZM178.753 455.818C178.491 455.818 178.266 455.729 178.077 455.551C177.891 455.373 177.798 455.159 177.798 454.909C177.798 454.659 177.891 454.445 178.077 454.267C178.266 454.089 178.491 454 178.753 454C179.014 454 179.238 454.089 179.423 454.267C179.613 454.445 179.707 454.659 179.707 454.909C179.707 455.159 179.613 455.373 179.423 455.551C179.238 455.729 179.014 455.818 178.753 455.818ZM185.663 457.273V458.409H181.141V457.273H185.663ZM182.459 455.182H183.8V463.5C183.8 463.879 183.855 464.163 183.964 464.352C184.078 464.538 184.222 464.663 184.396 464.727C184.574 464.788 184.762 464.818 184.959 464.818C185.107 464.818 185.228 464.811 185.322 464.795C185.417 464.777 185.493 464.761 185.55 464.75L185.822 465.955C185.732 465.989 185.605 466.023 185.442 466.057C185.279 466.095 185.072 466.114 184.822 466.114C184.444 466.114 184.072 466.032 183.709 465.869C183.349 465.706 183.05 465.458 182.811 465.125C182.576 464.792 182.459 464.371 182.459 463.864V455.182Z" fill="#F5F5F5"/>
<path d="M138 126L150 138M118 106L132.14 139.94L137.16 125.16L151.94 120.14L118 106Z" stroke="#1E1E1E" stroke-width="4" stroke-linecap="round" stroke-linejoin="round"/>
</g>
<defs>
<clipPath id="clip0_3_5">
<rect width="320" height="504" fill="white"/>
</clipPath>
</defs>
</svg>
