<svg version="1.1" viewBox="0.0 0.0 960.0 540.0" fill="none" stroke="none" stroke-linecap="square" stroke-miterlimit="10" xmlns:xlink="http://www.w3.org/1999/xlink" xmlns="http://www.w3.org/2000/svg"><clipPath id="g31f7a53ae38_0_5.0"><path d="m0 0l960.0 0l0 540.0l-960.0 0l0 -540.0z" clip-rule="nonzero"/></clipPath><g clip-path="url(#g31f7a53ae38_0_5.0)"><path fill="#000000" fill-opacity="0.0" d="m0 0l960.0 0l0 540.0l-960.0 0z" fill-rule="evenodd"/><path fill="#ffffff" d="m424.87683 271.2012l-0.06713867 0.13430786c0 -0.033569336 0.033569336 -0.06713867 0.033569336 -0.100738525l0 0l-0.13430786 0.26861572l-9.747864 19.38385c-1.2087097 2.4285583 -0.73864746 5.394348 1.1863098 7.341675l35.622864 35.622864c1.2198792 1.2199097 2.820282 1.8466187 4.454254 1.8466187c0.9848633 0 1.9697266 -0.22381592 2.8874207 -0.6938782l19.518158 -9.781464l0.033569336 -0.033569336l0.13430786 -0.06713867l-53.921143 -53.921143z" fill-rule="evenodd"/><path fill="#ffffff" d="m478.79797 325.12234z" fill-rule="evenodd"/><path fill="#ffffff" d="m571.97925 162.15025c-12.5234375 0 -23.815735 0.9065094 -34.313477 2.6635895l0.10076904 7.34169c0.27978516 22.013885 18.063232 39.808533 40.077087 40.077133l7.3081055 0.10072327c2.1936035 -13.116562 3.1000977 -27.497772 2.5292969 -43.915848c-0.13427734 -3.3015137 -2.7978516 -5.9651184 -6.099365 -6.0994263c-3.2791748 -0.11190796 -6.4799805 -0.16786194 -9.602417 -0.16786194z" fill-rule="evenodd"/><path fill="#ffffff" d="m509.88824 221.19713c-7.65506 0 -14.526703 4.6333313 -17.447723 11.695221c-2.93219 7.073105 -1.3094177 15.26535 4.1520996 20.682083c3.5701294 3.5813293 8.483215 5.360779 13.396332 5.360779c4.913147 0 9.815063 -1.7794495 13.396362 -5.360779c5.416748 -5.416733 7.0394897 -13.575409 4.1073 -20.682083c-2.93219 -7.0842743 -9.837402 -11.695221 -17.526031 -11.695221c-0.022399902 0 -0.05596924 0 -0.07833862 0z" fill-rule="evenodd"/><path fill="#ffffff" d="m509.97778 208.53943c8.2146 0 16.294983 3.2119904 22.33844 9.255463c12.400269 12.333145 12.400269 32.377304 0 44.67688c-6.043457 6.043457 -14.12384 9.255432 -22.33844 9.255432c-4.073761 0 -8.192261 -0.7945862 -12.109314 -2.406189c-11.795959 -4.8907166 -19.473389 -16.418076 -19.473389 -29.187698c0 -12.769608 7.677429 -24.296967 19.473389 -29.187683c3.9170532 -1.6116028 8.035553 -2.4062042 12.109314 -2.4062042zm-35.79074 61.005432c1.5444336 0 3.1224365 0.5819397 4.409485 1.8577881c2.4509583 2.4621582 2.4509583 6.47995 0 8.930908c-1.2870483 1.2982178 -2.8762512 1.868988 -4.431885 1.868988c-3.2455444 0 -6.3568115 -2.5069275 -6.3568115 -6.3120728c0 -3.8163147 3.1224365 -6.3456116 6.3792114 -6.3456116zm50.876984 -102.10098c-21.801208 5.6629486 -39.461548 15.936829 -54.794067 31.840103c-15.097443 15.645859 -28.18045 38.454346 -39.36084 60.054123l59.718384 59.718384c21.599792 -11.180389 44.453003 -24.263397 60.087708 -39.36087c15.86969 -15.298889 26.109985 -32.959244 31.77295 -54.760483l-4.8459473 -0.100738525c-28.85199 -0.33573914 -52.141663 -23.659042 -52.510986 -52.477417l-0.06719971 -4.913101z" fill-rule="evenodd"/><path fill="#ffffff" d="m524.1911 314.88202l0 0c-16.250214 9.803864 -32.690674 17.996094 -48.76181 26.087616c0.63793945 8.483246 1.242279 16.306183 1.3094177 17.346985c0 3.6820374 3.010559 6.356842 6.3232727 6.356842c0.940094 0 1.9137573 -0.22384644 2.8426514 -0.6938782c1.1415405 -1.0408325 32.690643 -13.206085 38.28647 -49.097565z" fill-rule="evenodd"/><path fill="#ffffff" d="m435.55362 225.06943l0 0c-36.898712 5.1257477 -49.030396 37.301605 -50.071228 38.454346c-1.0184326 1.9473267 -0.9176941 4.308777 0.23504639 6.166565c2.0480652 3.3351135 5.5286255 2.7307434 6.838043 2.9993591l16.686676 1.5108643c8.181061 -16.373322 16.40689 -32.824966 26.311462 -49.131134z" fill-rule="evenodd"/><path fill="#ffffff" d="m403.57922 301.94455c-12.299561 11.76236 -26.221924 51.492554 -31.14624 67.69797c-0.7050476 2.2607117 -0.10070801 4.6893005 1.5556335 6.3344727c1.1975098 1.2086792 2.820282 1.8577881 4.476654 1.8577881c0.6043396 0 1.2198792 -0.089538574 1.8242188 -0.2685852c16.339752 -4.9243164 56.148285 -18.734741 67.910645 -31.079071c-1.992096 -0.90652466 -3.8163452 -2.1488037 -5.360779 -3.7044373l-13.284424 -13.273224l-4.476654 4.443054c-1.2198792 1.1863098 -2.797882 1.7794495 -4.387085 1.7794495c-1.6116028 0 -3.234375 -0.61550903 -4.476654 -1.8465881c-2.4285889 -2.4285889 -2.4621582 -6.368042 -0.06713867 -8.86377l4.4766235 -4.4766235l-13.407532 -13.418732c-1.5220642 -1.5108643 -2.7307434 -3.2679443 -3.637268 -5.1817017z" fill-rule="evenodd"/><defs><linearGradient id="g31f7a53ae38_0_5.1" gradientUnits="userSpaceOnUse" gradientTransform="matrix(23.164636090152825 0.0 0.0 23.164636090152825 0.0 0.0)" spreadMethod="pad" x1="9.145491959629508" y1="0.07295379594818369" x2="9.145407865984348" y2="23.23758988594837"><stop offset="0.0" stop-color="#81adf8"/><stop offset="1.0" stop-color="#1662df"/></linearGradient></defs><path fill="url(#g31f7a53ae38_0_5.1)" d="m211.85199 169.91328l0 0c0 -92.90611 75.31528 -168.22139 168.2214 -168.22139l199.84067 0l0 0c44.615112 0 87.40283 17.723276 118.9505 49.270905c31.547607 31.547634 49.270874 74.3354 49.270874 118.950485l0 200.15562c0 92.90613 -75.31525 168.22144 -168.22137 168.22144l-199.84067 0l0 0c-92.90613 0 -168.2214 -75.31531 -168.2214 -168.22144z" fill-rule="evenodd"/><path fill="#ffffff" d="m479.61966 163.93478c-0.9344177 0 -1.7329102 0.1359253 -2.2765808 0.40777588l-101.69916 50.8535c-2.140686 1.0704193 -3.211029 3.2112732 -3.211029 5.352112c0 2.6675568 1.070343 4.8083954 3.211029 5.3520966l37.461853 13.37178l10.720367 -21.93515c1.070343 -2.1408386 3.211029 -3.754959 5.3516846 -3.754959l101.69919 0c2.6673584 0 4.8079834 1.6141205 5.3516846 3.754959l10.703369 21.93515l28.355469 -10.160507l0 41.74643c0 3.2112732 2.6843262 5.895813 5.8953857 5.895813c3.2109985 0 5.8953247 -2.6845398 5.8953247 -5.895813l0 -50.853516c0.52667236 -1.5971222 0 -4.2816772 -2.140686 -4.8083954l-102.2428 -50.8535c-1.070343 -0.2718506 -2.140686 -0.40777588 -3.0751038 -0.40777588z" fill-rule="evenodd"/><path fill="#ffffff" d="m432.91553 226.9707l-6.4220276 12.845047l106.52414 0l-6.421997 -12.845047z" fill-rule="evenodd"/><path fill="#ffffff" d="m429.17783 277.8242c-3.2109985 0 -5.895355 2.667572 -5.895355 6.4225464l0 12.318329c0 3.2112732 2.6843567 5.8788147 5.895355 5.8788147l12.844086 0l0 0.5437317c10.703369 0 18.722412 -9.107086 18.722412 -18.740875c0 -3.7549744 -2.6673584 -6.4225464 -6.4220276 -6.4225464z" fill-rule="evenodd"/><path fill="#ffffff" d="m497.35672 320.77698c1.5290527 0 3.007141 0.6626282 4.0774536 2.0049133c3.211029 2.6845398 3.211029 6.9662476 0.52667236 8.563385c-5.878357 6.422516 -13.914398 9.633789 -21.933441 9.633789c-8.562714 0 -16.598724 -3.2112732 -23.020752 -9.633789c-2.6843567 -2.667572 -2.6843567 -6.4225464 0 -8.563385c1.3421631 -1.3422852 3.0750732 -2.0049133 4.7570496 -2.0049133c1.664978 0 3.2619934 0.6626282 4.332306 2.0049133c3.4828491 3.7549744 8.307892 5.6239624 13.183868 5.6239624c4.892975 0 9.836914 -1.868988 13.591614 -5.6239624c1.3251648 -1.3422852 2.9391785 -2.0049133 4.4852295 -2.0049133zm-24.295013 -30.651428c-2.667328 14.459198 -16.055054 25.163391 -30.513123 25.163391l-12.844086 0c-10.703369 0 -18.73941 -8.5633545 -18.73941 -18.723877l0 12.845062c0 37.991455 31.583496 70.12109 69.58899 70.12109c38.005554 0 69.58899 -31.585938 69.58899 -70.12109l0 -12.845062c-0.54364014 10.704224 -9.106323 18.723877 -19.266052 18.723877l-12.861084 0c-15.511414 0 -27.828796 -10.704193 -30.496155 -25.163391z" fill-rule="evenodd"/><path fill="#ffffff" d="m505.17188 277.8242c-3.211029 0 -5.878357 2.667572 -5.878357 6.4225464c0 10.704193 8.562714 18.740875 18.722412 18.740875l12.861084 0c3.2109985 0 5.878357 -2.6845703 5.878357 -6.4225464l0 -12.318329c0 -3.7549744 -2.6673584 -6.4225464 -5.878357 -6.4225464z" fill-rule="evenodd"/><path fill="#ffffff" d="m410.43842 252.66081l0 31.585922c0 -10.704224 8.562714 -19.267578 18.73941 -19.267578l25.14447 0c8.036041 0 15.528412 5.8788147 18.212738 12.845032l14.984741 0c2.6673584 -6.966217 9.089386 -12.845032 17.6521 -12.845032l25.70514 0c10.703369 0 18.722412 9.090088 18.722412 19.267578l0 -31.585922z" fill-rule="evenodd"/><path fill="#ffffff" d="m397.59436 269.26083c-8.036041 3.2112732 -12.844055 12.301361 -12.844055 21.408417c0 9.107086 5.3516846 17.67044 12.844055 21.952148l0 -43.360565z" fill-rule="evenodd"/><path fill="#ffffff" d="m562.4435 268.71713l0 43.360535c6.9656982 -4.80838 12.317383 -12.845032 12.317383 -21.952118c0 -8.5633545 -5.3516846 -17.653442 -12.317383 -21.408417z" fill-rule="evenodd"/></g></svg>