<svg width="259" height="252" viewBox="0 0 259 252" fill="none" xmlns="http://www.w3.org/2000/svg">
<mask id="path-1-inside-1_4_4799" fill="white">
<path d="M0 11C0 6.58172 3.58172 3 8 3H251C255.418 3 259 6.58172 259 11V244C259 248.418 255.418 252 251 252H8C3.58172 252 0 248.418 0 244V11Z"/>
</mask>
<path d="M0 11C0 6.58172 3.58172 3 8 3H251C255.418 3 259 6.58172 259 11V244C259 248.418 255.418 252 251 252H8C3.58172 252 0 248.418 0 244V11Z" fill="white"/>
<path d="M8 4H251V2H8V4ZM258 11V244H260V11H258ZM251 251H8V253H251V251ZM1 244V11H-1V244H1ZM8 251C4.134 251 1 247.866 1 244H-1C-1 248.971 3.02943 253 8 253V251ZM258 244C258 247.866 254.866 251 251 251V253C255.971 253 260 248.971 260 244H258ZM251 4C254.866 4 258 7.13401 258 11H260C260 6.02944 255.971 2 251 2V4ZM8 2C3.02944 2 -1 6.02944 -1 11H1C1 7.13401 4.13401 4 8 4V2Z" fill="#D9D9D9" mask="url(#path-1-inside-1_4_4799)"/>
<path d="M201.708 168.708L214.958 181.958M179.625 146.625L195.238 184.1L200.781 167.781L217.1 162.238L179.625 146.625Z" stroke="#1E1E1E" stroke-width="4" stroke-linecap="round" stroke-linejoin="round"/>
<mask id="path-4-inside-2_4_4799" fill="white">
<path d="M29 100C29 95.5817 32.5817 92 37 92H167C171.418 92 175 95.5817 175 100V135C175 139.418 171.418 143 167 143H37C32.5817 143 29 139.418 29 135V100Z"/>
</mask>
<path d="M29 100C29 95.5817 32.5817 92 37 92H167C171.418 92 175 95.5817 175 100V135C175 139.418 171.418 143 167 143H37C32.5817 143 29 139.418 29 135V100Z" fill="#4577E1"/>
<path d="M37 93H167V91H37V93ZM174 100V135H176V100H174ZM167 142H37V144H167V142ZM30 135V100H28V135H30ZM37 142C33.134 142 30 138.866 30 135H28C28 139.971 32.0294 144 37 144V142ZM174 135C174 138.866 170.866 142 167 142V144C171.971 144 176 139.971 176 135H174ZM167 93C170.866 93 174 96.134 174 100H176C176 95.0294 171.971 91 167 91V93ZM37 91C32.0294 91 28 95.0294 28 100H30C30 96.134 33.134 93 37 93V91Z" fill="#4577E1" mask="url(#path-4-inside-2_4_4799)"/>
<path d="M56.2159 113.591C56.1307 112.871 55.785 112.312 55.179 111.915C54.5729 111.517 53.8295 111.318 52.9489 111.318C52.3049 111.318 51.7415 111.422 51.2585 111.631C50.7803 111.839 50.4063 112.125 50.1364 112.49C49.8712 112.855 49.7386 113.269 49.7386 113.733C49.7386 114.121 49.831 114.455 50.0156 114.734C50.205 115.009 50.4465 115.239 50.7401 115.423C51.0336 115.603 51.3414 115.752 51.6634 115.871C51.9853 115.984 52.2812 116.077 52.5511 116.148L54.0284 116.545C54.4072 116.645 54.8286 116.782 55.2926 116.957C55.7614 117.133 56.2088 117.372 56.6349 117.675C57.0658 117.973 57.4209 118.357 57.7003 118.825C57.9796 119.294 58.1193 119.869 58.1193 120.551C58.1193 121.337 57.9134 122.047 57.5014 122.682C57.0942 123.316 56.4976 123.821 55.7116 124.195C54.9304 124.569 53.9811 124.756 52.8636 124.756C51.822 124.756 50.92 124.588 50.1577 124.251C49.4001 123.915 48.8035 123.446 48.3679 122.845C47.937 122.244 47.6932 121.545 47.6364 120.75H49.4545C49.5019 121.299 49.6866 121.754 50.0085 122.114C50.3352 122.469 50.7472 122.734 51.2443 122.909C51.7462 123.08 52.286 123.165 52.8636 123.165C53.536 123.165 54.1397 123.056 54.6747 122.838C55.2098 122.616 55.6335 122.308 55.946 121.915C56.2585 121.517 56.4148 121.053 56.4148 120.523C56.4148 120.04 56.2798 119.647 56.0099 119.344C55.7401 119.041 55.3849 118.795 54.9446 118.605C54.5043 118.416 54.0284 118.25 53.517 118.108L51.7273 117.597C50.5909 117.27 49.6913 116.804 49.0284 116.197C48.3655 115.591 48.0341 114.798 48.0341 113.818C48.0341 113.004 48.2543 112.294 48.6946 111.688C49.1397 111.077 49.7363 110.603 50.4844 110.267C51.2372 109.926 52.0777 109.756 53.0057 109.756C53.9432 109.756 54.7765 109.924 55.5057 110.26C56.2348 110.591 56.8125 111.046 57.2386 111.624C57.6695 112.201 57.8968 112.857 57.9205 113.591H56.2159ZM65.3619 124.727C64.3107 124.727 63.404 124.495 62.6417 124.031C61.8841 123.562 61.2994 122.909 60.8874 122.071C60.4802 121.228 60.2766 120.248 60.2766 119.131C60.2766 118.013 60.4802 117.028 60.8874 116.176C61.2994 115.319 61.8723 114.652 62.6062 114.173C63.3448 113.69 64.2066 113.449 65.1914 113.449C65.7596 113.449 66.3207 113.544 66.8746 113.733C67.4286 113.922 67.9329 114.23 68.3874 114.656C68.842 115.078 69.2042 115.636 69.4741 116.332C69.744 117.028 69.8789 117.885 69.8789 118.903V119.614H61.4698V118.165H68.1744C68.1744 117.549 68.0513 117 67.805 116.517C67.5636 116.034 67.2179 115.653 66.7681 115.374C66.323 115.094 65.7975 114.955 65.1914 114.955C64.5238 114.955 63.9461 115.12 63.4585 115.452C62.9755 115.778 62.6038 116.205 62.3434 116.73C62.083 117.256 61.9528 117.819 61.9528 118.42V119.386C61.9528 120.21 62.0948 120.909 62.3789 121.482C62.6677 122.05 63.0678 122.483 63.5792 122.781C64.0906 123.075 64.6848 123.222 65.3619 123.222C65.8022 123.222 66.1999 123.16 66.555 123.037C66.9149 122.909 67.225 122.72 67.4854 122.469C67.7459 122.213 67.9471 121.896 68.0891 121.517L69.7085 121.972C69.538 122.521 69.2515 123.004 68.8491 123.42C68.4466 123.832 67.9495 124.154 67.3576 124.386C66.7657 124.614 66.1005 124.727 65.3619 124.727ZM75.6388 124.756C74.9476 124.756 74.3202 124.625 73.7567 124.365C73.1933 124.1 72.7459 123.719 72.4144 123.222C72.083 122.72 71.9173 122.114 71.9173 121.403C71.9173 120.778 72.0404 120.272 72.2866 119.884C72.5328 119.491 72.8619 119.183 73.2738 118.96C73.6857 118.738 74.1403 118.572 74.6374 118.463C75.1393 118.349 75.6436 118.259 76.1502 118.193C76.8131 118.108 77.3505 118.044 77.7624 118.001C78.1791 117.954 78.4821 117.876 78.6715 117.767C78.8656 117.658 78.9627 117.469 78.9627 117.199V117.142C78.9627 116.441 78.771 115.897 78.3874 115.509C78.0086 115.12 77.4334 114.926 76.6616 114.926C75.8614 114.926 75.234 115.101 74.7795 115.452C74.3249 115.802 74.0053 116.176 73.8207 116.574L72.2298 116.006C72.5138 115.343 72.8926 114.827 73.3661 114.457C73.8443 114.083 74.3652 113.823 74.9286 113.676C75.4968 113.525 76.0555 113.449 76.6048 113.449C76.9551 113.449 77.3576 113.491 77.8121 113.577C78.2714 113.657 78.7141 113.825 79.1403 114.081C79.5711 114.337 79.9286 114.723 80.2127 115.239C80.4968 115.755 80.6388 116.446 80.6388 117.312V124.5H78.9627V123.023H78.8775C78.7638 123.259 78.5745 123.513 78.3093 123.783C78.0442 124.053 77.6914 124.282 77.2511 124.472C76.8107 124.661 76.2733 124.756 75.6388 124.756ZM75.8945 123.25C76.5574 123.25 77.1161 123.12 77.5707 122.859C78.0299 122.599 78.3756 122.263 78.6076 121.851C78.8443 121.439 78.9627 121.006 78.9627 120.551V119.017C78.8917 119.102 78.7354 119.18 78.494 119.251C78.2572 119.318 77.9826 119.377 77.6701 119.429C77.3623 119.476 77.0617 119.519 76.7681 119.557C76.4793 119.59 76.2449 119.618 76.065 119.642C75.6294 119.699 75.2222 119.791 74.8434 119.919C74.4693 120.042 74.1663 120.229 73.9343 120.48C73.707 120.726 73.5934 121.062 73.5934 121.489C73.5934 122.071 73.8088 122.511 74.2397 122.81C74.6753 123.103 75.2269 123.25 75.8945 123.25ZM83.6982 124.5V113.591H85.3175V115.239H85.4311C85.63 114.699 85.9898 114.261 86.5107 113.925C87.0315 113.589 87.6186 113.42 88.272 113.42C88.3951 113.42 88.549 113.423 88.7337 113.428C88.9183 113.432 89.058 113.439 89.1527 113.449V115.153C89.0959 115.139 88.9657 115.118 88.7621 115.089C88.5632 115.056 88.3525 115.04 88.13 115.04C87.5997 115.04 87.1262 115.151 86.7095 115.374C86.2976 115.591 85.9709 115.894 85.7294 116.283C85.4927 116.666 85.3743 117.104 85.3743 117.597V124.5H83.6982ZM95.2393 124.727C94.2166 124.727 93.3359 124.486 92.5973 124.003C91.8587 123.52 91.2905 122.855 90.8928 122.007C90.495 121.16 90.2962 120.191 90.2962 119.102C90.2962 117.994 90.4998 117.017 90.907 116.169C91.3189 115.317 91.8918 114.652 92.6257 114.173C93.3643 113.69 94.2261 113.449 95.2109 113.449C95.978 113.449 96.6693 113.591 97.2848 113.875C97.9003 114.159 98.4046 114.557 98.7976 115.068C99.1906 115.58 99.4344 116.176 99.5291 116.858H97.853C97.7251 116.361 97.4411 115.92 97.0007 115.537C96.5651 115.149 95.978 114.955 95.2393 114.955C94.5859 114.955 94.013 115.125 93.5206 115.466C93.0329 115.802 92.6518 116.278 92.3771 116.893C92.1072 117.504 91.9723 118.222 91.9723 119.045C91.9723 119.888 92.1049 120.622 92.37 121.247C92.6399 121.872 93.0187 122.357 93.5064 122.703C93.9988 123.049 94.5765 123.222 95.2393 123.222C95.675 123.222 96.0703 123.146 96.4254 122.994C96.7805 122.843 97.0812 122.625 97.3274 122.341C97.5736 122.057 97.7488 121.716 97.853 121.318H99.5291C99.4344 121.962 99.2 122.542 98.826 123.058C98.4567 123.57 97.9666 123.977 97.3558 124.28C96.7498 124.578 96.0443 124.727 95.2393 124.727ZM103.656 117.938V124.5H101.979V109.955H103.656V115.295H103.798C104.053 114.732 104.437 114.285 104.948 113.953C105.464 113.617 106.151 113.449 107.008 113.449C107.751 113.449 108.402 113.598 108.961 113.896C109.52 114.19 109.953 114.642 110.261 115.253C110.573 115.859 110.729 116.631 110.729 117.568V124.5H109.053V117.682C109.053 116.815 108.828 116.145 108.379 115.672C107.933 115.194 107.316 114.955 106.525 114.955C105.976 114.955 105.483 115.071 105.048 115.303C104.617 115.535 104.276 115.873 104.025 116.318C103.779 116.763 103.656 117.303 103.656 117.938ZM119.421 113.591H121.097V125.295C121.097 125.968 120.981 126.55 120.749 127.043C120.522 127.535 120.176 127.916 119.712 128.186C119.253 128.456 118.673 128.591 117.972 128.591C117.915 128.591 117.858 128.591 117.801 128.591C117.745 128.591 117.688 128.591 117.631 128.591V127.028C117.688 127.028 117.74 127.028 117.787 127.028C117.835 127.028 117.887 127.028 117.944 127.028C118.455 127.028 118.829 126.877 119.066 126.574C119.302 126.276 119.421 125.849 119.421 125.295V113.591ZM120.245 111.773C119.918 111.773 119.636 111.661 119.4 111.439C119.167 111.216 119.051 110.949 119.051 110.636C119.051 110.324 119.167 110.056 119.4 109.834C119.636 109.611 119.918 109.5 120.245 109.5C120.571 109.5 120.851 109.611 121.083 109.834C121.319 110.056 121.438 110.324 121.438 110.636C121.438 110.949 121.319 111.216 121.083 111.439C120.851 111.661 120.571 111.773 120.245 111.773ZM128.599 124.727C127.614 124.727 126.75 124.493 126.006 124.024C125.268 123.555 124.69 122.9 124.273 122.057C123.862 121.214 123.656 120.229 123.656 119.102C123.656 117.966 123.862 116.974 124.273 116.126C124.69 115.279 125.268 114.621 126.006 114.152C126.75 113.683 127.614 113.449 128.599 113.449C129.584 113.449 130.445 113.683 131.184 114.152C131.927 114.621 132.505 115.279 132.917 116.126C133.334 116.974 133.542 117.966 133.542 119.102C133.542 120.229 133.334 121.214 132.917 122.057C132.505 122.9 131.927 123.555 131.184 124.024C130.445 124.493 129.584 124.727 128.599 124.727ZM128.599 123.222C129.347 123.222 129.962 123.03 130.445 122.646C130.928 122.263 131.286 121.759 131.518 121.134C131.75 120.509 131.866 119.831 131.866 119.102C131.866 118.373 131.75 117.694 131.518 117.064C131.286 116.434 130.928 115.925 130.445 115.537C129.962 115.149 129.347 114.955 128.599 114.955C127.851 114.955 127.235 115.149 126.752 115.537C126.269 115.925 125.912 116.434 125.68 117.064C125.448 117.694 125.332 118.373 125.332 119.102C125.332 119.831 125.448 120.509 125.68 121.134C125.912 121.759 126.269 122.263 126.752 122.646C127.235 123.03 127.851 123.222 128.599 123.222ZM136.328 124.5V109.955H138.004V115.324H138.146C138.269 115.134 138.44 114.893 138.657 114.599C138.88 114.301 139.197 114.036 139.609 113.804C140.026 113.567 140.589 113.449 141.299 113.449C142.218 113.449 143.028 113.679 143.728 114.138C144.429 114.597 144.976 115.248 145.369 116.091C145.762 116.934 145.958 117.928 145.958 119.074C145.958 120.229 145.762 121.231 145.369 122.078C144.976 122.921 144.431 123.574 143.735 124.038C143.039 124.498 142.237 124.727 141.328 124.727C140.627 124.727 140.066 124.611 139.645 124.379C139.223 124.143 138.899 123.875 138.672 123.577C138.444 123.274 138.269 123.023 138.146 122.824H137.947V124.5H136.328ZM137.975 119.045C137.975 119.869 138.096 120.596 138.338 121.226C138.579 121.851 138.932 122.341 139.396 122.696C139.86 123.046 140.428 123.222 141.1 123.222C141.801 123.222 142.386 123.037 142.855 122.668C143.328 122.294 143.683 121.792 143.92 121.162C144.162 120.527 144.282 119.822 144.282 119.045C144.282 118.278 144.164 117.587 143.927 116.972C143.695 116.351 143.342 115.861 142.869 115.501C142.4 115.137 141.811 114.955 141.1 114.955C140.419 114.955 139.846 115.127 139.382 115.473C138.918 115.814 138.567 116.292 138.331 116.908C138.094 117.518 137.975 118.231 137.975 119.045ZM156.25 116.034L154.744 116.46C154.649 116.209 154.51 115.965 154.325 115.729C154.145 115.487 153.899 115.288 153.586 115.132C153.274 114.976 152.874 114.898 152.386 114.898C151.718 114.898 151.162 115.052 150.717 115.359C150.277 115.662 150.056 116.048 150.056 116.517C150.056 116.934 150.208 117.263 150.511 117.504C150.814 117.746 151.288 117.947 151.931 118.108L153.551 118.506C154.526 118.742 155.253 119.105 155.731 119.592C156.209 120.075 156.449 120.698 156.449 121.46C156.449 122.085 156.269 122.644 155.909 123.136C155.554 123.629 155.056 124.017 154.417 124.301C153.778 124.585 153.035 124.727 152.187 124.727C151.074 124.727 150.154 124.486 149.424 124.003C148.695 123.52 148.234 122.814 148.039 121.886L149.63 121.489C149.782 122.076 150.068 122.516 150.49 122.81C150.916 123.103 151.472 123.25 152.159 123.25C152.94 123.25 153.56 123.084 154.02 122.753C154.484 122.417 154.716 122.014 154.716 121.545C154.716 121.167 154.583 120.849 154.318 120.594C154.053 120.333 153.645 120.139 153.096 120.011L151.278 119.585C150.279 119.348 149.545 118.982 149.076 118.484C148.612 117.982 148.38 117.355 148.38 116.602C148.38 115.987 148.553 115.442 148.899 114.969C149.249 114.495 149.725 114.124 150.326 113.854C150.932 113.584 151.619 113.449 152.386 113.449C153.466 113.449 154.313 113.686 154.929 114.159C155.549 114.633 155.989 115.258 156.25 116.034Z" fill="#F5F5F5"/>
<g clip-path="url(#clip0_4_4799)">
<path d="M172.5 125.75V131.25M172.5 147.75V153.25M162.779 129.779L166.67 133.67M178.33 145.33L182.221 149.221M158.75 139.5H164.25M180.75 139.5H186.25M162.779 149.221L166.67 145.33M178.33 133.67L182.221 129.779" stroke="#1E1E1E" stroke-width="4" stroke-linecap="round" stroke-linejoin="round"/>
</g>
<defs>
<clipPath id="clip0_4_4799">
<rect width="33" height="33" fill="white" transform="translate(156 123)"/>
</clipPath>
</defs>
</svg>
