<svg version="1.1" viewBox="0.0 0.0 960.0 540.0" fill="none" stroke="none" stroke-linecap="square" stroke-miterlimit="10" xmlns:xlink="http://www.w3.org/1999/xlink" xmlns="http://www.w3.org/2000/svg"><clipPath id="g31f7a53ae38_0_5.0"><path d="m0 0l960.0 0l0 540.0l-960.0 0l0 -540.0z" clip-rule="nonzero"/></clipPath><g clip-path="url(#g31f7a53ae38_0_5.0)"><path fill="#000000" fill-opacity="0.0" d="m0 0l960.0 0l0 540.0l-960.0 0z" fill-rule="evenodd"/><defs><linearGradient id="g31f7a53ae38_0_5.1" gradientUnits="userSpaceOnUse" gradientTransform="matrix(23.23794229253748 0.0 0.0 23.23794229253748 0.0 0.0)" spreadMethod="pad" x1="9.04367746536586" y1="-1.2855054969449222E-4" x2="9.04359363700175" y2="23.23781374183658"><stop offset="0.0" stop-color="#81adf8"/><stop offset="1.0" stop-color="#1662df"/></linearGradient></defs><path fill="url(#g31f7a53ae38_0_5.1)" d="m210.15645 169.28737l0 0c0 -93.4954 75.792984 -169.2884 169.2884 -169.2884l201.10825 0l0 0c44.89807 0 87.957214 17.835691 119.704956 49.583424c31.747742 31.747734 49.583435 74.8069 49.583435 119.70498l0 201.4232c0 93.49539 -75.79303 169.28839 -169.28839 169.28839l-201.10825 0c-93.49542 0 -169.2884 -75.793 -169.2884 -169.28839z" fill-rule="evenodd"/><path fill="#ffffff" d="m512.9753 238.50027c-13.672302 0 -25.065887 11.394394 -25.065887 24.488922l50.131744 0c0 -13.673294 -11.393555 -24.488922 -25.065857 -24.488922z" fill-rule="evenodd"/><path fill="#ffffff" d="m512.9753 200.31998c-7.4148865 0 -13.111664 5.6972046 -13.111664 13.094528c0 6.8366394 5.6967773 12.533844 13.111664 12.533844c6.8361206 0 12.532898 -5.6972046 12.532898 -12.533844c0 -7.3973236 -5.6967773 -13.094528 -12.532898 -13.094528z" fill-rule="evenodd"/><path fill="#ffffff" d="m511.8359 188.34682c13.672272 0 25.065887 11.394394 25.065887 25.067688c0 6.275955 -2.8393555 12.533844 -6.8361816 17.091599c11.393616 6.275955 18.808472 18.24913 18.808472 32.483093l0 6.8366394l1.6999512 0c0 3.4183044 -2.8393555 6.2759705 -6.2573853 6.2759705l-62.68277 0c-3.9786987 0 -6.8361206 -2.857666 -6.8361206 -6.2759705l0 -6.8366394c0 -14.233963 7.9754944 -26.207138 19.36905 -32.483093c-3.9786987 -4.5577545 -6.8361206 -10.815643 -6.8361206 -17.091599c0 -13.673294 11.393555 -25.067688 24.505219 -25.067688zm1.1393738 -25.067688c-41.59561 0 -75.77634 33.622528 -75.77634 75.781815c0 42.1593 33.620087 75.22113 75.77634 75.22113c41.016846 0 75.21564 -33.06183 75.21564 -75.22113c0 -42.159286 -34.19879 -75.781815 -75.21564 -75.781815z" fill-rule="evenodd"/><path fill="#ffffff" d="m433.20215 274.3836l-2.278717 2.2788696c-6.836151 7.4154053 -6.836151 19.38858 0 26.22522l17.669098 18.231018c3.9967957 3.418335 8.55423 5.6972046 13.672272 5.6972046c5.1361694 0 10.254242 -2.2788696 13.672302 -5.6972046l1.1393433 -2.2788696c-19.929688 -8.55484 -35.32007 -25.085785 -43.8743 -44.456238z" fill-rule="evenodd"/><path fill="#ffffff" d="m417.25116 306.86667l-38.17752 38.180298c-7.3967896 7.3973083 -7.3967896 19.370483 0 26.207123c3.4180603 3.7077026 8.264862 5.5525208 13.111633 5.5525208c4.8468018 0 9.6936035 -1.8448181 13.111664 -5.5525208l38.73816 -38.180298c-1.7180786 -0.56066895 -2.8574524 -2.2788696 -4.557434 -3.4183044l-17.669067 -18.231049c-1.7000122 -1.1394348 -2.8393555 -2.839569 -4.557434 -4.55777z" fill-rule="evenodd"/></g></svg>