<svg width="301" height="384" viewBox="0 0 301 384" fill="none" xmlns="http://www.w3.org/2000/svg">
<mask id="path-1-inside-1_21_1063" fill="white">
<path d="M0 7.99999C0 3.58171 3.58172 0 8 0H293C297.418 0 301 3.58172 301 8V376C301 380.418 297.418 384 293 384H8C3.58172 384 0 380.418 0 376V7.99999Z"/>
</mask>
<path d="M0 7.99999C0 3.58171 3.58172 0 8 0H293C297.418 0 301 3.58172 301 8V376C301 380.418 297.418 384 293 384H8C3.58172 384 0 380.418 0 376V7.99999Z" fill="white"/>
<path d="M8 1H293V-1H8V1ZM300 8V376H302V8H300ZM293 383H8V385H293V383ZM1 376V7.99999H-1V376H1ZM8 383C4.13401 383 1 379.866 1 376H-1C-1 380.971 3.02944 385 8 385V383ZM300 376C300 379.866 296.866 383 293 383V385C297.971 385 302 380.971 302 376H300ZM293 1C296.866 1 300 4.13401 300 8H302C302 3.02944 297.971 -1 293 -1V1ZM8 -1C3.02944 -1 -1 3.02943 -1 7.99999H1C1 4.134 4.13401 1 8 1V-1Z" fill="#D9D9D9" mask="url(#path-1-inside-1_21_1063)"/>
<path d="M25.233 31V20.8182H31.3381V21.9119H26.4659V25.3523H30.8807V26.446H26.4659V31H25.233ZM33.2907 31V23.3636H34.464V31H33.2907ZM33.8873 22.0909C33.6586 22.0909 33.4614 22.013 33.2956 21.8572C33.1332 21.7015 33.052 21.5142 33.052 21.2955C33.052 21.0767 33.1332 20.8894 33.2956 20.7337C33.4614 20.5779 33.6586 20.5 33.8873 20.5C34.1159 20.5 34.3115 20.5779 34.4739 20.7337C34.6396 20.8894 34.7225 21.0767 34.7225 21.2955C34.7225 21.5142 34.6396 21.7015 34.4739 21.8572C34.3115 22.013 34.1159 22.0909 33.8873 22.0909ZM37.7862 26.4062V31H36.6129V23.3636H37.7464V24.5568H37.8459C38.0249 24.169 38.2966 23.8575 38.6612 23.6222C39.0258 23.3835 39.4964 23.2642 40.0732 23.2642C40.5902 23.2642 41.0426 23.3703 41.4304 23.5824C41.8182 23.7912 42.1198 24.1094 42.3352 24.5369C42.5507 24.9612 42.6584 25.4981 42.6584 26.1477V31H41.4851V26.2273C41.4851 25.6274 41.3293 25.16 41.0178 24.8253C40.7062 24.4872 40.2786 24.3182 39.7351 24.3182C39.3606 24.3182 39.0258 24.3994 38.7308 24.5618C38.4392 24.7242 38.2088 24.9612 38.0398 25.2727C37.8707 25.5843 37.7862 25.9621 37.7862 26.4062ZM47.0495 31.179C46.5656 31.179 46.1265 31.0878 45.7321 30.9055C45.3377 30.7199 45.0244 30.4531 44.7924 30.1051C44.5604 29.7538 44.4444 29.3295 44.4444 28.8324C44.4444 28.3949 44.5306 28.0402 44.7029 27.7685C44.8753 27.4934 45.1056 27.2779 45.394 27.1222C45.6824 26.9664 46.0005 26.8504 46.3485 26.7741C46.6999 26.6946 47.0529 26.6316 47.4075 26.5852C47.8715 26.5256 48.2477 26.4808 48.536 26.451C48.8277 26.4179 49.0398 26.3632 49.1724 26.2869C49.3083 26.2107 49.3762 26.0781 49.3762 25.8892V25.8494C49.3762 25.3589 49.242 24.9777 48.9735 24.706C48.7084 24.4342 48.3057 24.2983 47.7654 24.2983C47.2053 24.2983 46.7662 24.4209 46.448 24.6662C46.1298 24.9115 45.9061 25.1733 45.7768 25.4517L44.6632 25.054C44.862 24.59 45.1272 24.2287 45.4586 23.9702C45.7934 23.7083 46.158 23.526 46.5524 23.4233C46.9501 23.3172 47.3412 23.2642 47.7257 23.2642C47.9709 23.2642 48.2527 23.294 48.5708 23.3537C48.8923 23.41 49.2022 23.5277 49.5005 23.7067C49.8021 23.8857 50.0524 24.1558 50.2512 24.517C50.4501 24.8783 50.5495 25.3622 50.5495 25.9688V31H49.3762V29.9659H49.3166C49.237 30.1316 49.1045 30.3089 48.9189 30.4979C48.7333 30.6868 48.4863 30.8475 48.1781 30.9801C47.8699 31.1127 47.4937 31.179 47.0495 31.179ZM47.2285 30.125C47.6925 30.125 48.0836 30.0339 48.4018 29.8516C48.7233 29.6693 48.9653 29.4339 49.1277 29.1456C49.2934 28.8572 49.3762 28.554 49.3762 28.2358V27.1619C49.3265 27.2216 49.2172 27.2763 49.0481 27.326C48.8824 27.3724 48.6902 27.4138 48.4714 27.4503C48.256 27.4834 48.0455 27.5133 47.84 27.5398C47.6378 27.563 47.4738 27.5829 47.3478 27.5994C47.0429 27.6392 46.7579 27.7038 46.4927 27.7933C46.2309 27.8795 46.0188 28.0104 45.8564 28.1861C45.6973 28.3584 45.6177 28.5937 45.6177 28.892C45.6177 29.2997 45.7685 29.608 46.0701 29.8168C46.3751 30.0223 46.7612 30.125 47.2285 30.125ZM53.8643 20.8182V31H52.6911V20.8182H53.8643ZM57.1866 20.8182V31H56.0133V20.8182H57.1866ZM60.0913 33.8636C59.8924 33.8636 59.7151 33.8471 59.5593 33.8139C59.4035 33.7841 59.2958 33.7543 59.2362 33.7244L59.5344 32.6903C59.8195 32.7633 60.0714 32.7898 60.2901 32.7699C60.5089 32.75 60.7028 32.6522 60.8718 32.4766C61.0442 32.3042 61.2016 32.0241 61.3441 31.6364L61.5629 31.0398L58.739 23.3636H60.0117L62.1197 29.4489H62.1992L64.3072 23.3636H65.5799L62.3384 32.1136C62.1926 32.508 62.012 32.8345 61.7965 33.093C61.5811 33.3549 61.3308 33.5488 61.0458 33.6747C60.7641 33.8007 60.4459 33.8636 60.0913 33.8636Z" fill="#757575"/>
<path d="M24.3523 41.3636H26.733L29.5795 46.5114H29.6932L32.5398 41.3636H34.9205L30.6875 48.6591V53H28.5852V48.6591L24.3523 41.3636ZM38.5043 53.1705C37.652 53.1705 36.9134 52.983 36.2884 52.608C35.6634 52.233 35.1785 51.7083 34.8338 51.0341C34.4929 50.3598 34.3224 49.572 34.3224 48.6705C34.3224 47.7689 34.4929 46.9792 34.8338 46.3011C35.1785 45.6231 35.6634 45.0966 36.2884 44.7216C36.9134 44.3466 37.652 44.1591 38.5043 44.1591C39.3565 44.1591 40.0952 44.3466 40.7202 44.7216C41.3452 45.0966 41.8281 45.6231 42.169 46.3011C42.5137 46.9792 42.6861 47.7689 42.6861 48.6705C42.6861 49.572 42.5137 50.3598 42.169 51.0341C41.8281 51.7083 41.3452 52.233 40.7202 52.608C40.0952 52.983 39.3565 53.1705 38.5043 53.1705ZM38.5156 51.5227C38.9777 51.5227 39.3641 51.3958 39.6747 51.142C39.9853 50.8845 40.2164 50.5398 40.3679 50.108C40.5232 49.6761 40.6009 49.1951 40.6009 48.6648C40.6009 48.1307 40.5232 47.6477 40.3679 47.2159C40.2164 46.7803 39.9853 46.4337 39.6747 46.1761C39.3641 45.9186 38.9777 45.7898 38.5156 45.7898C38.0421 45.7898 37.6482 45.9186 37.3338 46.1761C37.0232 46.4337 36.7902 46.7803 36.6349 47.2159C36.4834 47.6477 36.4077 48.1307 36.4077 48.6648C36.4077 49.1951 36.4834 49.6761 36.6349 50.108C36.7902 50.5398 37.0232 50.8845 37.3338 51.142C37.6482 51.3958 38.0421 51.5227 38.5156 51.5227ZM49.9943 49.3295V44.2727H52.0511V53H50.0568V51.4489H49.9659C49.7689 51.9375 49.4451 52.3371 48.9943 52.6477C48.5473 52.9583 47.9962 53.1136 47.3409 53.1136C46.7689 53.1136 46.2633 52.9867 45.8239 52.733C45.3883 52.4754 45.0473 52.1023 44.8011 51.6136C44.5549 51.1212 44.4318 50.5265 44.4318 49.8295V44.2727H46.4886V49.5114C46.4886 50.0644 46.6402 50.5038 46.9432 50.8295C47.2462 51.1553 47.6439 51.3182 48.1364 51.3182C48.4394 51.3182 48.733 51.2443 49.017 51.0966C49.3011 50.9489 49.5341 50.7292 49.7159 50.4375C49.9015 50.142 49.9943 49.7727 49.9943 49.3295ZM54.1662 53V44.2727H56.1605V45.7273H56.2514C56.4105 45.2235 56.6832 44.8352 57.0696 44.5625C57.4598 44.286 57.9048 44.1477 58.4048 44.1477C58.5185 44.1477 58.6454 44.1534 58.7855 44.1648C58.9295 44.1723 59.0488 44.1856 59.1435 44.2045V46.0966C59.0563 46.0663 58.9181 46.0398 58.7287 46.017C58.5431 45.9905 58.3632 45.9773 58.1889 45.9773C57.8139 45.9773 57.4768 46.0587 57.1776 46.2216C56.8821 46.3807 56.6491 46.6023 56.4787 46.8864C56.3082 47.1705 56.223 47.4981 56.223 47.8693V53H54.1662ZM68.2855 53.1705C67.4332 53.1705 66.6946 52.983 66.0696 52.608C65.4446 52.233 64.9598 51.7083 64.6151 51.0341C64.2741 50.3598 64.1037 49.572 64.1037 48.6705C64.1037 47.7689 64.2741 46.9792 64.6151 46.3011C64.9598 45.6231 65.4446 45.0966 66.0696 44.7216C66.6946 44.3466 67.4332 44.1591 68.2855 44.1591C69.1378 44.1591 69.8764 44.3466 70.5014 44.7216C71.1264 45.0966 71.6094 45.6231 71.9503 46.3011C72.295 46.9792 72.4673 47.7689 72.4673 48.6705C72.4673 49.572 72.295 50.3598 71.9503 51.0341C71.6094 51.7083 71.1264 52.233 70.5014 52.608C69.8764 52.983 69.1378 53.1705 68.2855 53.1705ZM68.2969 51.5227C68.759 51.5227 69.1454 51.3958 69.456 51.142C69.7666 50.8845 69.9976 50.5398 70.1491 50.108C70.3045 49.6761 70.3821 49.1951 70.3821 48.6648C70.3821 48.1307 70.3045 47.6477 70.1491 47.2159C69.9976 46.7803 69.7666 46.4337 69.456 46.1761C69.1454 45.9186 68.759 45.7898 68.2969 45.7898C67.8234 45.7898 67.4295 45.9186 67.1151 46.1761C66.8045 46.4337 66.5715 46.7803 66.4162 47.2159C66.2647 47.6477 66.1889 48.1307 66.1889 48.6648C66.1889 49.1951 66.2647 49.6761 66.4162 50.108C66.5715 50.5398 66.8045 50.8845 67.1151 51.142C67.4295 51.3958 67.8234 51.5227 68.2969 51.5227ZM78.6335 44.2727V45.8636H73.4744V44.2727H78.6335ZM74.7642 53V43.4489C74.7642 42.8617 74.8854 42.3731 75.1278 41.983C75.3741 41.5928 75.7036 41.3011 76.1165 41.108C76.5294 40.9148 76.9877 40.8182 77.4915 40.8182C77.8475 40.8182 78.1638 40.8466 78.4403 40.9034C78.7169 40.9602 78.9214 41.0114 79.054 41.0568L78.6449 42.6477C78.5578 42.6212 78.4479 42.5947 78.3153 42.5682C78.1828 42.5379 78.035 42.5227 77.8722 42.5227C77.4896 42.5227 77.2188 42.6155 77.0597 42.8011C76.9044 42.983 76.8267 43.2443 76.8267 43.5852V53H74.7642ZM84.6648 44.2727V45.8636H79.5057V44.2727H84.6648ZM80.7955 53V43.4489C80.7955 42.8617 80.9167 42.3731 81.1591 41.983C81.4053 41.5928 81.7348 41.3011 82.1477 41.108C82.5606 40.9148 83.0189 40.8182 83.5227 40.8182C83.8788 40.8182 84.1951 40.8466 84.4716 40.9034C84.7481 40.9602 84.9527 41.0114 85.0852 41.0568L84.6761 42.6477C84.589 42.6212 84.4792 42.5947 84.3466 42.5682C84.214 42.5379 84.0663 42.5227 83.9034 42.5227C83.5208 42.5227 83.25 42.6155 83.0909 42.8011C82.9356 42.983 82.858 43.2443 82.858 43.5852V53H80.7955ZM89.8111 53.1705C88.9361 53.1705 88.1804 52.9886 87.544 52.625C86.9115 52.2576 86.4247 51.7386 86.0838 51.0682C85.7429 50.3939 85.5724 49.6004 85.5724 48.6875C85.5724 47.7898 85.7429 47.0019 86.0838 46.3239C86.4285 45.642 86.9096 45.1117 87.527 44.733C88.1444 44.3504 88.8698 44.1591 89.7031 44.1591C90.241 44.1591 90.7486 44.2462 91.2259 44.4205C91.7069 44.5909 92.1312 44.8561 92.4986 45.2159C92.8698 45.5758 93.1615 46.0341 93.3736 46.5909C93.5857 47.1439 93.6918 47.803 93.6918 48.5682V49.1989H86.5384V47.8125H91.7202C91.7164 47.4186 91.6312 47.0682 91.4645 46.7614C91.2978 46.4508 91.0649 46.2064 90.7656 46.0284C90.4702 45.8504 90.1255 45.7614 89.7315 45.7614C89.3111 45.7614 88.9418 45.8636 88.6236 46.0682C88.3054 46.2689 88.0573 46.5341 87.8793 46.8636C87.705 47.1894 87.616 47.5473 87.6122 47.9375V49.1477C87.6122 49.6553 87.705 50.0909 87.8906 50.4545C88.0762 50.8144 88.3357 51.0909 88.669 51.2841C89.0024 51.4735 89.3925 51.5682 89.8395 51.5682C90.1387 51.5682 90.4096 51.5265 90.652 51.4432C90.8944 51.3561 91.1046 51.2292 91.2827 51.0625C91.4607 50.8958 91.5952 50.6894 91.6861 50.4432L93.6065 50.6591C93.4853 51.1667 93.2543 51.6098 92.9134 51.9886C92.5762 52.3636 92.1444 52.6553 91.6179 52.8636C91.0914 53.0682 90.4891 53.1705 89.8111 53.1705ZM95.4318 53V44.2727H97.4261V45.7273H97.517C97.6761 45.2235 97.9489 44.8352 98.3352 44.5625C98.7254 44.286 99.1705 44.1477 99.6705 44.1477C99.7841 44.1477 99.911 44.1534 100.051 44.1648C100.195 44.1723 100.314 44.1856 100.409 44.2045V46.0966C100.322 46.0663 100.184 46.0398 99.9943 46.017C99.8087 45.9905 99.6288 45.9773 99.4545 45.9773C99.0795 45.9773 98.7424 46.0587 98.4432 46.2216C98.1477 46.3807 97.9148 46.6023 97.7443 46.8864C97.5739 47.1705 97.4886 47.4981 97.4886 47.8693V53H95.4318ZM108.673 46.5795L106.798 46.7841C106.745 46.5947 106.652 46.4167 106.52 46.25C106.391 46.0833 106.217 45.9489 105.997 45.8466C105.777 45.7443 105.509 45.6932 105.19 45.6932C104.762 45.6932 104.402 45.786 104.111 45.9716C103.823 46.1572 103.681 46.3977 103.685 46.6932C103.681 46.947 103.774 47.1534 103.963 47.3125C104.156 47.4716 104.474 47.6023 104.918 47.7045L106.406 48.0227C107.232 48.2008 107.846 48.483 108.247 48.8693C108.652 49.2557 108.857 49.7614 108.861 50.3864C108.857 50.9356 108.696 51.4205 108.378 51.8409C108.063 52.2576 107.626 52.5833 107.065 52.8182C106.505 53.053 105.861 53.1705 105.134 53.1705C104.065 53.1705 103.205 52.947 102.554 52.5C101.902 52.0492 101.514 51.4223 101.389 50.6193L103.395 50.4261C103.486 50.8201 103.679 51.1174 103.974 51.3182C104.27 51.5189 104.654 51.6193 105.128 51.6193C105.616 51.6193 106.009 51.5189 106.304 51.3182C106.603 51.1174 106.753 50.8693 106.753 50.5739C106.753 50.3239 106.656 50.1174 106.463 49.9545C106.274 49.7917 105.978 49.6667 105.577 49.5795L104.088 49.267C103.251 49.0928 102.632 48.7992 102.23 48.3864C101.829 47.9697 101.63 47.4432 101.634 46.8068C101.63 46.2689 101.776 45.803 102.071 45.4091C102.37 45.0114 102.785 44.7045 103.315 44.4886C103.849 44.2689 104.465 44.1591 105.162 44.1591C106.185 44.1591 106.99 44.3769 107.577 44.8125C108.168 45.2481 108.533 45.8371 108.673 46.5795Z" fill="#1E1E1E"/>
<rect x="24" y="70" width="253" height="1" fill="#D9D9D9"/>
<g clip-path="url(#clip0_21_1063)">
<path d="M40.6666 108.5V106.833C40.6666 105.949 40.3155 105.101 39.6903 104.476C39.0652 103.851 38.2174 103.5 37.3333 103.5H30.6666C29.7826 103.5 28.9347 103.851 28.3096 104.476C27.6845 105.101 27.3333 105.949 27.3333 106.833V108.5M37.3333 96.8333C37.3333 98.6743 35.8409 100.167 34 100.167C32.159 100.167 30.6666 98.6743 30.6666 96.8333C30.6666 94.9924 32.159 93.5 34 93.5C35.8409 93.5 37.3333 94.9924 37.3333 96.8333Z" stroke="#4577E1" stroke-width="2" stroke-linecap="round" stroke-linejoin="round"/>
<path d="M57.8864 108H56.4091L60.6818 96.3636H62.1364L66.4091 108H64.9318L61.4545 98.2045H61.3636L57.8864 108ZM58.4318 103.455H64.3864V104.705H58.4318V103.455ZM68.0398 111.273V99.2727H69.3352V100.659H69.4943C69.5928 100.508 69.7292 100.314 69.9034 100.08C70.0814 99.8409 70.3352 99.6288 70.6648 99.4432C70.9981 99.2538 71.4489 99.1591 72.017 99.1591C72.7519 99.1591 73.3996 99.3428 73.9602 99.7102C74.5208 100.078 74.9583 100.598 75.2727 101.273C75.5871 101.947 75.7443 102.742 75.7443 103.659C75.7443 104.583 75.5871 105.384 75.2727 106.062C74.9583 106.737 74.5227 107.259 73.9659 107.631C73.4091 107.998 72.767 108.182 72.0398 108.182C71.4792 108.182 71.0303 108.089 70.6932 107.903C70.3561 107.714 70.0966 107.5 69.9148 107.261C69.733 107.019 69.5928 106.818 69.4943 106.659H69.3807V111.273H68.0398ZM69.358 103.636C69.358 104.295 69.4545 104.877 69.6477 105.381C69.8409 105.881 70.1231 106.273 70.4943 106.557C70.8655 106.837 71.3201 106.977 71.858 106.977C72.4186 106.977 72.8864 106.83 73.2614 106.534C73.6402 106.235 73.9242 105.833 74.1136 105.33C74.3068 104.822 74.4034 104.258 74.4034 103.636C74.4034 103.023 74.3087 102.47 74.1193 101.977C73.9337 101.481 73.6515 101.089 73.2727 100.801C72.8977 100.509 72.4261 100.364 71.858 100.364C71.3125 100.364 70.8542 100.502 70.483 100.778C70.1117 101.051 69.8314 101.434 69.642 101.926C69.4527 102.415 69.358 102.985 69.358 103.636ZM77.7898 111.273V99.2727H79.0852V100.659H79.2443C79.3428 100.508 79.4792 100.314 79.6534 100.08C79.8314 99.8409 80.0852 99.6288 80.4148 99.4432C80.7481 99.2538 81.1989 99.1591 81.767 99.1591C82.5019 99.1591 83.1496 99.3428 83.7102 99.7102C84.2708 100.078 84.7083 100.598 85.0227 101.273C85.3371 101.947 85.4943 102.742 85.4943 103.659C85.4943 104.583 85.3371 105.384 85.0227 106.062C84.7083 106.737 84.2727 107.259 83.7159 107.631C83.1591 107.998 82.517 108.182 81.7898 108.182C81.2292 108.182 80.7803 108.089 80.4432 107.903C80.1061 107.714 79.8466 107.5 79.6648 107.261C79.483 107.019 79.3428 106.818 79.2443 106.659H79.1307V111.273H77.7898ZM79.108 103.636C79.108 104.295 79.2045 104.877 79.3977 105.381C79.5909 105.881 79.8731 106.273 80.2443 106.557C80.6155 106.837 81.0701 106.977 81.608 106.977C82.1686 106.977 82.6364 106.83 83.0114 106.534C83.3902 106.235 83.6742 105.833 83.8636 105.33C84.0568 104.822 84.1534 104.258 84.1534 103.636C84.1534 103.023 84.0587 102.47 83.8693 101.977C83.6837 101.481 83.4015 101.089 83.0227 100.801C82.6477 100.509 82.1761 100.364 81.608 100.364C81.0625 100.364 80.6042 100.502 80.233 100.778C79.8617 101.051 79.5814 101.434 79.392 101.926C79.2027 102.415 79.108 102.985 79.108 103.636ZM88.8807 96.3636V108H87.5398V96.3636H88.8807ZM94.9957 108.182C94.1548 108.182 93.4295 107.996 92.8196 107.625C92.2135 107.25 91.7457 106.727 91.4162 106.057C91.0904 105.383 90.9276 104.598 90.9276 103.705C90.9276 102.811 91.0904 102.023 91.4162 101.341C91.7457 100.655 92.2041 100.121 92.7912 99.7386C93.3821 99.3523 94.0715 99.1591 94.8594 99.1591C95.3139 99.1591 95.7628 99.2348 96.206 99.3864C96.6491 99.5379 97.0526 99.7841 97.4162 100.125C97.7798 100.462 98.0696 100.909 98.2855 101.466C98.5014 102.023 98.6094 102.708 98.6094 103.523V104.091H91.8821V102.932H97.2457C97.2457 102.439 97.1473 102 96.9503 101.614C96.7571 101.227 96.4806 100.922 96.1207 100.699C95.7647 100.475 95.3442 100.364 94.8594 100.364C94.3253 100.364 93.8632 100.496 93.473 100.761C93.0866 101.023 92.7893 101.364 92.581 101.784C92.3726 102.205 92.2685 102.655 92.2685 103.136V103.909C92.2685 104.568 92.3821 105.127 92.6094 105.585C92.8404 106.04 93.1605 106.386 93.5696 106.625C93.9787 106.86 94.4541 106.977 94.9957 106.977C95.348 106.977 95.6662 106.928 95.9503 106.83C96.2382 106.727 96.4863 106.576 96.6946 106.375C96.9029 106.17 97.0639 105.917 97.1776 105.614L98.473 105.977C98.3366 106.417 98.1075 106.803 97.7855 107.136C97.4635 107.466 97.0658 107.723 96.5923 107.909C96.1188 108.091 95.5866 108.182 94.9957 108.182Z" fill="#1E1E1E"/>
<path d="M263.727 102.75L264.591 101.864L267.591 104.818L273.795 98.6364L274.682 99.5227L267.591 106.591L263.727 102.75Z" fill="#1E1E1E"/>
<path d="M62.8011 124.364C62.7415 123.86 62.4995 123.469 62.0753 123.19C61.651 122.912 61.1307 122.773 60.5142 122.773C60.0634 122.773 59.669 122.846 59.331 122.991C58.9962 123.137 58.7344 123.338 58.5455 123.593C58.3598 123.848 58.267 124.138 58.267 124.463C58.267 124.735 58.3317 124.969 58.4609 125.164C58.5935 125.356 58.7625 125.517 58.968 125.646C59.1735 125.772 59.389 125.877 59.6143 125.96C59.8397 126.039 60.0469 126.104 60.2358 126.153L61.2699 126.432C61.535 126.501 61.83 126.598 62.1548 126.72C62.483 126.843 62.7962 127.01 63.0945 127.222C63.3961 127.431 63.6446 127.7 63.8402 128.028C64.0357 128.356 64.1335 128.759 64.1335 129.236C64.1335 129.786 63.9893 130.283 63.701 130.727C63.416 131.171 62.9983 131.524 62.4482 131.786C61.9013 132.048 61.2367 132.179 60.4545 132.179C59.7254 132.179 59.094 132.061 58.5604 131.826C58.0301 131.591 57.6125 131.263 57.3075 130.842C57.0059 130.421 56.8352 129.932 56.7955 129.375H58.0682C58.1013 129.759 58.2306 130.078 58.456 130.33C58.6847 130.578 58.973 130.764 59.321 130.886C59.6723 131.006 60.0502 131.065 60.4545 131.065C60.9252 131.065 61.3478 130.989 61.7223 130.837C62.0968 130.681 62.3935 130.465 62.6122 130.19C62.831 129.912 62.9403 129.587 62.9403 129.216C62.9403 128.878 62.8459 128.603 62.657 128.391C62.468 128.179 62.2195 128.006 61.9112 127.874C61.603 127.741 61.2699 127.625 60.9119 127.526L59.6591 127.168C58.8636 126.939 58.2339 126.612 57.7699 126.188C57.3059 125.764 57.0739 125.209 57.0739 124.523C57.0739 123.953 57.228 123.455 57.5362 123.031C57.8478 122.604 58.2654 122.272 58.7891 122.037C59.3161 121.798 59.9044 121.679 60.554 121.679C61.2102 121.679 61.7936 121.797 62.304 122.032C62.8144 122.264 63.2188 122.582 63.517 122.987C63.8187 123.391 63.9777 123.85 63.9943 124.364H62.8011ZM69.2033 132.159C68.4675 132.159 67.8328 131.997 67.2992 131.672C66.7689 131.344 66.3596 130.886 66.0712 130.3C65.7862 129.71 65.6436 129.024 65.6436 128.241C65.6436 127.459 65.7862 126.77 66.0712 126.173C66.3596 125.573 66.7606 125.106 67.2743 124.771C67.7914 124.433 68.3946 124.264 69.084 124.264C69.4817 124.264 69.8745 124.33 70.2623 124.463C70.65 124.596 71.003 124.811 71.3212 125.109C71.6394 125.404 71.8929 125.795 72.0819 126.283C72.2708 126.77 72.3652 127.37 72.3652 128.082V128.58H66.4789V127.565H71.1721C71.1721 127.134 71.0859 126.75 70.9135 126.412C70.7445 126.074 70.5025 125.807 70.1877 125.612C69.8761 125.416 69.5082 125.318 69.084 125.318C68.6167 125.318 68.2123 125.434 67.8709 125.666C67.5328 125.895 67.2727 126.193 67.0904 126.561C66.9081 126.929 66.8169 127.323 66.8169 127.744V128.42C66.8169 128.997 66.9164 129.486 67.1152 129.887C67.3174 130.285 67.5975 130.588 67.9554 130.797C68.3134 131.002 68.7293 131.105 69.2033 131.105C69.5115 131.105 69.79 131.062 70.0385 130.976C70.2904 130.886 70.5075 130.754 70.6898 130.578C70.8721 130.399 71.013 130.177 71.1124 129.912L72.2459 130.23C72.1266 130.615 71.9261 130.953 71.6444 131.244C71.3626 131.533 71.0146 131.758 70.6003 131.92C70.186 132.08 69.7203 132.159 69.2033 132.159ZM75.3233 127.406V132H74.15V124.364H75.2836V125.557H75.383C75.562 125.169 75.8337 124.857 76.1983 124.622C76.5629 124.384 77.0336 124.264 77.6103 124.264C78.1273 124.264 78.5797 124.37 78.9675 124.582C79.3553 124.791 79.6569 125.109 79.8723 125.537C80.0878 125.961 80.1955 126.498 80.1955 127.148V132H79.0222V127.227C79.0222 126.627 78.8664 126.16 78.5549 125.825C78.2433 125.487 77.8158 125.318 77.2722 125.318C76.8977 125.318 76.5629 125.399 76.2679 125.562C75.9763 125.724 75.7459 125.961 75.5769 126.273C75.4078 126.584 75.3233 126.962 75.3233 127.406ZM82.3395 132V124.364H83.5128V132H82.3395ZM82.9361 123.091C82.7074 123.091 82.5102 123.013 82.3445 122.857C82.1821 122.701 82.1009 122.514 82.1009 122.295C82.1009 122.077 82.1821 121.889 82.3445 121.734C82.5102 121.578 82.7074 121.5 82.9361 121.5C83.1648 121.5 83.3603 121.578 83.5227 121.734C83.6884 121.889 83.7713 122.077 83.7713 122.295C83.7713 122.514 83.6884 122.701 83.5227 122.857C83.3603 123.013 83.1648 123.091 82.9361 123.091ZM88.764 132.159C88.0746 132.159 87.4698 131.995 86.9494 131.667C86.4324 131.339 86.028 130.88 85.7363 130.29C85.448 129.7 85.3038 129.01 85.3038 128.222C85.3038 127.426 85.448 126.732 85.7363 126.138C86.028 125.545 86.4324 125.085 86.9494 124.756C87.4698 124.428 88.0746 124.264 88.764 124.264C89.4534 124.264 90.0566 124.428 90.5737 124.756C91.094 125.085 91.4984 125.545 91.7868 126.138C92.0784 126.732 92.2243 127.426 92.2243 128.222C92.2243 129.01 92.0784 129.7 91.7868 130.29C91.4984 130.88 91.094 131.339 90.5737 131.667C90.0566 131.995 89.4534 132.159 88.764 132.159ZM88.764 131.105C89.2877 131.105 89.7186 130.971 90.0566 130.702C90.3947 130.434 90.6449 130.081 90.8074 129.643C90.9698 129.206 91.051 128.732 91.051 128.222C91.051 127.711 90.9698 127.236 90.8074 126.795C90.6449 126.354 90.3947 125.998 90.0566 125.726C89.7186 125.454 89.2877 125.318 88.764 125.318C88.2404 125.318 87.8095 125.454 87.4714 125.726C87.1333 125.998 86.8831 126.354 86.7207 126.795C86.5583 127.236 86.4771 127.711 86.4771 128.222C86.4771 128.732 86.5583 129.206 86.7207 129.643C86.8831 130.081 87.1333 130.434 87.4714 130.702C87.8095 130.971 88.2404 131.105 88.764 131.105ZM94.0153 132V124.364H95.1488V125.517H95.2283C95.3675 125.139 95.6194 124.833 95.984 124.597C96.3486 124.362 96.7596 124.244 97.217 124.244C97.3031 124.244 97.4109 124.246 97.5401 124.249C97.6694 124.253 97.7672 124.258 97.8335 124.264V125.457C97.7937 125.447 97.7025 125.433 97.56 125.413C97.4208 125.389 97.2733 125.378 97.1175 125.378C96.7463 125.378 96.4149 125.456 96.1232 125.612C95.8349 125.764 95.6062 125.976 95.4371 126.248C95.2714 126.516 95.1886 126.823 95.1886 127.168V132H94.0153ZM106.045 132.159C105.409 132.159 104.847 131.998 104.36 131.677C103.873 131.352 103.492 130.895 103.216 130.305C102.941 129.711 102.804 129.01 102.804 128.202C102.804 127.4 102.941 126.704 103.216 126.114C103.492 125.524 103.874 125.068 104.365 124.746C104.855 124.425 105.422 124.264 106.065 124.264C106.562 124.264 106.955 124.347 107.243 124.513C107.535 124.675 107.757 124.861 107.91 125.07C108.065 125.275 108.186 125.444 108.273 125.577H108.372V121.818H109.545V132H108.412V130.827H108.273C108.186 130.966 108.064 131.142 107.905 131.354C107.746 131.562 107.519 131.75 107.224 131.915C106.929 132.078 106.536 132.159 106.045 132.159ZM106.204 131.105C106.675 131.105 107.073 130.982 107.398 130.737C107.722 130.489 107.969 130.146 108.138 129.708C108.307 129.267 108.392 128.759 108.392 128.182C108.392 127.612 108.309 127.113 108.143 126.685C107.978 126.254 107.732 125.92 107.407 125.681C107.083 125.439 106.682 125.318 106.204 125.318C105.707 125.318 105.293 125.446 104.961 125.701C104.633 125.953 104.386 126.296 104.221 126.73C104.058 127.161 103.977 127.645 103.977 128.182C103.977 128.725 104.06 129.219 104.226 129.663C104.395 130.104 104.643 130.455 104.971 130.717C105.303 130.976 105.714 131.105 106.204 131.105ZM115.059 132.159C114.323 132.159 113.688 131.997 113.155 131.672C112.624 131.344 112.215 130.886 111.927 130.3C111.642 129.71 111.499 129.024 111.499 128.241C111.499 127.459 111.642 126.77 111.927 126.173C112.215 125.573 112.616 125.106 113.13 124.771C113.647 124.433 114.25 124.264 114.939 124.264C115.337 124.264 115.73 124.33 116.118 124.463C116.506 124.596 116.858 124.811 117.177 125.109C117.495 125.404 117.748 125.795 117.937 126.283C118.126 126.77 118.221 127.37 118.221 128.082V128.58H112.334V127.565H117.028C117.028 127.134 116.941 126.75 116.769 126.412C116.6 126.074 116.358 125.807 116.043 125.612C115.732 125.416 115.364 125.318 114.939 125.318C114.472 125.318 114.068 125.434 113.726 125.666C113.388 125.895 113.128 126.193 112.946 126.561C112.764 126.929 112.672 127.323 112.672 127.744V128.42C112.672 128.997 112.772 129.486 112.971 129.887C113.173 130.285 113.453 130.588 113.811 130.797C114.169 131.002 114.585 131.105 115.059 131.105C115.367 131.105 115.645 131.062 115.894 130.976C116.146 130.886 116.363 130.754 116.545 130.578C116.728 130.399 116.868 130.177 116.968 129.912L118.101 130.23C117.982 130.615 117.782 130.953 117.5 131.244C117.218 131.533 116.87 131.758 116.456 131.92C116.041 132.08 115.576 132.159 115.059 132.159ZM126.017 124.364L123.194 132H122L119.176 124.364H120.449L122.557 130.449H122.637L124.745 124.364H126.017ZM130.494 132.159C129.759 132.159 129.124 131.997 128.59 131.672C128.06 131.344 127.651 130.886 127.362 130.3C127.077 129.71 126.935 129.024 126.935 128.241C126.935 127.459 127.077 126.77 127.362 126.173C127.651 125.573 128.052 125.106 128.565 124.771C129.082 124.433 129.686 124.264 130.375 124.264C130.773 124.264 131.165 124.33 131.553 124.463C131.941 124.596 132.294 124.811 132.612 125.109C132.93 125.404 133.184 125.795 133.373 126.283C133.562 126.77 133.656 127.37 133.656 128.082V128.58H127.77V127.565H132.463C132.463 127.134 132.377 126.75 132.205 126.412C132.036 126.074 131.794 125.807 131.479 125.612C131.167 125.416 130.799 125.318 130.375 125.318C129.908 125.318 129.503 125.434 129.162 125.666C128.824 125.895 128.564 126.193 128.381 126.561C128.199 126.929 128.108 127.323 128.108 127.744V128.42C128.108 128.997 128.207 129.486 128.406 129.887C128.608 130.285 128.888 130.588 129.246 130.797C129.604 131.002 130.02 131.105 130.494 131.105C130.803 131.105 131.081 131.062 131.33 130.976C131.581 130.886 131.799 130.754 131.981 130.578C132.163 130.399 132.304 130.177 132.403 129.912L133.537 130.23C133.418 130.615 133.217 130.953 132.935 131.244C132.654 131.533 132.306 131.758 131.891 131.92C131.477 132.08 131.011 132.159 130.494 132.159ZM136.614 121.818V132H135.441V121.818H136.614ZM141.866 132.159C141.176 132.159 140.571 131.995 140.051 131.667C139.534 131.339 139.13 130.88 138.838 130.29C138.55 129.7 138.405 129.01 138.405 128.222C138.405 127.426 138.55 126.732 138.838 126.138C139.13 125.545 139.534 125.085 140.051 124.756C140.571 124.428 141.176 124.264 141.866 124.264C142.555 124.264 143.158 124.428 143.675 124.756C144.196 125.085 144.6 125.545 144.888 126.138C145.18 126.732 145.326 127.426 145.326 128.222C145.326 129.01 145.18 129.7 144.888 130.29C144.6 130.88 144.196 131.339 143.675 131.667C143.158 131.995 142.555 132.159 141.866 132.159ZM141.866 131.105C142.389 131.105 142.82 130.971 143.158 130.702C143.496 130.434 143.747 130.081 143.909 129.643C144.071 129.206 144.153 128.732 144.153 128.222C144.153 127.711 144.071 127.236 143.909 126.795C143.747 126.354 143.496 125.998 143.158 125.726C142.82 125.454 142.389 125.318 141.866 125.318C141.342 125.318 140.911 125.454 140.573 125.726C140.235 125.998 139.985 126.354 139.822 126.795C139.66 127.236 139.579 127.711 139.579 128.222C139.579 128.732 139.66 129.206 139.822 129.643C139.985 130.081 140.235 130.434 140.573 130.702C140.911 130.971 141.342 131.105 141.866 131.105ZM147.117 134.864V124.364H148.25V125.577H148.39C148.476 125.444 148.595 125.275 148.748 125.07C148.903 124.861 149.125 124.675 149.414 124.513C149.705 124.347 150.1 124.264 150.597 124.264C151.24 124.264 151.807 124.425 152.297 124.746C152.788 125.068 153.171 125.524 153.446 126.114C153.721 126.704 153.858 127.4 153.858 128.202C153.858 129.01 153.721 129.711 153.446 130.305C153.171 130.895 152.789 131.352 152.302 131.677C151.815 131.998 151.253 132.159 150.617 132.159C150.126 132.159 149.734 132.078 149.439 131.915C149.144 131.75 148.917 131.562 148.757 131.354C148.598 131.142 148.476 130.966 148.39 130.827H148.29V134.864H147.117ZM148.27 128.182C148.27 128.759 148.355 129.267 148.524 129.708C148.693 130.146 148.94 130.489 149.265 130.737C149.589 130.982 149.987 131.105 150.458 131.105C150.948 131.105 151.358 130.976 151.686 130.717C152.017 130.455 152.266 130.104 152.431 129.663C152.6 129.219 152.685 128.725 152.685 128.182C152.685 127.645 152.602 127.161 152.436 126.73C152.274 126.296 152.027 125.953 151.696 125.701C151.368 125.446 150.955 125.318 150.458 125.318C149.98 125.318 149.579 125.439 149.255 125.681C148.93 125.92 148.685 126.254 148.519 126.685C148.353 127.113 148.27 127.612 148.27 128.182ZM158.85 132.159C158.114 132.159 157.479 131.997 156.946 131.672C156.415 131.344 156.006 130.886 155.718 130.3C155.433 129.71 155.29 129.024 155.29 128.241C155.29 127.459 155.433 126.77 155.718 126.173C156.006 125.573 156.407 125.106 156.921 124.771C157.438 124.433 158.041 124.264 158.73 124.264C159.128 124.264 159.521 124.33 159.909 124.463C160.297 124.596 160.65 124.811 160.968 125.109C161.286 125.404 161.539 125.795 161.728 126.283C161.917 126.77 162.012 127.37 162.012 128.082V128.58H156.125V127.565H160.819C160.819 127.134 160.732 126.75 160.56 126.412C160.391 126.074 160.149 125.807 159.834 125.612C159.523 125.416 159.155 125.318 158.73 125.318C158.263 125.318 157.859 125.434 157.517 125.666C157.179 125.895 156.919 126.193 156.737 126.561C156.555 126.929 156.463 127.323 156.463 127.744V128.42C156.463 128.997 156.563 129.486 156.762 129.887C156.964 130.285 157.244 130.588 157.602 130.797C157.96 131.002 158.376 131.105 158.85 131.105C159.158 131.105 159.436 131.062 159.685 130.976C159.937 130.886 160.154 130.754 160.336 130.578C160.519 130.399 160.659 130.177 160.759 129.912L161.892 130.23C161.773 130.615 161.573 130.953 161.291 131.244C161.009 131.533 160.661 131.758 160.247 131.92C159.833 132.08 159.367 132.159 158.85 132.159ZM163.797 132V124.364H164.93V125.517H165.01C165.149 125.139 165.401 124.833 165.765 124.597C166.13 124.362 166.541 124.244 166.998 124.244C167.084 124.244 167.192 124.246 167.321 124.249C167.451 124.253 167.548 124.258 167.615 124.264V125.457C167.575 125.447 167.484 125.433 167.341 125.413C167.202 125.389 167.055 125.378 166.899 125.378C166.528 125.378 166.196 125.456 165.904 125.612C165.616 125.764 165.387 125.976 165.218 126.248C165.053 126.516 164.97 126.823 164.97 127.168V132H163.797Z" fill="#757575"/>
<path d="M35.4417 178.5C35.2952 178.753 35.0849 178.962 34.8319 179.108C34.5788 179.254 34.292 179.33 34 179.33C33.708 179.33 33.4212 179.254 33.1681 179.108C32.9151 178.962 32.7048 178.753 32.5583 178.5M39 167.667C39 166.341 38.4732 165.069 37.5355 164.131C36.5979 163.193 35.3261 162.667 34 162.667C32.6739 162.667 31.4021 163.193 30.4645 164.131C29.5268 165.069 29 166.341 29 167.667C29 173.5 26.5 175.167 26.5 175.167H41.5C41.5 175.167 39 173.5 39 167.667Z" stroke="#4577E1" stroke-width="2" stroke-linecap="round" stroke-linejoin="round"/>
<path d="M65.3636 170C65.2386 169.617 65.0739 169.275 64.8693 168.972C64.6686 168.665 64.428 168.403 64.1477 168.188C63.8712 167.972 63.5568 167.807 63.2045 167.693C62.8523 167.58 62.4659 167.523 62.0455 167.523C61.3561 167.523 60.7292 167.701 60.1648 168.057C59.6004 168.413 59.1515 168.938 58.8182 169.631C58.4848 170.324 58.3182 171.174 58.3182 172.182C58.3182 173.189 58.4867 174.04 58.8239 174.733C59.161 175.426 59.6174 175.951 60.1932 176.307C60.7689 176.663 61.4167 176.841 62.1364 176.841C62.803 176.841 63.3902 176.699 63.8977 176.415C64.4091 176.127 64.8068 175.722 65.0909 175.199C65.3788 174.672 65.5227 174.053 65.5227 173.341L65.9545 173.432H62.4545V172.182H66.8864V173.432C66.8864 174.39 66.6818 175.223 66.2727 175.932C65.8674 176.64 65.3068 177.189 64.5909 177.58C63.8788 177.966 63.0606 178.159 62.1364 178.159C61.1061 178.159 60.2008 177.917 59.4205 177.432C58.6439 176.947 58.0379 176.258 57.6023 175.364C57.1705 174.47 56.9545 173.409 56.9545 172.182C56.9545 171.261 57.0777 170.434 57.3239 169.699C57.5739 168.96 57.9261 168.331 58.3807 167.812C58.8352 167.294 59.3731 166.896 59.9943 166.619C60.6155 166.343 61.2992 166.205 62.0455 166.205C62.6591 166.205 63.2311 166.297 63.7614 166.483C64.2955 166.665 64.7708 166.924 65.1875 167.261C65.608 167.595 65.9583 167.994 66.2386 168.46C66.5189 168.922 66.7121 169.436 66.8182 170H65.3636ZM72.6634 178.182C71.8755 178.182 71.1842 177.994 70.5895 177.619C69.9986 177.244 69.5365 176.72 69.2031 176.045C68.8736 175.371 68.7088 174.583 68.7088 173.682C68.7088 172.773 68.8736 171.979 69.2031 171.301C69.5365 170.623 69.9986 170.097 70.5895 169.722C71.1842 169.347 71.8755 169.159 72.6634 169.159C73.4512 169.159 74.1406 169.347 74.7315 169.722C75.3262 170.097 75.7884 170.623 76.1179 171.301C76.4512 171.979 76.6179 172.773 76.6179 173.682C76.6179 174.583 76.4512 175.371 76.1179 176.045C75.7884 176.72 75.3262 177.244 74.7315 177.619C74.1406 177.994 73.4512 178.182 72.6634 178.182ZM72.6634 176.977C73.2618 176.977 73.7543 176.824 74.1406 176.517C74.527 176.21 74.813 175.807 74.9986 175.307C75.1842 174.807 75.277 174.265 75.277 173.682C75.277 173.098 75.1842 172.555 74.9986 172.051C74.813 171.547 74.527 171.14 74.1406 170.83C73.7543 170.519 73.2618 170.364 72.6634 170.364C72.0649 170.364 71.5724 170.519 71.1861 170.83C70.7997 171.14 70.5137 171.547 70.3281 172.051C70.1425 172.555 70.0497 173.098 70.0497 173.682C70.0497 174.265 70.1425 174.807 70.3281 175.307C70.5137 175.807 70.7997 176.21 71.1861 176.517C71.5724 176.824 72.0649 176.977 72.6634 176.977ZM82.2102 178.182C81.4223 178.182 80.7311 177.994 80.1364 177.619C79.5455 177.244 79.0833 176.72 78.75 176.045C78.4205 175.371 78.2557 174.583 78.2557 173.682C78.2557 172.773 78.4205 171.979 78.75 171.301C79.0833 170.623 79.5455 170.097 80.1364 169.722C80.7311 169.347 81.4223 169.159 82.2102 169.159C82.9981 169.159 83.6875 169.347 84.2784 169.722C84.8731 170.097 85.3352 170.623 85.6648 171.301C85.9981 171.979 86.1648 172.773 86.1648 173.682C86.1648 174.583 85.9981 175.371 85.6648 176.045C85.3352 176.72 84.8731 177.244 84.2784 177.619C83.6875 177.994 82.9981 178.182 82.2102 178.182ZM82.2102 176.977C82.8087 176.977 83.3011 176.824 83.6875 176.517C84.0739 176.21 84.3598 175.807 84.5455 175.307C84.7311 174.807 84.8239 174.265 84.8239 173.682C84.8239 173.098 84.7311 172.555 84.5455 172.051C84.3598 171.547 84.0739 171.14 83.6875 170.83C83.3011 170.519 82.8087 170.364 82.2102 170.364C81.6117 170.364 81.1193 170.519 80.733 170.83C80.3466 171.14 80.0606 171.547 79.875 172.051C79.6894 172.555 79.5966 173.098 79.5966 173.682C79.5966 174.265 79.6894 174.807 79.875 175.307C80.0606 175.807 80.3466 176.21 80.733 176.517C81.1193 176.824 81.6117 176.977 82.2102 176.977ZM91.7344 181.455C91.0866 181.455 90.5298 181.371 90.0639 181.205C89.598 181.042 89.2098 180.826 88.8991 180.557C88.5923 180.292 88.348 180.008 88.1662 179.705L89.2344 178.955C89.3556 179.114 89.509 179.295 89.6946 179.5C89.8802 179.708 90.134 179.888 90.456 180.04C90.7817 180.195 91.2079 180.273 91.7344 180.273C92.4389 180.273 93.0204 180.102 93.4787 179.761C93.937 179.42 94.1662 178.886 94.1662 178.159V176.386H94.0526C93.9541 176.545 93.8139 176.742 93.6321 176.977C93.4541 177.208 93.1965 177.415 92.8594 177.597C92.526 177.775 92.0753 177.864 91.5071 177.864C90.8026 177.864 90.17 177.697 89.6094 177.364C89.0526 177.03 88.6113 176.545 88.2855 175.909C87.9635 175.273 87.8026 174.5 87.8026 173.591C87.8026 172.697 87.9598 171.919 88.2741 171.256C88.5885 170.589 89.026 170.074 89.5866 169.71C90.1473 169.343 90.795 169.159 91.5298 169.159C92.098 169.159 92.5488 169.254 92.8821 169.443C93.2192 169.629 93.4768 169.841 93.6548 170.08C93.8366 170.314 93.9768 170.508 94.0753 170.659H94.2116V169.273H95.5071V178.25C95.5071 179 95.3366 179.61 94.9957 180.08C94.6586 180.553 94.2041 180.9 93.6321 181.119C93.0639 181.343 92.4313 181.455 91.7344 181.455ZM91.6889 176.659C92.2268 176.659 92.6813 176.536 93.0526 176.29C93.4238 176.044 93.706 175.689 93.8991 175.227C94.0923 174.765 94.1889 174.212 94.1889 173.568C94.1889 172.939 94.0942 172.384 93.9048 171.903C93.7154 171.422 93.4351 171.045 93.0639 170.773C92.6927 170.5 92.2344 170.364 91.6889 170.364C91.1207 170.364 90.6473 170.508 90.2685 170.795C89.8935 171.083 89.6113 171.47 89.4219 171.955C89.2363 172.439 89.1435 172.977 89.1435 173.568C89.1435 174.174 89.2382 174.71 89.4276 175.176C89.6207 175.638 89.9048 176.002 90.2798 176.267C90.6586 176.528 91.1283 176.659 91.6889 176.659ZM99.3026 166.364V178H97.9616V166.364H99.3026ZM105.418 178.182C104.577 178.182 103.851 177.996 103.241 177.625C102.635 177.25 102.168 176.727 101.838 176.057C101.512 175.383 101.349 174.598 101.349 173.705C101.349 172.811 101.512 172.023 101.838 171.341C102.168 170.655 102.626 170.121 103.213 169.739C103.804 169.352 104.493 169.159 105.281 169.159C105.736 169.159 106.185 169.235 106.628 169.386C107.071 169.538 107.474 169.784 107.838 170.125C108.202 170.462 108.491 170.909 108.707 171.466C108.923 172.023 109.031 172.708 109.031 173.523V174.091H102.304V172.932H107.668C107.668 172.439 107.569 172 107.372 171.614C107.179 171.227 106.902 170.922 106.543 170.699C106.187 170.475 105.766 170.364 105.281 170.364C104.747 170.364 104.285 170.496 103.895 170.761C103.509 171.023 103.211 171.364 103.003 171.784C102.795 172.205 102.69 172.655 102.69 173.136V173.909C102.69 174.568 102.804 175.127 103.031 175.585C103.262 176.04 103.582 176.386 103.991 176.625C104.401 176.86 104.876 176.977 105.418 176.977C105.77 176.977 106.088 176.928 106.372 176.83C106.66 176.727 106.908 176.576 107.116 176.375C107.325 176.17 107.486 175.917 107.599 175.614L108.895 175.977C108.759 176.417 108.529 176.803 108.207 177.136C107.885 177.466 107.488 177.723 107.014 177.909C106.541 178.091 106.009 178.182 105.418 178.182Z" fill="#1E1E1E"/>
<path d="M270.227 169.273L272.318 172.841L274.409 169.273H275.955L273.136 173.636L275.955 178H274.409L272.318 174.614L270.227 178H268.682L271.455 173.636L268.682 169.273H270.227Z" fill="#1E1E1E"/>
<path d="M57.233 191.818H58.7045L62.1648 200.27H62.2841L65.7443 191.818H67.2159V202H66.0625V194.264H65.9631L62.7812 202H61.6676L58.4858 194.264H58.3864V202H57.233V191.818ZM69.5289 202V194.364H70.7022V202H69.5289ZM70.1255 193.091C69.8968 193.091 69.6996 193.013 69.5339 192.857C69.3715 192.701 69.2903 192.514 69.2903 192.295C69.2903 192.077 69.3715 191.889 69.5339 191.734C69.6996 191.578 69.8968 191.5 70.1255 191.5C70.3542 191.5 70.5498 191.578 70.7122 191.734C70.8779 191.889 70.9608 192.077 70.9608 192.295C70.9608 192.514 70.8779 192.701 70.7122 192.857C70.5498 193.013 70.3542 193.091 70.1255 193.091ZM75.7347 202.159C75.0984 202.159 74.5366 201.998 74.0494 201.677C73.5621 201.352 73.181 200.895 72.9059 200.305C72.6308 199.711 72.4933 199.01 72.4933 198.202C72.4933 197.4 72.6308 196.704 72.9059 196.114C73.181 195.524 73.5638 195.068 74.0543 194.746C74.5449 194.425 75.1116 194.264 75.7546 194.264C76.2518 194.264 76.6445 194.347 76.9329 194.513C77.2246 194.675 77.4466 194.861 77.5991 195.07C77.7549 195.275 77.8758 195.444 77.962 195.577H78.0614V191.818H79.2347V202H78.1012V200.827H77.962C77.8758 200.966 77.7532 201.142 77.5941 201.354C77.435 201.562 77.208 201.75 76.913 201.915C76.618 202.078 76.2253 202.159 75.7347 202.159ZM75.8938 201.105C76.3645 201.105 76.7622 200.982 77.087 200.737C77.4118 200.489 77.6587 200.146 77.8278 199.708C77.9968 199.267 78.0813 198.759 78.0813 198.182C78.0813 197.612 77.9985 197.113 77.8327 196.685C77.667 196.254 77.4218 195.92 77.0969 195.681C76.7721 195.439 76.3711 195.318 75.8938 195.318C75.3967 195.318 74.9824 195.446 74.6509 195.701C74.3228 195.953 74.0759 196.296 73.9102 196.73C73.7478 197.161 73.6665 197.645 73.6665 198.182C73.6665 198.725 73.7494 199.219 73.9151 199.663C74.0842 200.104 74.3327 200.455 74.6609 200.717C74.9923 200.976 75.4033 201.105 75.8938 201.105ZM84.43 202.159C83.7937 202.159 83.2319 201.998 82.7447 201.677C82.2575 201.352 81.8763 200.895 81.6012 200.305C81.3261 199.711 81.1886 199.01 81.1886 198.202C81.1886 197.4 81.3261 196.704 81.6012 196.114C81.8763 195.524 82.2591 195.068 82.7496 194.746C83.2402 194.425 83.8069 194.264 84.4499 194.264C84.9471 194.264 85.3398 194.347 85.6282 194.513C85.9199 194.675 86.1419 194.861 86.2944 195.07C86.4502 195.275 86.5711 195.444 86.6573 195.577H86.7567V191.818H87.93V202H86.7965V200.827H86.6573C86.5711 200.966 86.4485 201.142 86.2894 201.354C86.1303 201.562 85.9033 201.75 85.6083 201.915C85.3133 202.078 84.9206 202.159 84.43 202.159ZM84.5891 201.105C85.0598 201.105 85.4575 200.982 85.7823 200.737C86.1071 200.489 86.354 200.146 86.5231 199.708C86.6921 199.267 86.7766 198.759 86.7766 198.182C86.7766 197.612 86.6938 197.113 86.5281 196.685C86.3623 196.254 86.1171 195.92 85.7923 195.681C85.4674 195.439 85.0664 195.318 84.5891 195.318C84.092 195.318 83.6777 195.446 83.3462 195.701C83.0181 195.953 82.7712 196.296 82.6055 196.73C82.4431 197.161 82.3619 197.645 82.3619 198.182C82.3619 198.725 82.4447 199.219 82.6104 199.663C82.7795 200.104 83.0281 200.455 83.3562 200.717C83.6876 200.976 84.0986 201.105 84.5891 201.105ZM91.4151 191.818V202H90.2418V191.818H91.4151ZM96.7658 202.159C96.03 202.159 95.3953 201.997 94.8617 201.672C94.3314 201.344 93.9221 200.886 93.6337 200.3C93.3487 199.71 93.2061 199.024 93.2061 198.241C93.2061 197.459 93.3487 196.77 93.6337 196.173C93.9221 195.573 94.3231 195.106 94.8368 194.771C95.3539 194.433 95.9571 194.264 96.6465 194.264C97.0442 194.264 97.437 194.33 97.8248 194.463C98.2125 194.596 98.5655 194.811 98.8837 195.109C99.2019 195.404 99.4554 195.795 99.6444 196.283C99.8333 196.77 99.9277 197.37 99.9277 198.082V198.58H94.0414V197.565H98.7346C98.7346 197.134 98.6484 196.75 98.476 196.412C98.307 196.074 98.065 195.807 97.7502 195.612C97.4386 195.416 97.0707 195.318 96.6465 195.318C96.1792 195.318 95.7748 195.434 95.4334 195.666C95.0953 195.895 94.8352 196.193 94.6529 196.561C94.4706 196.929 94.3794 197.323 94.3794 197.744V198.42C94.3794 198.997 94.4789 199.486 94.6777 199.887C94.8799 200.285 95.16 200.588 95.5179 200.797C95.8759 201.002 96.2918 201.105 96.7658 201.105C97.074 201.105 97.3525 201.062 97.601 200.976C97.8529 200.886 98.07 200.754 98.2523 200.578C98.4346 200.399 98.5755 200.177 98.6749 199.912L99.8084 200.23C99.6891 200.615 99.4886 200.953 99.2069 201.244C98.9251 201.533 98.5771 201.758 98.1628 201.92C97.7485 202.08 97.2828 202.159 96.7658 202.159ZM108.534 202.159C107.897 202.159 107.335 201.998 106.848 201.677C106.361 201.352 105.98 200.895 105.705 200.305C105.43 199.711 105.292 199.01 105.292 198.202C105.292 197.4 105.43 196.704 105.705 196.114C105.98 195.524 106.363 195.068 106.853 194.746C107.344 194.425 107.91 194.264 108.553 194.264C109.051 194.264 109.443 194.347 109.732 194.513C110.023 194.675 110.245 194.861 110.398 195.07C110.554 195.275 110.675 195.444 110.761 195.577H110.86V191.818H112.034V202H110.9V200.827H110.761C110.675 200.966 110.552 201.142 110.393 201.354C110.234 201.562 110.007 201.75 109.712 201.915C109.417 202.078 109.024 202.159 108.534 202.159ZM108.693 201.105C109.163 201.105 109.561 200.982 109.886 200.737C110.211 200.489 110.458 200.146 110.627 199.708C110.796 199.267 110.88 198.759 110.88 198.182C110.88 197.612 110.797 197.113 110.632 196.685C110.466 196.254 110.221 195.92 109.896 195.681C109.571 195.439 109.17 195.318 108.693 195.318C108.195 195.318 107.781 195.446 107.45 195.701C107.122 195.953 106.875 196.296 106.709 196.73C106.547 197.161 106.465 197.645 106.465 198.182C106.465 198.725 106.548 199.219 106.714 199.663C106.883 200.104 107.132 200.455 107.46 200.717C107.791 200.976 108.202 201.105 108.693 201.105ZM117.547 202.159C116.811 202.159 116.177 201.997 115.643 201.672C115.113 201.344 114.703 200.886 114.415 200.3C114.13 199.71 113.987 199.024 113.987 198.241C113.987 197.459 114.13 196.77 114.415 196.173C114.703 195.573 115.104 195.106 115.618 194.771C116.135 194.433 116.738 194.264 117.428 194.264C117.825 194.264 118.218 194.33 118.606 194.463C118.994 194.596 119.347 194.811 119.665 195.109C119.983 195.404 120.237 195.795 120.426 196.283C120.615 196.77 120.709 197.37 120.709 198.082V198.58H114.823V197.565H119.516C119.516 197.134 119.43 196.75 119.257 196.412C119.088 196.074 118.846 195.807 118.531 195.612C118.22 195.416 117.852 195.318 117.428 195.318C116.96 195.318 116.556 195.434 116.215 195.666C115.877 195.895 115.616 196.193 115.434 196.561C115.252 196.929 115.161 197.323 115.161 197.744V198.42C115.161 198.997 115.26 199.486 115.459 199.887C115.661 200.285 115.941 200.588 116.299 200.797C116.657 201.002 117.073 201.105 117.547 201.105C117.855 201.105 118.134 201.062 118.382 200.976C118.634 200.886 118.851 200.754 119.034 200.578C119.216 200.399 119.357 200.177 119.456 199.912L120.59 200.23C120.47 200.615 120.27 200.953 119.988 201.244C119.706 201.533 119.358 201.758 118.944 201.92C118.53 202.08 118.064 202.159 117.547 202.159ZM128.506 194.364L125.682 202H124.489L121.665 194.364H122.938L125.045 200.449H125.125L127.233 194.364H128.506ZM132.983 202.159C132.247 202.159 131.612 201.997 131.078 201.672C130.548 201.344 130.139 200.886 129.85 200.3C129.565 199.71 129.423 199.024 129.423 198.241C129.423 197.459 129.565 196.77 129.85 196.173C130.139 195.573 130.54 195.106 131.054 194.771C131.571 194.433 132.174 194.264 132.863 194.264C133.261 194.264 133.654 194.33 134.042 194.463C134.429 194.596 134.782 194.811 135.1 195.109C135.419 195.404 135.672 195.795 135.861 196.283C136.05 196.77 136.145 197.37 136.145 198.082V198.58H130.258V197.565H134.951C134.951 197.134 134.865 196.75 134.693 196.412C134.524 196.074 134.282 195.807 133.967 195.612C133.655 195.416 133.288 195.318 132.863 195.318C132.396 195.318 131.992 195.434 131.65 195.666C131.312 195.895 131.052 196.193 130.87 196.561C130.687 196.929 130.596 197.323 130.596 197.744V198.42C130.596 198.997 130.696 199.486 130.895 199.887C131.097 200.285 131.377 200.588 131.735 200.797C132.093 201.002 132.509 201.105 132.983 201.105C133.291 201.105 133.569 201.062 133.818 200.976C134.07 200.886 134.287 200.754 134.469 200.578C134.651 200.399 134.792 200.177 134.892 199.912L136.025 200.23C135.906 200.615 135.705 200.953 135.424 201.244C135.142 201.533 134.794 201.758 134.38 201.92C133.965 202.08 133.5 202.159 132.983 202.159ZM139.103 191.818V202H137.929V191.818H139.103ZM144.354 202.159C143.664 202.159 143.06 201.995 142.539 201.667C142.022 201.339 141.618 200.88 141.326 200.29C141.038 199.7 140.894 199.01 140.894 198.222C140.894 197.426 141.038 196.732 141.326 196.138C141.618 195.545 142.022 195.085 142.539 194.756C143.06 194.428 143.664 194.264 144.354 194.264C145.043 194.264 145.646 194.428 146.164 194.756C146.684 195.085 147.088 195.545 147.377 196.138C147.668 196.732 147.814 197.426 147.814 198.222C147.814 199.01 147.668 199.7 147.377 200.29C147.088 200.88 146.684 201.339 146.164 201.667C145.646 201.995 145.043 202.159 144.354 202.159ZM144.354 201.105C144.878 201.105 145.308 200.971 145.646 200.702C145.985 200.434 146.235 200.081 146.397 199.643C146.56 199.206 146.641 198.732 146.641 198.222C146.641 197.711 146.56 197.236 146.397 196.795C146.235 196.354 145.985 195.998 145.646 195.726C145.308 195.454 144.878 195.318 144.354 195.318C143.83 195.318 143.399 195.454 143.061 195.726C142.723 195.998 142.473 196.354 142.311 196.795C142.148 197.236 142.067 197.711 142.067 198.222C142.067 198.732 142.148 199.206 142.311 199.643C142.473 200.081 142.723 200.434 143.061 200.702C143.399 200.971 143.83 201.105 144.354 201.105ZM149.605 204.864V194.364H150.739V195.577H150.878C150.964 195.444 151.083 195.275 151.236 195.07C151.392 194.861 151.614 194.675 151.902 194.513C152.194 194.347 152.588 194.264 153.085 194.264C153.728 194.264 154.295 194.425 154.786 194.746C155.276 195.068 155.659 195.524 155.934 196.114C156.209 196.704 156.347 197.4 156.347 198.202C156.347 199.01 156.209 199.711 155.934 200.305C155.659 200.895 155.278 201.352 154.79 201.677C154.303 201.998 153.741 202.159 153.105 202.159C152.615 202.159 152.222 202.078 151.927 201.915C151.632 201.75 151.405 201.562 151.246 201.354C151.087 201.142 150.964 200.966 150.878 200.827H150.778V204.864H149.605ZM150.759 198.182C150.759 198.759 150.843 199.267 151.012 199.708C151.181 200.146 151.428 200.489 151.753 200.737C152.078 200.982 152.475 201.105 152.946 201.105C153.437 201.105 153.846 200.976 154.174 200.717C154.505 200.455 154.754 200.104 154.92 199.663C155.089 199.219 155.173 198.725 155.173 198.182C155.173 197.645 155.09 197.161 154.925 196.73C154.762 196.296 154.515 195.953 154.184 195.701C153.856 195.446 153.443 195.318 152.946 195.318C152.469 195.318 152.068 195.439 151.743 195.681C151.418 195.92 151.173 196.254 151.007 196.685C150.841 197.113 150.759 197.612 150.759 198.182ZM161.338 202.159C160.602 202.159 159.968 201.997 159.434 201.672C158.904 201.344 158.494 200.886 158.206 200.3C157.921 199.71 157.778 199.024 157.778 198.241C157.778 197.459 157.921 196.77 158.206 196.173C158.494 195.573 158.895 195.106 159.409 194.771C159.926 194.433 160.529 194.264 161.219 194.264C161.616 194.264 162.009 194.33 162.397 194.463C162.785 194.596 163.138 194.811 163.456 195.109C163.774 195.404 164.028 195.795 164.217 196.283C164.406 196.77 164.5 197.37 164.5 198.082V198.58H158.614V197.565H163.307C163.307 197.134 163.221 196.75 163.048 196.412C162.879 196.074 162.637 195.807 162.322 195.612C162.011 195.416 161.643 195.318 161.219 195.318C160.751 195.318 160.347 195.434 160.006 195.666C159.668 195.895 159.407 196.193 159.225 196.561C159.043 196.929 158.952 197.323 158.952 197.744V198.42C158.952 198.997 159.051 199.486 159.25 199.887C159.452 200.285 159.732 200.588 160.09 200.797C160.448 201.002 160.864 201.105 161.338 201.105C161.646 201.105 161.925 201.062 162.173 200.976C162.425 200.886 162.642 200.754 162.825 200.578C163.007 200.399 163.148 200.177 163.247 199.912L164.381 200.23C164.261 200.615 164.061 200.953 163.779 201.244C163.497 201.533 163.149 201.758 162.735 201.92C162.321 202.08 161.855 202.159 161.338 202.159ZM166.285 202V194.364H167.418V195.517H167.498C167.637 195.139 167.889 194.833 168.254 194.597C168.618 194.362 169.029 194.244 169.487 194.244C169.573 194.244 169.68 194.246 169.81 194.249C169.939 194.253 170.037 194.258 170.103 194.264V195.457C170.063 195.447 169.972 195.433 169.83 195.413C169.69 195.389 169.543 195.378 169.387 195.378C169.016 195.378 168.684 195.456 168.393 195.612C168.104 195.764 167.876 195.976 167.707 196.248C167.541 196.516 167.458 196.823 167.458 197.168V202H166.285Z" fill="#757575"/>
</g>
<rect x="24" y="227" width="253" height="1" fill="#D9D9D9"/>
<path d="M34.8333 249.667L26.5 259.667H34L33.1667 266.333L41.5 256.333H34L34.8333 249.667Z" stroke="#4577E1" stroke-width="2" stroke-linecap="round" stroke-linejoin="round"/>
<path d="M57.8864 265H56.4091L60.6818 253.364H62.1364L66.4091 265H64.9318L61.4545 255.205H61.3636L57.8864 265ZM58.4318 260.455H64.3864V261.705H58.4318V260.455ZM68.0398 265V256.273H69.3352V257.636H69.4489C69.6307 257.17 69.9242 256.809 70.3295 256.551C70.7348 256.29 71.2216 256.159 71.7898 256.159C72.3655 256.159 72.8447 256.29 73.2273 256.551C73.6136 256.809 73.9148 257.17 74.1307 257.636H74.2216C74.4451 257.186 74.7803 256.828 75.2273 256.562C75.6742 256.294 76.2102 256.159 76.8352 256.159C77.6155 256.159 78.2538 256.403 78.75 256.892C79.2462 257.377 79.4943 258.133 79.4943 259.159V265H78.1534V259.159C78.1534 258.515 77.9773 258.055 77.625 257.778C77.2727 257.502 76.858 257.364 76.3807 257.364C75.767 257.364 75.2917 257.549 74.9545 257.92C74.6174 258.288 74.4489 258.754 74.4489 259.318V265H73.0852V259.023C73.0852 258.527 72.9242 258.127 72.6023 257.824C72.2803 257.517 71.8655 257.364 71.358 257.364C71.0095 257.364 70.6837 257.456 70.3807 257.642C70.0814 257.828 69.839 258.085 69.6534 258.415C69.4716 258.741 69.3807 259.117 69.3807 259.545V265H68.0398ZM84.5142 265.205C83.9612 265.205 83.4593 265.1 83.0085 264.892C82.5578 264.68 82.1998 264.375 81.9347 263.977C81.6695 263.576 81.5369 263.091 81.5369 262.523C81.5369 262.023 81.6354 261.617 81.8324 261.307C82.0294 260.992 82.2926 260.746 82.6222 260.568C82.9517 260.39 83.3153 260.258 83.7131 260.17C84.1146 260.08 84.518 260.008 84.9233 259.955C85.4536 259.886 85.8835 259.835 86.2131 259.801C86.5464 259.763 86.7888 259.701 86.9403 259.614C87.0956 259.527 87.1733 259.375 87.1733 259.159V259.114C87.1733 258.553 87.0199 258.117 86.7131 257.807C86.41 257.496 85.9498 257.341 85.3324 257.341C84.6922 257.341 84.1903 257.481 83.8267 257.761C83.4631 258.042 83.2074 258.341 83.0597 258.659L81.7869 258.205C82.0142 257.674 82.3172 257.261 82.696 256.966C83.0786 256.667 83.4953 256.458 83.946 256.341C84.4006 256.22 84.8475 256.159 85.2869 256.159C85.5672 256.159 85.8892 256.193 86.2528 256.261C86.6203 256.326 86.9744 256.46 87.3153 256.665C87.66 256.869 87.946 257.178 88.1733 257.591C88.4006 258.004 88.5142 258.557 88.5142 259.25V265H87.1733V263.818H87.1051C87.0142 264.008 86.8627 264.21 86.6506 264.426C86.4384 264.642 86.1563 264.826 85.804 264.977C85.4517 265.129 85.0218 265.205 84.5142 265.205ZM84.7188 264C85.2491 264 85.696 263.896 86.0597 263.688C86.4271 263.479 86.7036 263.21 86.8892 262.881C87.0786 262.551 87.1733 262.205 87.1733 261.841V260.614C87.1165 260.682 86.9915 260.744 86.7983 260.801C86.6089 260.854 86.3892 260.902 86.1392 260.943C85.893 260.981 85.6525 261.015 85.4176 261.045C85.1866 261.072 84.9991 261.095 84.8551 261.114C84.5066 261.159 84.1809 261.233 83.8778 261.335C83.5786 261.434 83.3362 261.583 83.1506 261.784C82.9688 261.981 82.8778 262.25 82.8778 262.591C82.8778 263.057 83.0502 263.409 83.3949 263.648C83.7434 263.883 84.1847 264 84.7188 264ZM90.7116 265V263.977L95.6662 257.614V257.523H90.8707V256.273H97.3935V257.341L92.5753 263.659V263.75H97.5526V265H90.7116ZM102.913 265.182C102.125 265.182 101.434 264.994 100.839 264.619C100.249 264.244 99.7865 263.72 99.4531 263.045C99.1236 262.371 98.9588 261.583 98.9588 260.682C98.9588 259.773 99.1236 258.979 99.4531 258.301C99.7865 257.623 100.249 257.097 100.839 256.722C101.434 256.347 102.125 256.159 102.913 256.159C103.701 256.159 104.391 256.347 104.982 256.722C105.576 257.097 106.038 257.623 106.368 258.301C106.701 258.979 106.868 259.773 106.868 260.682C106.868 261.583 106.701 262.371 106.368 263.045C106.038 263.72 105.576 264.244 104.982 264.619C104.391 264.994 103.701 265.182 102.913 265.182ZM102.913 263.977C103.512 263.977 104.004 263.824 104.391 263.517C104.777 263.21 105.063 262.807 105.249 262.307C105.434 261.807 105.527 261.265 105.527 260.682C105.527 260.098 105.434 259.555 105.249 259.051C105.063 258.547 104.777 258.14 104.391 257.83C104.004 257.519 103.512 257.364 102.913 257.364C102.315 257.364 101.822 257.519 101.436 257.83C101.05 258.14 100.764 258.547 100.578 259.051C100.393 259.555 100.3 260.098 100.3 260.682C100.3 261.265 100.393 261.807 100.578 262.307C100.764 262.807 101.05 263.21 101.436 263.517C101.822 263.824 102.315 263.977 102.913 263.977ZM110.256 259.75V265H108.915V256.273H110.21V257.636H110.324C110.528 257.193 110.839 256.837 111.256 256.568C111.672 256.295 112.21 256.159 112.869 256.159C113.46 256.159 113.977 256.28 114.42 256.523C114.864 256.761 115.208 257.125 115.455 257.614C115.701 258.098 115.824 258.712 115.824 259.455V265H114.483V259.545C114.483 258.86 114.305 258.326 113.949 257.943C113.593 257.557 113.104 257.364 112.483 257.364C112.055 257.364 111.672 257.456 111.335 257.642C111.002 257.828 110.739 258.098 110.545 258.455C110.352 258.811 110.256 259.242 110.256 259.75Z" fill="#1E1E1E"/>
<path d="M263.727 259.75L264.591 258.864L267.591 261.818L273.795 255.636L274.682 256.523L267.591 263.591L263.727 259.75Z" fill="#1E1E1E"/>
<path d="M65.4261 282H64.1932C64.1203 281.645 63.9927 281.334 63.8104 281.065C63.6314 280.797 63.4126 280.571 63.1541 280.389C62.8989 280.204 62.6155 280.064 62.304 279.972C61.9924 279.879 61.6676 279.832 61.3295 279.832C60.7131 279.832 60.1546 279.988 59.6541 280.3C59.157 280.611 58.7609 281.07 58.4659 281.677C58.1742 282.283 58.0284 283.027 58.0284 283.909C58.0284 284.791 58.1742 285.535 58.4659 286.141C58.7609 286.748 59.157 287.207 59.6541 287.518C60.1546 287.83 60.7131 287.986 61.3295 287.986C61.6676 287.986 61.9924 287.939 62.304 287.847C62.6155 287.754 62.8989 287.616 63.1541 287.434C63.4126 287.248 63.6314 287.021 63.8104 286.753C63.9927 286.481 64.1203 286.17 64.1932 285.818H65.4261C65.3333 286.339 65.1643 286.804 64.919 287.215C64.6738 287.626 64.3688 287.976 64.0043 288.264C63.6397 288.549 63.2304 288.766 62.7763 288.915C62.3255 289.065 61.8433 289.139 61.3295 289.139C60.4612 289.139 59.6889 288.927 59.0128 288.503C58.3366 288.079 57.8047 287.475 57.4169 286.693C57.0291 285.911 56.8352 284.983 56.8352 283.909C56.8352 282.835 57.0291 281.907 57.4169 281.125C57.8047 280.343 58.3366 279.74 59.0128 279.315C59.6889 278.891 60.4612 278.679 61.3295 278.679C61.8433 278.679 62.3255 278.754 62.7763 278.903C63.2304 279.052 63.6397 279.271 64.0043 279.559C64.3688 279.844 64.6738 280.192 64.919 280.603C65.1643 281.011 65.3333 281.476 65.4261 282ZM67.4185 289V278.818H73.5634V279.912H68.6515V283.352H73.2452V284.446H68.6515V287.906H73.6429V289H67.4185ZM84.3766 283.909C84.3766 284.983 84.1827 285.911 83.7949 286.693C83.4071 287.475 82.8752 288.079 82.199 288.503C81.5229 288.927 80.7507 289.139 79.8823 289.139C79.0139 289.139 78.2417 288.927 77.5655 288.503C76.8894 288.079 76.3574 287.475 75.9696 286.693C75.5819 285.911 75.388 284.983 75.388 283.909C75.388 282.835 75.5819 281.907 75.9696 281.125C76.3574 280.343 76.8894 279.74 77.5655 279.315C78.2417 278.891 79.0139 278.679 79.8823 278.679C80.7507 278.679 81.5229 278.891 82.199 279.315C82.8752 279.74 83.4071 280.343 83.7949 281.125C84.1827 281.907 84.3766 282.835 84.3766 283.909ZM83.1834 283.909C83.1834 283.027 83.0359 282.283 82.7409 281.677C82.4493 281.07 82.0532 280.611 81.5527 280.3C81.0556 279.988 80.4988 279.832 79.8823 279.832C79.2658 279.832 78.7073 279.988 78.2069 280.3C77.7097 280.611 77.3136 281.07 77.0186 281.677C76.727 282.283 76.5811 283.027 76.5811 283.909C76.5811 284.791 76.727 285.535 77.0186 286.141C77.3136 286.748 77.7097 287.207 78.2069 287.518C78.7073 287.83 79.2658 287.986 79.8823 287.986C80.4988 287.986 81.0556 287.83 81.5527 287.518C82.0532 287.207 82.4493 286.748 82.7409 286.141C83.0359 285.535 83.1834 284.791 83.1834 283.909Z" fill="#757575"/>
<g clip-path="url(#clip1_21_1063)">
<path d="M42.7834 323.35C42.6844 322.954 42.4828 322.592 42.1989 322.299C41.915 322.007 41.559 321.794 41.1667 321.683C39.7334 321.333 34 321.333 34 321.333C34 321.333 28.2667 321.333 26.8334 321.717C26.4411 321.828 26.085 322.04 25.8012 322.333C25.5173 322.625 25.3157 322.988 25.2167 323.383C24.9544 324.838 24.8261 326.314 24.8334 327.792C24.824 329.281 24.9523 330.768 25.2167 332.233C25.3258 332.616 25.532 332.965 25.8151 333.245C26.0983 333.526 26.449 333.728 26.8334 333.833C28.2667 334.217 34 334.217 34 334.217C34 334.217 39.7334 334.217 41.1667 333.833C41.559 333.722 41.915 333.51 42.1989 333.217C42.4828 332.924 42.6844 332.562 42.7834 332.167C43.0437 330.723 43.172 329.259 43.1667 327.792C43.176 326.302 43.0477 324.816 42.7834 323.35Z" stroke="#4577E1" stroke-width="2" stroke-linecap="round" stroke-linejoin="round"/>
<path d="M32.125 330.517L36.9167 327.792L32.125 325.067V330.517Z" stroke="#4577E1" stroke-width="2" stroke-linecap="round" stroke-linejoin="round"/>
</g>
<path d="M56.4091 323.364H58.0227L61.25 328.795H61.3864L64.6136 323.364H66.2273L62.0227 330.205V335H60.6136V330.205L56.4091 323.364ZM70.179 335.182C69.3911 335.182 68.6998 334.994 68.1051 334.619C67.5142 334.244 67.0521 333.72 66.7188 333.045C66.3892 332.371 66.2244 331.583 66.2244 330.682C66.2244 329.773 66.3892 328.979 66.7188 328.301C67.0521 327.623 67.5142 327.097 68.1051 326.722C68.6998 326.347 69.3911 326.159 70.179 326.159C70.9669 326.159 71.6563 326.347 72.2472 326.722C72.8419 327.097 73.304 327.623 73.6335 328.301C73.9669 328.979 74.1335 329.773 74.1335 330.682C74.1335 331.583 73.9669 332.371 73.6335 333.045C73.304 333.72 72.8419 334.244 72.2472 334.619C71.6563 334.994 70.9669 335.182 70.179 335.182ZM70.179 333.977C70.7775 333.977 71.2699 333.824 71.6562 333.517C72.0426 333.21 72.3286 332.807 72.5142 332.307C72.6998 331.807 72.7926 331.265 72.7926 330.682C72.7926 330.098 72.6998 329.555 72.5142 329.051C72.3286 328.547 72.0426 328.14 71.6562 327.83C71.2699 327.519 70.7775 327.364 70.179 327.364C69.5805 327.364 69.0881 327.519 68.7017 327.83C68.3153 328.14 68.0294 328.547 67.8438 329.051C67.6581 329.555 67.5653 330.098 67.5653 330.682C67.5653 331.265 67.6581 331.807 67.8438 332.307C68.0294 332.807 68.3153 333.21 68.7017 333.517C69.0881 333.824 69.5805 333.977 70.179 333.977ZM81.6804 331.432V326.273H83.0213V335H81.6804V333.523H81.5895C81.3849 333.966 81.0668 334.343 80.6349 334.653C80.2031 334.96 79.6577 335.114 78.9986 335.114C78.4531 335.114 77.9683 334.994 77.544 334.756C77.1198 334.513 76.7865 334.15 76.544 333.665C76.3016 333.176 76.1804 332.561 76.1804 331.818V326.273H77.5213V331.727C77.5213 332.364 77.6993 332.871 78.0554 333.25C78.4152 333.629 78.8736 333.818 79.4304 333.818C79.7637 333.818 80.1027 333.733 80.4474 333.562C80.7959 333.392 81.0876 333.131 81.3224 332.778C81.5611 332.426 81.6804 331.977 81.6804 331.432ZM89.2727 326.273V327.409H84.75V326.273H89.2727ZM86.0682 324.182H87.4091V332.5C87.4091 332.879 87.464 333.163 87.5739 333.352C87.6875 333.538 87.8314 333.663 88.0057 333.727C88.1837 333.788 88.3712 333.818 88.5682 333.818C88.7159 333.818 88.8371 333.811 88.9318 333.795C89.0265 333.777 89.1023 333.761 89.1591 333.75L89.4318 334.955C89.3409 334.989 89.214 335.023 89.0511 335.057C88.8883 335.095 88.6818 335.114 88.4318 335.114C88.053 335.114 87.6818 335.032 87.3182 334.869C86.9583 334.706 86.6591 334.458 86.4205 334.125C86.1856 333.792 86.0682 333.371 86.0682 332.864V324.182ZM96.7898 331.432V326.273H98.1307V335H96.7898V333.523H96.6989C96.4943 333.966 96.1761 334.343 95.7443 334.653C95.3125 334.96 94.767 335.114 94.108 335.114C93.5625 335.114 93.0777 334.994 92.6534 334.756C92.2292 334.513 91.8958 334.15 91.6534 333.665C91.411 333.176 91.2898 332.561 91.2898 331.818V326.273H92.6307V331.727C92.6307 332.364 92.8087 332.871 93.1648 333.25C93.5246 333.629 93.983 333.818 94.5398 333.818C94.8731 333.818 95.2121 333.733 95.5568 333.562C95.9053 333.392 96.197 333.131 96.4318 332.778C96.6705 332.426 96.7898 331.977 96.7898 331.432ZM100.768 335V323.364H102.109V327.659H102.223C102.321 327.508 102.458 327.314 102.632 327.08C102.81 326.841 103.064 326.629 103.393 326.443C103.727 326.254 104.178 326.159 104.746 326.159C105.481 326.159 106.128 326.343 106.689 326.71C107.25 327.078 107.687 327.598 108.001 328.273C108.316 328.947 108.473 329.742 108.473 330.659C108.473 331.583 108.316 332.384 108.001 333.062C107.687 333.737 107.251 334.259 106.695 334.631C106.138 334.998 105.496 335.182 104.768 335.182C104.208 335.182 103.759 335.089 103.422 334.903C103.085 334.714 102.825 334.5 102.643 334.261C102.462 334.019 102.321 333.818 102.223 333.659H102.064V335H100.768ZM102.087 330.636C102.087 331.295 102.183 331.877 102.376 332.381C102.57 332.881 102.852 333.273 103.223 333.557C103.594 333.837 104.049 333.977 104.587 333.977C105.147 333.977 105.615 333.83 105.99 333.534C106.369 333.235 106.653 332.833 106.842 332.33C107.036 331.822 107.132 331.258 107.132 330.636C107.132 330.023 107.037 329.47 106.848 328.977C106.662 328.481 106.38 328.089 106.001 327.801C105.626 327.509 105.155 327.364 104.587 327.364C104.041 327.364 103.583 327.502 103.212 327.778C102.84 328.051 102.56 328.434 102.371 328.926C102.181 329.415 102.087 329.985 102.087 330.636ZM114.183 335.182C113.342 335.182 112.617 334.996 112.007 334.625C111.401 334.25 110.933 333.727 110.604 333.057C110.278 332.383 110.115 331.598 110.115 330.705C110.115 329.811 110.278 329.023 110.604 328.341C110.933 327.655 111.392 327.121 111.979 326.739C112.57 326.352 113.259 326.159 114.047 326.159C114.501 326.159 114.95 326.235 115.393 326.386C115.837 326.538 116.24 326.784 116.604 327.125C116.967 327.462 117.257 327.909 117.473 328.466C117.689 329.023 117.797 329.708 117.797 330.523V331.091H111.07V329.932H116.433C116.433 329.439 116.335 329 116.138 328.614C115.945 328.227 115.668 327.922 115.308 327.699C114.952 327.475 114.532 327.364 114.047 327.364C113.513 327.364 113.051 327.496 112.661 327.761C112.274 328.023 111.977 328.364 111.768 328.784C111.56 329.205 111.456 329.655 111.456 330.136V330.909C111.456 331.568 111.57 332.127 111.797 332.585C112.028 333.04 112.348 333.386 112.757 333.625C113.166 333.86 113.642 333.977 114.183 333.977C114.536 333.977 114.854 333.928 115.138 333.83C115.426 333.727 115.674 333.576 115.882 333.375C116.09 333.17 116.251 332.917 116.365 332.614L117.661 332.977C117.524 333.417 117.295 333.803 116.973 334.136C116.651 334.466 116.253 334.723 115.78 334.909C115.306 335.091 114.774 335.182 114.183 335.182Z" fill="#1E1E1E"/>
<path d="M270.227 326.273L272.318 329.841L274.409 326.273H275.955L273.136 330.636L275.955 335H274.409L272.318 331.614L270.227 335H268.682L271.455 330.636L268.682 326.273H270.227Z" fill="#1E1E1E"/>
<path d="M65.4261 352H64.1932C64.1203 351.645 63.9927 351.334 63.8104 351.065C63.6314 350.797 63.4126 350.571 63.1541 350.389C62.8989 350.204 62.6155 350.064 62.304 349.972C61.9924 349.879 61.6676 349.832 61.3295 349.832C60.7131 349.832 60.1546 349.988 59.6541 350.3C59.157 350.611 58.7609 351.07 58.4659 351.677C58.1742 352.283 58.0284 353.027 58.0284 353.909C58.0284 354.791 58.1742 355.535 58.4659 356.141C58.7609 356.748 59.157 357.207 59.6541 357.518C60.1546 357.83 60.7131 357.986 61.3295 357.986C61.6676 357.986 61.9924 357.939 62.304 357.847C62.6155 357.754 62.8989 357.616 63.1541 357.434C63.4126 357.248 63.6314 357.021 63.8104 356.753C63.9927 356.481 64.1203 356.17 64.1932 355.818H65.4261C65.3333 356.339 65.1643 356.804 64.919 357.215C64.6738 357.626 64.3688 357.976 64.0043 358.264C63.6397 358.549 63.2304 358.766 62.7763 358.915C62.3255 359.065 61.8433 359.139 61.3295 359.139C60.4612 359.139 59.6889 358.927 59.0128 358.503C58.3366 358.079 57.8047 357.475 57.4169 356.693C57.0291 355.911 56.8352 354.983 56.8352 353.909C56.8352 352.835 57.0291 351.907 57.4169 351.125C57.8047 350.343 58.3366 349.74 59.0128 349.315C59.6889 348.891 60.4612 348.679 61.3295 348.679C61.8433 348.679 62.3255 348.754 62.7763 348.903C63.2304 349.052 63.6397 349.271 64.0043 349.559C64.3688 349.844 64.6738 350.192 64.919 350.603C65.1643 351.011 65.3333 351.476 65.4261 352ZM67.4185 359V348.818H73.5236V349.912H68.6515V353.352H73.0662V354.446H68.6515V359H67.4185ZM84.2262 353.909C84.2262 354.983 84.0323 355.911 83.6445 356.693C83.2567 357.475 82.7248 358.079 82.0487 358.503C81.3725 358.927 80.6003 359.139 79.7319 359.139C78.8635 359.139 78.0913 358.927 77.4151 358.503C76.739 358.079 76.207 357.475 75.8192 356.693C75.4315 355.911 75.2376 354.983 75.2376 353.909C75.2376 352.835 75.4315 351.907 75.8192 351.125C76.207 350.343 76.739 349.74 77.4151 349.315C78.0913 348.891 78.8635 348.679 79.7319 348.679C80.6003 348.679 81.3725 348.891 82.0487 349.315C82.7248 349.74 83.2567 350.343 83.6445 351.125C84.0323 351.907 84.2262 352.835 84.2262 353.909ZM83.033 353.909C83.033 353.027 82.8855 352.283 82.5906 351.677C82.2989 351.07 81.9028 350.611 81.4023 350.3C80.9052 349.988 80.3484 349.832 79.7319 349.832C79.1154 349.832 78.5569 349.988 78.0565 350.3C77.5593 350.611 77.1632 351.07 76.8683 351.677C76.5766 352.283 76.4308 353.027 76.4308 353.909C76.4308 354.791 76.5766 355.535 76.8683 356.141C77.1632 356.748 77.5593 357.207 78.0565 357.518C78.5569 357.83 79.1154 357.986 79.7319 357.986C80.3484 357.986 80.9052 357.83 81.4023 357.518C81.9028 357.207 82.2989 356.748 82.5906 356.141C82.8855 355.535 83.033 354.791 83.033 353.909Z" fill="#757575"/>
<defs>
<clipPath id="clip0_21_1063">
<rect x="8" y="79" width="285" height="140" rx="8" fill="white"/>
</clipPath>
<clipPath id="clip1_21_1063">
<rect width="20" height="20" fill="white" transform="translate(24 318)"/>
</clipPath>
</defs>
</svg>
